<?xml version="1.0"?>
<svg xmlns="http://www.w3.org/2000/svg" width="72.106" height="85.395" viewBox="0 0 72.106 85.395">
    <g transform="translate(0)">
        <g transform="translate(0)">
            <path d="M59.546,20.673a.545.545,0,0,0-.419-.516A110.165,110.165,0,0,0,36.735,17.85h-.477A113.679,113.679,0,0,0,13.709,20.2a.545.545,0,0,0-.419.516V33.447c0,.974,0,15.7,9.571,26.745A54.522,54.522,0,0,0,36.082,71.779a.75.75,0,0,0,.73,0A54.853,54.853,0,0,0,50.005,60.192c9.736-11.333,9.551-26.619,9.551-26.843ZM45.059,56.016c-.769.9-1.519,1.723-2.249,2.492-.175.175-.312.117-.312-.127V53.046c0-4.021,3.894-6.066,5.2-6.64a.711.711,0,0,0,.409-.6V41.772A.273.273,0,0,0,47.7,41.5a31.068,31.068,0,0,1-22.783,0,.263.263,0,0,0-.4.263V45.8a.691.691,0,0,0,.409.594c4.284,1.636,5.16,4.43,5.16,6.7v5.238c0,.243-.146.292-.312.117-.711-.75-1.451-1.568-2.22-2.444-8.052-9.337-8.013-22.393-8-22.549V26.038a.535.535,0,0,1,.438-.516A106.9,106.9,0,0,1,36.18,24.237h.477a104.556,104.556,0,0,1,15.977,1.236.526.526,0,0,1,.438.506v7.253C53.072,33.477,53.16,46.659,45.059,56.016Z" transform="translate(-0.35 -0.471)" fill="#0083e3"></path>
            <path d="M72.1,33.707V5.053a.613.613,0,0,0-.389-.545,66.459,66.459,0,0,0-16.4-2.843.38.38,0,0,0-.419.389V7.127a.341.341,0,0,1-.409.351c-2.853-.438-5.988-.808-9.356-1.061a.458.458,0,0,1-.419-.448V1.1A.477.477,0,0,0,44.3.584,74.218,74.218,0,0,0,35.81,0a63.078,63.078,0,0,0-7.964.662.506.506,0,0,0-.409.477V6.007a.458.458,0,0,1-.409.448c-3.369.253-6.5.633-9.356,1.071a.351.351,0,0,1-.409-.351V2.054a.38.38,0,0,0-.419-.389A67.462,67.462,0,0,0,.4,4.508a.613.613,0,0,0-.389.545V33.707S-.808,52.965,12.287,68.153c11.6,13.426,21.283,16.639,23.367,17.194a1.743,1.743,0,0,0,.808,0c2.064-.555,11.761-3.768,23.367-17.194C72.885,52.965,72.1,33.707,72.1,33.707ZM54.522,63.937c-7.9,9.133-14.6,13.085-18.08,14.6a1.032,1.032,0,0,1-.8,0c-3.447-1.568-10.194-5.511-18.07-14.6C5.978,50.511,6.436,32.908,6.445,32.733V15.14a.594.594,0,0,1,.428-.535,119.989,119.989,0,0,1,28.985-3.68h.5A116.015,116.015,0,0,1,65.232,14.6a.594.594,0,0,1,.419.555v17.6C65.661,32.908,66.118,50.511,54.522,63.937Z" transform="translate(0)" fill="#0083e3"></path>
            <path d="M36.831,28.33a6.231,6.231,0,1,0,6.212,6.241A6.231,6.231,0,0,0,36.831,28.33Z" transform="translate(-0.807 -0.747)" fill="#0083e3"></path>
        </g>
    </g>
</svg>
