<?xml version="1.0"?>
<svg xmlns="http://www.w3.org/2000/svg" xmlns:xlink="http://www.w3.org/1999/xlink" width="220" height="111" viewBox="0 0 220 111">
    <defs>
        <filter id="a" x="52" y="16" width="115.568" height="85.387" filterUnits="userSpaceOnUse">
            <feOffset dy="3" input="SourceAlpha"></feOffset>
            <feGaussianBlur stdDeviation="6" result="b"></feGaussianBlur>
            <feFlood flood-opacity="0.161"></feFlood>
            <feComposite operator="in" in2="b"></feComposite>
            <feComposite in="SourceGraphic"></feComposite>
        </filter>
    </defs>
    <g transform="translate(-611 -249)">
        <circle cx="55.5" cy="55.5" r="55.5" transform="translate(666 249)" fill="#0083e3"></circle>
        <g transform="matrix(1, 0, 0, 1, 611, 249)" filter="url(#a)">
            <path d="M-1673.432,379.387H-1747a3,3,0,0,1-3-3V333a3,3,0,0,1,3-3h73.568a3,3,0,0,1,3,3v43.387A3,3,0,0,1-1673.432,379.387Zm-23.237-24.99h0l16.878,16.878,1.455-1.455-16.579-16.579,19.453-12.805-1.12-1.726-33.16,21.534L-1742.9,338.71l-1.12,1.726,18.846,12.239-17.145,17.145,1.455,1.455,17.455-17.455,13.905,9.031.005-.008,12.832-8.446Z" transform="translate(1820 -299)" fill="#fff"></path>
        </g>
        <rect width="67" height="8" rx="4" transform="translate(611 315)" fill="#ffcd0c"></rect>
        <rect width="57" height="8" rx="4" transform="translate(621 302)" fill="#ffcd0c"></rect>
        <rect width="37" height="8" rx="4" transform="translate(641 288)" fill="#ffcd0c"></rect>
        <rect width="67" height="8" rx="4" transform="translate(764 288)" fill="#ffcd0c"></rect>
        <rect width="57" height="8" rx="4" transform="translate(764 301)" fill="#ffcd0c"></rect>
        <rect width="37" height="8" rx="4" transform="translate(764 315)" fill="#ffcd0c"></rect>
    </g>
</svg>
