<?xml version="1.0" encoding="utf-8"?>
<!-- Generator: Adobe Illustrator 21.1.0, SVG Export Plug-In . SVG Version: 6.00 Build 0)  -->
<svg version="1.1" id="Layer_1" xmlns="http://www.w3.org/2000/svg" xmlns:xlink="http://www.w3.org/1999/xlink" x="0px" y="0px"
	 viewBox="0 0 300 154.3" style="enable-background:new 0 0 300 154.3;" xml:space="preserve">
<style type="text/css">
	.st0{fill:#2B2D3B;}
</style>
<g>
	<path class="st0" d="M214,90.3c2.1-9.3,1.9-7.9,2.2-6.7c0.1,0.5,0.1,1.1,0,1.7c-0.1,0.6,0.1,1.1,0.6,1.4c0.6,0.4,0.7,0.9,0.7,1.6
		c0,0.8,0.3,1.5,0.4,2.3c0.1,1,0.1,2.1,0,3.1c-0.1,0.9-0.5,1.7-0.8,2.6c-0.8,2.1-1.7,4.1-3.4,5.7c-1.9,1.9-4.2,3-6.7,3.9
		c-1.3,0.4-2.6,1.1-4,0.9c-0.2,0-0.3,0.1-0.5,0.2c-1.5,0.9-3.1,1.2-5,0.9c0.3,1.6-0.3,3.1,0.4,4.7c0.3,0.6,0,1.4,0.1,2.1
		c0.1,0.8-0.3,1.6,0.4,2.4c0.4,0.4-0.6,4.6-1,5.1c-0.9,1.1-1.5,2.5-2.6,3.5c-1.2,1.1-2.4,2-4,2.4c-1,0.2-1.9,0.8-2.8,1.1
		c-1,0.3-2.1,0.3-3,0.9l-0.4,0c-2.9,0-5.8,0-8.7,0c-1.3-0.6-2.7-0.1-4-0.5c-2-0.7-4.2,0.3-6-1.1c-1.2,0.1-2.1-0.4-3.2-0.8
		c-1-0.4-2.1-0.2-3.1-0.5c-1.6-0.5-3.4-0.3-4.9-1.2c-0.2-0.1-0.6-0.1-0.7-0.3c-0.5-0.8-1.5-0.8-2-0.5c-1.1,0.5-2.1,0.3-3.2,0.3
		c-1.3,0.1-2.6,0-3.9,0c-0.9,0-1.8,0.3-2.4,0.7c-0.6,0.4-1.2,0.6-1.9,0.6c-0.9,0-1.8-0.1-2.8,0.4c-0.8,0.4-1.9-0.3-2.7,0.4
		c-0.2,0.2-0.7,0-1,0c-0.7,0-1.4,0.2-2.1,0.4c-0.6,0.1-1.3-0.4-1.9-0.3c-1.4,0.2-2.7,0.4-4,0.9c-0.5,0.2-1,0.3-1.5,0.4
		c-1.4,0.2-2.9,0.3-4.1,1c-0.3,0.2-0.8,0.2-1.1,0.2c-1,0-2.1,0-3.1,0c-0.3,0-0.8-0.1-1,0.1c-1,0.9-2.2,0.7-3.4,0.7
		c-0.3,0-0.6,0.2-0.9,0.3c-1.7,0.4-3.4,1-5.2,1c-1.5,0-3,0.3-4.5,0.8c-0.7,0.2-1.5,0.1-2.3,0.1c-0.9,0-1.7-0.1-2.5,0.5
		c-0.2,0.2-0.5,0.3-0.7,0.3c-0.9,0-1.8,0-2.7,0c-0.8,0-1.5,0.3-2.3,0.5c-1.8,0.4-3.5,0-5.2,0.4c-2.8,0.6-5.6,0.2-8.3,0.3
		c-2.8,0.1-5.7,0.3-8.5-0.1c-2-0.2-4-0.2-6.1-0.4c-0.8-0.1-1.8-0.2-2.5-0.5c-0.8-0.3-1.4-0.3-2.2-0.3c-0.9-0.1-1.6-0.4-2.4-0.8
		c-0.6-0.3-1.2-0.7-1.9-0.9c-1.1-0.3-2.5,0.9-2.5,2c0,1.6-0.3,3.1-0.8,4.6c-0.1,0.4-0.2,0.8-0.5,1c-0.8,0.6-1.1,1.6-1.1,2.4
		c-0.2,2-1.5,3.6-2.1,5.4c-0.8,0.2-0.9,1.2-1.5,1.6c-0.5,0.3-0.9,0.8-1.5,1c-1,0.3-2,0.5-3.1,0.5c-1.5,0.1-3,0.3-4.5,0.8
		c-0.2,0.1-0.5,0.1-0.8,0.1c-0.4,0-0.8,0-1.2,0c-4.8-0.3-9.6,0.6-14.3,0.4c-0.9,0-1.6,0.5-2.5,0.5c-0.7-0.1-1.7-0.4-2.3,0.4
		c-1.1-0.7-2.1,0.2-3.2,0c-1-0.2-2.2,0.3-3.1-0.4c-1.4,0.3-2.8-0.5-4.2-0.4c-1,0-1.3-0.3-1.3-1.4c0-1.2,0.5-2.3,1.1-3.3
		c0.1-0.2,0.5-0.4,0.5-0.6c-0.3-2.3,1.6-4.2,1.3-6.5c0.6-1.1,0.7-2.4,0.3-3.3c-0.4-1-0.5-2-0.2-2.7c0.4-1.1,0.2-2.1,0.3-3.2
		c0.1-0.8-0.2-1.5-0.5-2.1c-1.1-1.8-1.9-3.7-3.2-5.3c-0.4-0.6-0.6-1-0.2-1.6c0.2-0.3,0.3-1,0.1-1.3c-0.4-0.6-0.5-1,0-1.6
		c0.1-0.1-0.1-0.5-0.1-0.7c0-0.4-0.1-0.7-0.1-1.1l0.3-0.3c-0.4-2,0.8-3.6,1.3-5.3c0.4-1.2,0.5-2.4,1-3.5c0.5-1.2,0.7-2.4,0.7-3.7
		c0-0.4,0.3-0.7,0.4-1.1c0.1-0.8,0.1-1.7,0-2.5c-0.1-1.2,0.6-1.3,1.5-1.6c0.7-0.3,1.3-0.8,2-1.2c0.2-0.1,0.3-0.4,0.3-0.6
		c0-0.2,0-0.4-0.2-0.5l-0.5,0c-0.6,0.5-1.3,0.9-1.9,1.5c-0.6,0.6-1.2,0.6-2,0.4c1.1-0.9,2.2-1.7,3.2-2.5c0.4-0.3,0.6-0.5,1-0.1
		l0.3,0c0.3-0.5,0.8-1,0.9-1.5c0.1-0.4,1-0.7,0.3-1.2c-0.3-0.2-0.9,0.1-1.2,0.3c-0.8,0.5-1.5,1.1-2.2,1.6c-0.6,0.4-1.3,0.8-2,1.2
		c-0.6-0.8-1.4-0.2-2.3-0.5c0.5-0.5,0.5-1,1.2-1.4c1.2-0.6,2.1-1.5,3.2-2.3c0.4-0.3,0.8-0.6,1.3-0.9c0.6-0.3,1.4-0.5,1.6-0.9
		c0.3-0.6,0.8-1,1.2-1.6l0.1-0.5c-0.1-0.1-0.4-0.2-0.5-0.2c-1.2,0.2-2.1,1.1-3,1.7c-0.6,0.5-1.2,1-1.9,1.5c-0.8,0.6-1.7,0.7-2.7,0.5
		c-0.3-0.7-0.1-1.4,0.3-2l0.4-0.4c0.5-0.4,0.9,0.8,1.6,0c0.4-0.5,1.1-0.6,1.7-0.9c0.5-0.3,0.9-0.8,1.5-1c0.7-0.2,1.4-0.4,1.9-1
		c1,0.2,1.4-0.7,2-1.2c0.2-0.2,0.9-0.3,0.4-0.9c-0.4-0.5-0.9-0.6-1.4-0.2c-0.5,0.4-1,0.8-1.6,1.2c-1.3,0.9-2.6,1.8-3.9,2.6
		c-0.6,0.4-1.3,0.7-2,0.6c-0.9-0.1-1.3-0.5-1.2-1.5c0.1-0.5,0.2-1.1,0.6-1.4c0.7-0.6,1.1-1.8,2.4-1.7c0.2,0,0.3-0.2,0.5-0.3
		c1.4-1.6,3.3-2.3,5.2-2.9c1-0.3,1.4-1,2.1-1.5c0.3-0.3-0.1-1-0.5-1c-0.7,0-1.5-0.2-2,0.6l-0.5,0.2c-0.7,0.5-1.6,0.6-2.3,1
		c-0.7,0.4-1.3,0.8-2,1.1c-0.2,0.1-0.5,0.3-0.7,0.3c-0.2,0-0.6-0.1-0.6-0.3c-0.1-0.2,0-0.5,0.1-0.8l0.5-0.2c0.5-0.6,1.5-0.3,2.1-1.1
		c0.4-0.6,1.2-1,1.9-1.3c0.7-0.4,1.4-0.7,2-1.3c0.2-0.2,0.7-0.3,1.1-0.4c1.6-0.3,3.1-1.6,3.6-3.2c0.1-0.3,0-0.8-0.2-0.9
		c-0.2-0.1-0.7-0.1-0.9,0.1c-0.8,0.5-1.7,1-2.4,1.6c-1.3,1.2-3,1.9-4.4,2.9c-1.1,0.8-2.1,0.7-3.3,0.8c0.3-1.1,0.5-2.1,0.9-2.9
		C6.3,74,7,73.5,7.6,73c1,0.3,1.4-0.5,2.1-1c1-0.8,2.2-1.4,3.4-1.8c0.9-0.3,1.6-1.3,2.7-1c0.7-0.6,1.2-1.3,1.4-2.1
		c0.1-0.2,0.7-0.4,0.2-0.8c-0.3-0.3-0.6-0.5-1-0.1c-1,0.7-2.2,0.9-3,1.8c-0.8-0.1-1,1-1.9,1c-0.7-0.1-1,1-1.9,0.9
		c-0.4-0.1-0.9,0.6-1.4,1c-1,0.6-1.9-0.3-2.8-0.3l0-0.5c0.3-0.2,0.7-0.4,1-0.6c1.4-0.8,2.8-1.7,4.2-2.5c0.8-0.4,1.6-1,2.4-1.2
		c0.8-0.2,1.3-1,2.3-1.1c0.8-0.1,1.6-0.7,2.5-1c0.2-0.1,0.6,0,0.8,0c0.2-0.1,0.4-0.2,0.5-0.4c0.2-0.4,0.3-0.8,0.4-1.3
		c0.1-0.3,0.7-0.6,0.1-0.9c-0.3-0.2-1-0.3-1.1-0.2c-0.5,1.2-2,0.4-2.6,1.3c-0.6,0.9-1.7,1-2.5,1.5c-0.8,0.5-1.7,0.9-2.6,1.3
		c-0.6,0.3-0.9,0.8-1.3,1.2c-0.7,0.6-1.4,0.6-2.1,0.9c-1,0.3-1.6-0.2-1.5-1.3c0.1-1,0.2-2,0.4-2.9l0.6-0.3c0.5,0.7,0.9,0.3,1.4,0
		c0.5-0.3,1.1-0.5,1.5-0.9c2.1-1.8,4.7-3,7.2-4.2c0.9-0.4,1.7-0.9,2.6-1.1c0.4-0.1,0.8-0.1,1-0.5c0.2-0.4,0.5-0.9,0.6-1.4
		c0-0.1-0.5-0.5-0.7-0.5c-0.4,0.1-0.7,0.4-1,0.5c-1,0.3-1.8,1.2-2.9,1L16,55.2c-1.2,1.2-3,1.2-4.2,2.5c-0.4,0.5-1,1.1-1.6,1.1
		c-0.8,0.1-1.2,0.5-1.7,0.9c-0.4,0.3-0.9,0.5-1.3,0.8c-0.3,0.2-0.5,0.7-0.9,0.8c-0.7,0.2-0.3-0.8-0.8-1c-0.5-0.1-0.9-0.6-1.4-0.6
		c-1.4-0.2-1.6-1.2-2-2.2C2,56.8,1.8,56,1.9,55.3c0.2-0.9,1.3-0.3,1.9-0.7c0.7-0.5,1.4-1,2.2-1.6c-1.4-0.4-1.4-0.4-3.6,0.9
		c-0.5-1.9-0.3-2.3,1.4-3c0.6-0.3,1.3-0.6,2-0.6c0.8-0.1,1.2-0.3,1.4-1.1c0.2-0.6,0.8-1,1.1-1.6c0.1-0.2,0-0.6-0.1-1
		c-0.2,0-0.5,0-0.7,0.1c-1,0.6-2.2,0.9-3,1.7c-0.2,0.2-0.7,0-1.1,0c0.1-0.4,0.1-1,0.3-1.1C4.6,47,4.9,46,5.9,46c0.4,0,0.8-0.2,1-0.4
		c1.1-1,2.5-1.4,3.7-2.1c1.6-1,3.3-2,4.2-3.8c0.1-0.3,0.1-0.6,0.2-1c-0.4,0-0.8-0.3-1.1-0.1c-0.9,0.5-1.8,1-2.7,1.6
		c-1.1,0.6-1.9,1.4-3.2,1.8C7,42.4,6,43.3,4.8,44c-0.1-1.1-0.1-2,0-3c0.3-1.6,1.6-2.2,2.7-2.9c0.6-0.4,1.3-0.9,2.1-0.9
		c0.3,0,0.8-0.2,1-0.4c0.9-1.2,2.3-1.4,3.5-2.1c1.2-0.7,2.5-1,3.7-1.7c1-0.6,1.7-1.6,2.6-2.5l0-0.2c0.1-0.4,1-0.4,0.5-1
		c-0.5-0.7-1.1,0-1.5,0.1c-0.8,0.2-1.5,0.8-2.2,1.2c-2.2,1.6-4.8,2.6-7.2,3.7c-1,0.5-2.1,0.8-3.3,1.1c-0.3,0.1-0.9,0.3-1-0.3
		c-0.1-0.5,0.4-0.4,0.6-0.5c1.2-1.2,2.8-1.6,4.2-2.5c0.6-0.4,1.2-0.6,2-0.8c1.1-0.3,2.2-0.8,3.2-1.4c1.8-1,3.8-1.5,5.7-2.3
		c1.2-0.5,2.5-0.9,3.6-1.9c-1-0.3-1.6,0.2-2.3,0.6c-0.2,0.1-0.5-0.1-0.7-0.1c0.1-0.2,0.2-0.5,0.3-0.6c0.9-0.5,2.1-0.6,3-1.4
		c0.8-0.7,1.9-1,3-1.3c0.6-0.2,1.2-0.1,1.8-0.2c0.7-0.1,1.2-0.5,1.1-1.1c-0.1-0.6-0.4-1-1.1-0.9c-0.9,0-1.8-0.2-2.4,0.8
		c-1.4,0.4-2.5,1.5-4.1,1.7c-0.5,0.1-0.9,0.5-1.3,0.7c-1.6,0.9-3.3,1.6-4.7,2.7c-0.9,0.7-1.9,0.7-2.8,1.4c-1,0.7-2.2,1.5-3.6,1.4
		c-0.2,0-0.4,0.1-0.5,0.3c-1.1,1.2-2.7,1.6-4,2.4c-0.7,0.4-1.2,0.2-1.9,0c-1.9-0.5-2.6-2-3.2-3.6c-0.1-0.2-0.2-0.7,0-0.8
		C2.4,27,1.9,26,2.3,25.5c0.5-0.7,0.2-1.4,0.4-2.1C2.7,23,2.9,22.7,3,22.3c0.3-0.9,0.7-1.7,0.8-2.6c0.1-0.9,0.1-1.9,0.5-2.7
		c0.5-1.1,0.3-2.1,0.4-3.2l0-0.4c-0.4-0.5-0.8-1.1-1.1-1.6C2.9,11,2.3,10.2,2.2,9.1C2.1,8.6,2.3,8.4,2.9,8.2C5.3,7.6,7.8,8,10.2,7.8
		c1.1-0.1,2.1,0,3.2-0.3c1.5-0.5,3,0.3,4.5,0.5c0.2,0,0.3,0.2,0.5,0.2c0.9,0,1.8,0,2.7,0c0.8,0.1,1.5,0.4,2.3,0.4
		c2.1,0,4.1,0.2,6.1,0.9c1.7-0.4,3,0.8,4.6,0.9c0.8,0,1.4,0.9,2.3,0.8c2.1,1.3,4.5,1.9,6.5,3.3c0.9,0.6,1.7,1.3,2.5,2
		c1.1,0.9,2.1,1.9,3.2,2.8c0.9,0.7,1.6,1.5,2.3,2.3c0.7,0.9,1.7,1.6,2.5,2.5c1.5,1.8,3,3.6,3.5,6c0.2,1.2,1.8,2.2,2.8,2.2
		c0.4,0,0.7-0.1,1.1-0.4c1-0.6,2.1-1.1,3.2-1.7c0.3-0.2,0.7-0.3,1-0.5c1.3-0.7,2.5-1.7,3.9-2.1c1.5-0.4,2.7-1.3,4-1.9
		c1.2-0.6,2.3-1.1,3.4-1.9c0.9-0.7,1.9-1.1,2.9-1.6c1.2-0.5,2.4-0.9,3.5-1.7c1-0.7,2.2-1,3.3-1.5c0.6-0.3,1.1-0.7,1.6-1
		c0.8-0.5,1.7-0.9,2.6-1.3c1.5-0.7,2.9-1.6,4.4-2.3c1.1-0.5,2.2-1.1,3.3-1.5c0.6-0.2,0.9-0.4,1.4-0.7c0.4-0.2,0.9-0.3,1.3-0.5
		c1.8-0.9,3.6-1.8,5.5-2.1c0.8-0.1,1.1-1.3,2.1-0.9c0.7-1,2.1-0.7,2.9-1.6c1.2,0.2,2-1.2,3.2-0.8c0.8-0.7,1.9-0.8,2.8-1.3
		c0.9-0.6,2-0.7,3-1.1c0.9-0.4,2-0.6,3-0.8c1-0.2,2.1-0.3,3.1-0.4c0.7-0.1,1.4-0.3,2.1-0.4c0.6-0.1,1.4,0.2,1.9-0.4l0.2,0
		c1.9-0.1,3.8-0.4,5.6-0.4c3.7-0.1,7.5,0.1,11.2,0c2.9-0.1,5.7,0.8,8.5,0.4c2,0.8,4.2,0.3,6.3,0.4c1.3,0.1,2.6,0.6,4,0.5
		c1.3-0.1,2.7-0.3,3.9,0c1.9,0.6,3.8,0,5.6,0.4c2.4,0.5,4.8,0.1,7.1,0.5c1.8,0.3,3.5,0,5.2,0.4c3.3,0.7,6.7,0.2,10,0.4
		c0.9,0.1,1.8,0.3,2.7,0.4c0.9,0.1,1.9-0.2,2.7,0.1c1.3,0.5,2.5,0.3,3.8,0.3c2.5,0.1,5,0.7,7.5,0.4c0.7-0.1,1.2,0.8,2.1,0.3
		c0.4-0.2,1.2,0.1,1.8,0.1c0.8,0,1.5,0,2.3,0c0.2,0,0.3,0.3,0.5,0.5c-0.1,0.1-0.2,0.3-0.4,0.3c-0.2,0.1-0.4,0.1-0.6,0
		c-1.9-0.7-3.9-0.4-5.8-0.4c-1.3,0-2.5-0.5-3.8-0.5c-1.2,0-2.6,0.3-3.7-0.1c-1.7-0.5-3.4-0.3-5-0.3c-2.6-0.1-5.1-0.7-7.7-0.4
		c-2.5-0.8-5-0.3-7.5-0.4c-1.9-0.1-3.7-0.7-5.6-0.4c-1.1-0.7-2.4-0.3-3.6-0.4c-1.3-0.1-2.6-0.3-4-0.4c-1.4-0.1-2.8,0.2-4.1-0.1
		c-2.8-0.7-5.6-0.3-8.3-0.3c-2.9-0.1-5.8-0.7-8.7-0.4c-2.4-0.8-4.9-0.2-7.3-0.4c-0.6-0.1-1.4,0.3-1.9-0.4c-0.1-0.1-0.4-0.1-0.6,0
		c-1.3,0.7-2.7,0.3-4,0.4c-1.3,0.1-2.6,0-3.9,0c-1,0.1-2-0.3-3,0.3c-0.8,0.5-1.8-0.1-2.7,0.5c-0.6,0.4-1.5,0.3-2.3,0.4
		c-3.1,0.3-6,1.5-8.9,2.7c-0.8,0.3-1.5,0.7-2.2,1.1c-1,0.5-2,0.9-3,1.3c-0.4,0.1-0.8,0.2-1.1,0.4c-1.2,0.9-2.7,1.2-4.1,1.7
		c-1.2,0.4-2.2,1.1-3.4,1.4c-1.2,0.3-2.2,1.2-3.3,1.4c-1.3,0.2-2.1,1.2-3.4,1.4c-0.8,0.1-1.6,0.8-2.3,1.3c-1.7,1.2-3.6,2-5.5,2.8
		c-1.4,0.6-2.7,1.5-4.1,2.1c-3.2,1.4-6.1,3.3-9.2,4.9c-3.1,1.6-6,3.5-9,5.4c-0.4,0.3-0.7,0.8-1,1.2c-0.8-0.2-1.5,0.2-2,0.6
		c-1.6,1.2-3.5,2-5.3,2.7l-0.2,0c-1,1-2.3,1.6-3.6,2.3c-0.6,0.3-0.6,1.6-0.2,2.4c0.2,0.3,0.4,0.6,0.7,1.1c-0.7,0-0.9-0.4-1.1-0.6
		c-1.1-1-1.1-1.1-2.2-0.1c-0.6,0.6-1.3,0.4-1.9,0.4c-1.1-0.1-1.6,0.5-1.9,1.3c-0.1,0.2-0.2,0.5-0.1,0.5c0.6,0.7,0.3,1.8,0.9,2.6
		c0.5,0.7,1.1,1.4,1.6,2c0.5,0.5,1,1,1.4,1.5c0.2,0.2,0.2,0.6,0.2,0.9l-0.5,0.2c-0.2-0.1-0.5-0.3-0.6-0.5c-0.9-1.4-2.3-2.5-3-4.2
		c-0.1-0.4-0.3-0.8-0.6-1c-0.3-0.2-0.9-0.2-1.1,0c-0.4,0.5-0.8,1.1-0.9,1.7c-0.1,0.6-0.1,1.3,0.5,1.8c0.5,0.4,0.4,0.9-0.1,1.4
		c-1.4,1.5-1.2,3.1-0.3,4.8c0.3,0.6,0.5,0.8-0.3,0.9c-1.7,0.3-1.9,2-1.1,3.1c0.5,0.6,0.7,1.6,1.7,1.8c0.2,0,0.5,0.3,0.1,0.6
		c-0.2,0.1-0.4,0.2-0.6,0.2c-0.6-0.1-1.3-0.2-2.1-0.3c0.1,1.1-0.1,2.1,0.4,3.1c0.4,0.7,0.3,0.7-0.3,1.3c-0.2,0.2-0.4,0.5-0.5,0.8
		c-0.1,0.7,0,1.4,0,2.1c0,0.2,0.1,0.6,0.3,0.7c1.3,1.2,2.1,2.9,3.8,3.7l0.2,0c0.1,0.5,1,0.9,0.6,1.5c-0.5,0.7-0.8-0.6-1.4-0.3
		c-0.6-0.6-1.2-1.3-1.9-1.9c-0.2-0.2-1-0.1-1.1,0c-0.1,0.6,0,1.2-0.1,1.8c-0.2,0.8,0.4,0.8,0.8,1.1c0.4,0.4,0.6,1,1.1,1.4
		c0.4,0.4,1,0.6,1.7,1.1c-1,0.3-1.6,0.4-2.2-0.3c-0.2-0.3-0.7-0.4-1-0.6c-0.9-0.6-1,0.4-1.4,0.7c-0.4,0.2-0.2,0.5,0,0.8
		c0.9,1.4,2.1,2.3,3.5,3.1c-1,0.5-2,0.1-2.8-0.3c-0.3-0.2-0.5-0.5-0.9-0.2c-0.4,0.3-0.6,0.8-0.5,1.2c0.2,0.5,0.5,0.9,0.8,1.3
		c0.4,0.5,0.8,0.8,1.3,1.3c-0.3,0.1-0.4,0.2-0.5,0.2c-0.4,0.1-0.7-0.9-1.2-0.2c-0.5,0.7-0.7,2-0.1,2.3c0.7,0.4,0.6,1.4,1.5,1.7
		c0.6,0.2,1,0.9,1.7,1.3c0.8,0.4,1.4,1.3,2.1,2c0.4,0.4,0.9,0.7,1.4,1c0.1,0.1,0.4-0.1,0.6-0.3l-0.1-0.4c-0.9-0.7-1.8-1.3-2.7-2
		c-0.6-0.4-0.1-1.3-0.9-1.7c-0.6-0.3-1-0.9-1.5-1.4c-0.2-0.2-0.4-0.5-0.5-0.8c-0.1-0.3-0.1-1,0.5-0.3c1.6,0,2.5,0.9,3.6,1.9
		c0.9,0.8,1.8,1.6,2.8,2.3c0.2,0.2,0.6,0.3,0.9,0.4c0.2,0,0.4-0.1,0.5-0.2l-0.1-0.5c-0.4-0.4-1-0.6-1.4-1c-0.4-0.4-0.6-0.9-1-1.2
		c-0.5-0.4,0.1-0.8,0-1.1c-0.1-0.3-0.4-0.8-0.6-0.8c-2,0.3-2.8-1.3-4.2-2.5c1.3,0,2.2-0.2,3.2,0.4c0.8,0.5,1.7,0.8,2.1,1.9
		c0.2,0.5,0.9,0.7,1.4,1c1.2,0.8,2.5,1.5,3.5,2.6c0.1,0.2,0.5,0.2,0.7,0.3l0.4,0l-0.1-0.4c-0.4-1.1-1.2-1.9-2.1-2.4
		c-0.9-0.5-1.5-1.3-2.3-1.7c-0.1-0.1-0.3-0.3-0.2-0.5l0.4-0.3c1.9-0.1,3.7,0.1,5.2,1.6c0.8,0.8,1.1,0.7,1.5-0.4
		c0.2-0.7,0.9,0,1.3-0.6c-0.3-0.2-0.6-0.6-0.9-0.6c-1.9,0.1-3.2-0.8-4.3-2.1c-0.3-0.4-0.7-0.7-1-1c-0.2-0.2-0.3-0.6-0.4-0.8
		c0.3-0.1,0.7-0.3,1-0.1c0.8,0.3,1.6,0.3,2.3,1c0.6,0.6,1.4,1,2.1,1.5c0.8,0.6,1.8,1,2.3,1.8c0.9,1.2,2.2,1.1,3.3,1.5
		c0.1,0,0.4-0.2,0.6-0.4c-0.2-0.2-0.3-0.4-0.5-0.4c-0.8-0.1-1.4-0.4-1.9-1c-0.8-0.8-1.7-1.5-2.7-2l-0.3-0.4c0-0.1,0.2-0.3,0.3-0.4
		c0.4-0.1,1-0.4,1.2-0.2c0.5,0.4,1.1,0.2,1.6,0.2c0.6,0,0.7,0.6,1.1,0.8c1.4,0.6,2.5,1.3,3.6,2.4c0.2,0.2,0.5,0.2,0.7,0.2
		c0.2,0,0.4-0.1,0.5-0.2L68.4,83c-0.5-0.4-0.9-0.7-1.4-1c-0.5-0.3-1-0.4-0.9-1.3c0-0.3-0.5-0.6-1.1-0.7c-1.1-0.2-3.2-2-3.8-2.9
		c0,0,0-0.1,0-0.3c1.7-0.4,3.2,0.2,4.5,1.3c0.6,0.5,0.9,1.2,1.8,1.1c0.2,0,0.5,0.6,0.6,0.9c0.2,0.9,0.7,1.2,1.6,1.1
		c0.5-0.1,1.1,1,1.3-0.3c-1.1-0.7-1.7-2.1-3-2.6c-0.2-0.1-0.2-0.6-0.2-0.9c0-0.1,0.4-0.3,0.6-0.3c1.1-0.1,1.9,0.2,2.6,1.2
		c0.6,0.8,1.6,1.4,2.4,2.1l0.5,0.2c0.1,0.3,0,0.8,0.5,0.6c0.2-0.1,0.3-0.5,0.5-0.7c0.3-0.3,0.2-0.5,0-0.6c-0.7-0.2-0.8-1.1-1.6-1.2
		c-0.1,0-0.2-0.4-0.2-0.5l0.4-0.3c0.7,0.2,1.5-0.6,2.1,0c0.6,0.5,1.6,0.3,2.1,1.1c0.2,0.3,0.7,0.4,1,0.6c1,0.6,2,1.1,2.6,2.2
		c0.1,0.2,0.5,0.2,0.7,0.3c0-0.4,0.2-1.1,0.1-1.1c-0.9-0.3-1.3-1.1-2-1.7c-0.9-0.7-2-1.3-2.9-2.1c-1.2-0.9-2.2-1.9-3.3-2.9
		c-0.2-0.2-0.2-0.4-0.4-0.7c0.2-0.1,0.4-0.3,0.7-0.3c1-0.1,1.8,0.3,2.5,0.9c1.7,1.3,3.5,2.5,5.3,3.7c0.9,0.6,1.9,0.9,3,1.2
		c-1-0.6-1.4-1.6-2.3-2.3c-1.3-0.9-2.8-1.8-3.5-3.4c-0.1-0.2-0.5-0.5-0.8-0.5c-0.8,0.1-1.2-0.4-1.7-0.8c-0.8-0.8-1.7-1.5-2.6-2.2
		c-0.1-0.1-0.1-0.4,0-0.5l0.3-0.1c0.4,0,0.8,0,1.2,0.2c0.7,0.4,1.5,0.8,2.2,1.3c0.7,0.5,1.3,1.1,2,1.6c0.4,0.3,0.5,0.6,0,0.9
		c0,0,0.2,0.5,0.3,0.5c0.4,0.1,0.8,0,1.2,0c0.6,0.1,1.2,0.2,1.6,0.6c1.4,1.3,2.9,2.2,4.6,3c1.5,0.8,3.1,1.6,4.6,2.4l0.4,0.1
		c0-0.2,0-0.4-0.1-0.6c-0.2-0.2-0.4-0.4-0.6-0.5c-0.8-0.4-1.8-0.7-2.3-1.3c-0.6-0.7-1.3-1.2-2-1.8c-0.7-0.7-1.5-1.4-2.3-1.8
		c-1.3-0.7-2.5-1.4-3.6-2.4c-0.3-0.3-0.7-0.4-1-0.6c-0.2-0.1-0.4-0.4-0.4-0.6c-0.2-0.9-0.2-0.9-0.8-1c-1.3-0.1-2.3-0.8-2.9-1.8
		c-0.4-0.6-0.7-1.3-1.4-1.5l-0.3-0.2c0.4-1.4-0.5-1.6-1.6-1.5c-1-1-2-1.9-2.9-3c-0.1-0.1,0-0.5,0.1-0.7c0.2-0.2,0.3-0.3,0.7-0.2
		c1.9,0.7,3,2.4,4.4,3.7c-0.2,0.7,0.5,0.5,0.8,0.7c1.9,1,3.5,2.3,5.1,3.8c0.4,0.4,0.2,0.6,0,0.9l0.4,0.5c1.6-0.2,2.7,0.7,3.6,1.8
		c0.3,0.3,0.6,0.7,1.1,0.8c0.3,0.1,0.5,0.8,0.8,1.1c0.3,0.3,0.7,0.4,1,0.5c0.6,0.3,1.3,0.5,1.9,0.8c0.3,0.1,0.6,0.3,0.9,0.4
		c-0.1-0.4-0.1-0.8-0.3-1.1c-0.5-0.6-1.2-1.2-1.7-1.8c-0.9,0.4-0.5-1.3-1.5-0.9c-0.7,0.3-0.5-1-1.3-1.2c-0.6-0.2-0.9-1.1-1.5-1.3
		c-1.3-0.5-1.8-2-3.2-2.4c-0.1,0-0.1-0.4-0.2-0.5c-0.2-0.3-0.6-0.6,0-0.9c-0.4-0.1-0.8-0.1-1.2-0.2L79.9,65
		c-1.1-0.9-2.2-1.8-3.2-2.8c-0.2-0.2-0.2-0.7-0.2-1.1c0.3-0.1,0.7-0.2,1-0.1c0.5,0.2,1.1,0.5,1.5,0.8c0.9,0.7,1.8,1.4,2.7,2.1
		c0.5,0.4,0.7,0.8,0.6,1.4c0,0.2,0.2,0.6,0.3,0.6c1-0.3,1.5,0.8,2.4,0.8c1,0,1.1,1.1,2,1.3c0.5,0.1,0.7,0.8,1.1,1.3
		c-0.2,0.1-0.4,0.2-0.5,0.3c-0.1,0.1-0.2,0.3-0.2,0.5l0.4,0.3c0.6,0,1.3-0.1,1.9,0c0.9,0.3,1.9,0.4,2.6,1.3c0.1,0.2,0.7,0.3,0.8,0.2
		c0.3-0.2,0.4-0.6,0.5-1c0.1-0.5-0.2-0.5-0.6-0.5c-1.1-0.2-2.1-0.7-2.9-1.6c-0.4-0.5-0.9-0.9-1.3-1.3c-0.5-0.4-1-1-1-1.5
		c0.2-1-0.7-1.4-1.2-1.4c-2,0-2.9-1.6-4.4-2.5c-0.2-0.1-0.1-0.5-0.2-0.7c0.2,0,0.5,0,0.7,0c0.2,0,0.5,0.3,0.7,0.2
		c1.2-0.3,1.8,0.6,2.7,1.1c0.5,0.3,0.6,1.2,1.1,1.3c0.7,0.2,0.9,0.8,1.4,1.1c-0.2,0.9,0.9,0.5,1,1c1.2,0,1.9,0.9,2.7,1.5
		c0.6,0.4,0.9,1.2,1.9,1.1c0.2,0,0.5,0.4,0.7,0.6c0.7,0.6,1.4,1.2,2.2,1.7c0.1,0.1,0.4,0,0.6-0.1c0-0.2,0-0.6-0.1-0.7
		c-0.9-0.3-1.5-1-1.9-1.9c-0.3-0.6-1-0.9-1.7-1.5c1.1,0,2,0,3,0c0.3,0,0.5-0.4,0.8-0.6c-0.2-0.2-0.5-0.4-0.7-0.6l-0.4,0
		c-0.5,0.1-1.1-0.1-1.5,0.3c-0.2,0.1-1-0.4-1.2-0.3c-0.5,0.5-0.9,0.3-1.4,0c-0.4-0.3-1.9-1.3-2.2-1.7c-0.1-0.2-0.2-0.3-0.3-0.5
		c-0.1-0.2-0.7-0.3-0.3-0.7c0.4-0.5,1.1-0.6,1.2-0.3c0.6,0.9,2,0.7,2.4,1.8c0,0.1,0.8,0.1,1.1,0c0.4-0.2,0.7-0.7,1-1
		c0.7-0.7,0.9-0.7,1.7-0.1c0.7,0.6,1.5,1.1,2.1,1.7c0.3,0.3,0.5,0.3,0.8,0c0.3-0.3,0.1-0.5-0.1-0.6c-1-0.7-1.9-1.5-2.9-2
		c-1.5-0.8-2.3-1.9-2.2-3.7c0-0.4,0.2-1-0.3-1.3L94.3,57c0.2-0.1,0.5-0.2,0.7-0.2c0.2,0,0.4,0.1,0.5,0.3c1.3,1.6,3.3,2.1,4.8,3.4
		c1,0.9,2.1,1.6,3.2,2.4c0.1,0.1,0.5-0.1,0.7-0.1c0-0.2,0-0.5-0.1-0.5c-1-0.5-1.4-1.5-2.1-2.2c-1.3-1.1-2.4-2.4-4.2-3
		c-0.4-0.1-0.7-0.8-1-1.2c-0.6-0.7-1-1.7-2.2-1.6c-0.6-0.8-1.8-0.8-2.1-1.9c-0.2-0.6-1.1-0.9-1.7-1.4c-0.2-0.1-0.2-0.5-0.2-0.7
		c0.2,0,0.6-0.1,0.7,0c0.4,0.4,0.6,0.2,1,0.1c0.3-0.1,0.9,0.3,1.3,0.6c0.8,0.5,1.6,1.1,2.4,1.7c0.4,0.3,0.9,0.5,1,0.9
		c0.4,1.2,1.5,1.5,2.4,2.1c1.3,0.8,2.7,1.3,3.8,2.4c0.5,0.6,0.8,1.4,2,1.3c0.7,0,1.5,0.7,2.2,1.2c1.2,0.8,2.4,1.6,3.6,2.3
		c0.2,0.1,0.5,0,0.7,0c0-0.2,0-0.5-0.1-0.5c-0.4-0.3-0.2-1.1-1-1l-0.3-0.3c-0.6-0.6-1.2-1.4-1.9-1.9c-0.7-0.5-1.5-0.7-2.3-1.1
		c-0.9-0.4-1.7-0.9-2.4-1.6c-0.2-0.2-0.2-0.5-0.3-0.7c0.2,0,0.5-0.1,0.7-0.1l0.1,0.1c0.7,0.5,1.3-0.1,2-0.1c0.7,0.1,1.3,0.5,2.2,0.5
		c-0.4-0.6-0.8-1.3-1.3-1.7c-1.3-1.1-2.6-2.1-3.9-3.1l-0.4-0.1c-0.5-1.6-2.1-1.8-3.3-2.5c-0.7-0.4-1.3-1.2-2.1-2c1,0,1.7,0,2.5,0
		c0.2,0,0.4,0,0.6,0.1c1.2,0.8,2.4,1.5,3.6,2.3c1.2,0.8,2.3,1.7,3.5,2.6c0.6,0.5,1.2,1,1.9,1.5l0.5-0.1l0.1-0.5
		c-0.8-1.1-1.2-2.8-3.2-2.7l-0.2,0c-0.6-1.2-1.9-1.4-2.7-2.3l0.3-0.6c0.9,0,1.7,0,2.6,0.3c0.8,0.2,1.4,0.5,2.1,1.1
		c1,0.8,2.1,1.6,3.2,2.4c0.1,0.1,0.4,0.1,0.6,0c0.2,0,0.3-0.2,0.4-0.3l-0.1-0.4c-0.8,0-0.7-0.8-1.1-1.2c-0.4-0.4-0.8-0.8-1.2-1.2
		c0.4-0.4,0.5-0.8,1.3-0.4c1.5,0.6,2.8,1.3,4,2.4c0.4,0.4,0.8,0.6,1.3,0.9c0.2,0.1,0.5,0.1,0.7,0.1l0.1-0.5
		c-0.4-0.7-0.3-1.5-0.9-2.1c-0.6-0.7-1.1-1.3-2.1-1.4c-0.3,0-0.6-0.2-0.9-0.4c-0.8-0.7-1.5-1.6-2.5-2.1c-0.2-0.1-0.2-0.4-0.3-0.7
		c0.3-0.1,0.5-0.2,0.7-0.2c1.1,0.4,2.4,0.6,3.2,1.3c1,1,2.5,0.9,3.4,2c1-0.4,1.3,1,2.1,0.8c0.9-0.1,1.5,0.8,2.1,0.8
		c1-0.1,1.2,1.1,2.2,1c0.6-0.1,1.4,0.2,2,0.6c0.8,0.4,1.2,0.2,1.7-0.5c-0.6-0.2-1.1-0.7-1.8-0.6c-0.2,0-0.5-0.1-0.7-0.3
		c-1.4-1-3-1.4-4.5-2.2c-0.2-0.1-0.3-0.4-0.4-0.5c0.2-0.1,0.3-0.3,0.5-0.3c0.6,0.1,1.2-0.3,1.8,0.3c0.2,0.2,1,0.1,1-0.1
		c0.3-0.6-0.3-0.5-0.7-0.7c-0.6-0.4-1.2-0.8-2-0.8c-0.2,0-0.5-0.1-0.7-0.3c-1.2-0.8-2.2-1.8-3.6-2.2c-0.2,0-0.3-0.3-0.4-0.5
		c-0.1-0.2-0.2-0.3-0.4-0.6c1.1-0.4,1.9,0,2.6,0.6c0.9,0.8,1.8,1.3,3,1.3c0.8,0,1.5,0.7,2.3,1c0.4,0.1,0.8,0.2,1.2,0.2
		c0.3,0,0.5-0.3,0.8-0.5c-0.1-0.2-0.2-0.4-0.4-0.6c-0.4-0.3-0.9-0.6-1.3-0.9c-0.3-0.2-0.5-0.5-0.1-0.8c0.3-0.3,0.7-0.8,1-0.3
		c0.6,1.1,1.8,0.3,2.5,1.1c0,0,0.7-0.3,0.9-0.6c0.2-0.4-0.2-0.4-0.5-0.6c-2.1-1-4.1-2.2-6.2-3.1c-0.8-0.4-1.3-1.1-2-1.6
		c1.4-0.6,2.4,0.2,3.3,0.9c1.8,1.3,3.9,1.7,5.8,2.7c0.2,0.1,0.6,0.1,0.8,0c0.2-0.1,0.4-0.2,0.5-0.4l-0.3-0.4c-1-0.1-1.5-1.3-2.3-1.5
		c-0.9-0.2-1.4-0.9-2.2-1.2c-0.5-0.2-0.9-0.8-1.3-1.3l0-0.5l0.5-0.1c1.2,1.3,3,1.7,4.2,2.9c0.3,0.3,0.7,0.6,1.1,0.7
		c1.2,0.5,2.5,0.9,3.7,1.6c0.3,0.2,0.9,0.1,1.5-0.1c-0.3-0.1-0.7-0.3-0.7-0.5c-0.1-0.4-0.2-0.5-0.6-0.6c-0.4-0.1-0.7-0.3-1-0.5
		c-0.8-0.6-1.5-1.3-2.3-1.9c-0.6-0.5-1.3-1-2-1.6c0.8-0.2,1.6-0.4,2,0.4c0.3,0.6,1.2-0.2,1.5,0.8c0.1,0.5,0.9,0.8,1.5,1.2
		c0.5,0.3,1.1,0.5,1.5,0.9c0.8,0.8,2,1.3,2,2.7c0.9,0.4,0.7,1.7,1.9,2c0.8,0.2,0.8,1.6,1.9,1.9c0.1,0,0.1,0.6,0,0.8
		c-0.1,0.1-0.5,0.2-0.7,0.1c-1.3-0.4-2.7-0.8-4-1.4c-0.3-0.2-0.8-0.1-1.2-0.1l-0.3,0.2c0,0.2,0,0.4,0.1,0.5c0.2,0.2,0.5,0.4,0.8,0.5
		c2,0.8,4.1,1.4,6.1,2.3c0.9,0.4,2.1,0.3,3.2,0.1c0.8-0.2,1.5-0.4,2.3,0l0.4,0.1c1.7-0.9,3.5-0.2,5.2-0.4c0.4-0.1,0.7-0.3,1.1-0.6
		c-1.8-1-3.6-0.6-5.8-0.7c0.8-0.5,1.4-1.2,1.8-1.1c0.7,0.1,0.7-1.5,1.6-0.5c0.1-0.3,0.2-0.6,0.2-0.9c-0.1-0.5-0.3-0.2-0.5,0
		l-0.1,0.1c-0.6-0.8-1.1-1.5-2.1-1.8c-0.1,0-0.1-0.8-0.1-1.2c0-0.6,0-1.3-0.6-1.6c-1.3-0.6-1.7-1.9-2.4-2.9
		c-0.3-0.4-0.2-1.3-0.2-1.9c0,0,0.4-0.2,0.5-0.1c0.2,0.1,0.3,0.3,0.4,0.4c1,1.4,2.2,2.5,3.1,3.9c0.6,0.9,1.6,1.6,2.6,2.2
		c0.4,0.3,1.1,0.1,1.6,0.1c0.8,0,1.6,0,2.2,0.8c0.4,0.5,1.1,0.8,1.4,1.4c0.5,1,1.6,1.4,2.6,1.7c1,0.4,2,0.8,3,1.3
		c0.3,0.1,0.6,0.1,1.1,0.1c-0.6-0.7-2.8-2.3-3.4-2.5c-0.2-0.1-0.5-0.1-0.7-0.2c-2.5-2-4.8-4.1-6.4-6.8c-0.2-0.3-0.5-0.6-0.6-1
		c-0.1-0.3,0-0.6,0.1-1c0.3,0.1,0.7,0.1,0.8,0.3c0.6,0.7,1.2,1.4,1.8,2.2c0.6,0.8,1.6,1.3,2.2,2.1c0.7,0.9,1.7,1.5,2.6,2.2
		c0.8,0.7,1.6,1.4,2.5,2c0.3,0.2,0.7,0.6,1,0.5c0.8-0.1,1,0.3,1.3,0.9c0.7-0.2,0.5,1.2,1.5,0.9c0.4-0.1,1,0.5,1.5,0.8
		c0.9,0.5,1.8,0.9,2.7,1.5c1.2,0.8,2.6,1.5,4,1.8c0.4,0.1,0.7,0.9,1.2,0.2c-0.4-0.2-0.8-0.5-1.1-0.7c-1.5-1.2-3.3-1.7-4.8-3
		c-0.9-0.8-2.2-1.1-3.2-1.8c-0.7-0.6-1.1-1.5-2.1-1.9l0.2-0.6c0.3,0,0.7,0,0.9,0.2c2.2,2,4.9,3.4,7.5,4.8c1,0.5,1.9,1.4,3,1.9
		c0.9,0.4,1.9,0.6,2.9,1c1,0.3,1.9,0.7,2.9,1.1c1.1,0.4,2.1,0.9,3.2,1.4c0.2,0.1,0.5,0,1.2,0c-0.8-0.6-1.2-1.1-1.8-1.2
		c-2.7-0.7-5-2-7.4-3.3c-1.9-1-3.8-2.1-5.7-3.2l-0.2-0.6c0.1-0.2,0.3-0.5,0.7-0.2c0.6,0.5,1.3,0.7,2,1.2c1,0.7,1.9,1.7,3.2,1.7
		c0.5,0,1.1,0.4,1.6,0.7c1.9,1.5,4.2,2.3,6.4,3c2.3,0.7,4.5,1.4,6.9,1.9c0.8,0.2,1.5,0.4,2.3,0.3c0.1,0,0.2-0.3,0.2-0.5l-0.2-0.3
		c-0.7-0.1-1.5,0.3-2.1-0.4c-1.4,0.3-2.4-0.9-3.7-1.2c-1.3-0.3-2.5-0.9-3.8-1.4c-1.2-0.4-2.3-1.1-3.5-1.6c-0.5-0.2-0.9-0.6-1.7-1.3
		c0.9,0.1,1.3,0.1,1.7,0.3c2.3,1,4.5,2.1,6.8,3.1c0.2,0.1,0.3,0.4,0.5,0.4c1.9-0.4,3.6,1,5.5,0.9c0.9-0.1,1.8,0.3,2.6,0.6
		c0.5,0.2,0.7,0.1,1-0.2l0-0.4c-0.3-0.2-0.7-0.4-1.1-0.4c-2.9-0.2-5.3-1.4-7.8-2.7c-1.3-0.7-2.7-1.3-4-1.9c-1.4-0.7-2.4-1.8-3.3-3
		c-0.5-0.5-0.5-1.5,0.1-2.1c0.9-1,1.1-2.2,1.4-3.4c0-0.2,0-0.5,0.1-0.6c1.3-1.5,1.9-3.5,2.8-5.3l0.1-0.2c1.1-1.7,1.1-1.8-0.6-2.8
		c-1.4-0.8-2.8-1.5-4.3-2.2c-1,0.4-1.4-0.9-2.3-0.9c-0.7,0-1.3-0.8-2.1-0.8c-0.4,0-0.7-0.6-1.1-0.9c-0.7-0.6-1.4-1.1-2.2-1.6
		c-2.1-1.3-4.3-1.9-6.6-2.6c-1.3-0.4-2.6-0.6-3.9-1.1c-1.3-0.5-2.9-0.1-4.1-1.2c-2.5,0.1-4.6-1.7-7.2-1.7c-1-0.7-2.4-0.6-3.4-1.3
		c-0.2-0.2-0.6-0.3-0.9-0.3c-0.6,0-1.2,0.1-1.6-0.6l-0.3-0.2c-1.4,0.2-2.5-0.6-3.8-0.9c-0.4-0.1-0.9-0.2-1.3-0.4
		c-0.2-0.1-0.5-0.4-0.7-0.4c-1.3,0.1-2.4-0.7-3.6-0.8c-1.8-0.2-3.4-0.9-5.1-1.3c-1.6-0.3-3.1-0.9-4.8-1c1.5-0.9,3-0.9,4.6-0.5
		c0.3,0.1,0.6,0.2,1,0.2c1.8-0.1,3.5,0.6,5.2,1.1c0.8,0.2,1.7-0.1,2.5,0.6c0.6,0.6,1.6,0.6,2.5,0.4c-0.4-1.1-1.5-1-2.4-1.3
		c0.3-0.1,0.2-0.8,0.8-0.5c0.4,0.2,0.9,0.2,1.4,0.2c1.3-0.1,2.2,0.4,2.9,1.5c0.1,0.2,0.3,0.3,0.4,0.4c0.2,0.1,0.4,0.1,0.5,0.1
		c0.1-0.1,0.2-0.3,0.2-0.5l-0.2-0.3c0.1-0.2,0.2-0.4,0.3-0.6l0.4,0.1c0.4,0.7,0.9,1.4,1.4,2.4c0.1-0.5,0.2-0.8,0.2-1.1
		c0.1-0.8,0.6-1.2,1.1-0.7c0.5,0.5,1,0.8,1.8,0.7c0.3,0,0.6,0.5,0.8,0.7c0.2,0.2,0.3,0.6,0.7,1.1c0.1-0.5,0.1-0.8,0.2-1
		c0.2-0.3,0.5-0.7,0.8-0.8c0.2-0.1,0.6,0.3,0.8,0.5c0.4,0.5,0.6,1.1,0.9,1.7c0.1,0.1,0.4,0.2,0.5,0.2c0.1,0,0.2-0.3,0.3-0.4l0-0.4
		c-0.1-0.5,0.1-1,0.5-1c0.4,0,1,0.2,1.3,0.5c0.5,0.5,0.7,1.2,1.1,1.8c0.3,0.5,0.6,0.2,0.7-0.1c0.2-0.5,0.2-1,0.4-1.7
		c0.4,0.5,0.8,0.9,1.1,1.3c0.3,0.5,0.6,1,0.9,1.5c0.1,0.1,0.4,0.1,0.5,0.1l0.2-0.3c0-0.6,0-1.1,0-1.7c0-0.2,0.2-0.5,0.2-0.5
		c0.2,0.1,0.5,0.1,0.7,0.3c0.1,0.1,0.3,0.3,0.3,0.5c0,1.1,1.2,1.7,1.3,2.8l0.7,0c0.3-0.3,0.4-0.1,0.6,0c0.3,0.2,0.7,0.2,0.7-0.3
		c0-0.3-0.1-0.8,0-1c0.4-0.5-0.9-0.8-0.1-1.1c0.7-0.2,0.5,0.6,0.8,1c0.6,0.7,1,1.6,1.8,2.3c0-1,0-1.9,0-2.9l0.3-0.4l0.4,0.1
		c0.6,2.2,2.7,3.5,3.2,5.8c1.4-1.3,0.3-2.9,0.9-4.4c0.5,0.9,1,1.7,1.5,2.5c0.4,0.8,0.8,1.6,1.3,2.4c0.1,0.1,0.5,0.1,0.7,0.1
		c0-0.2,0.1-0.4,0.1-0.6c-0.5-1.1-0.8-2.2-0.8-3.4c0-0.2,0.3-0.3,0.4-0.5l0.4,0.4c0.6,1.3,1.1,2.6,1.7,3.9c0.6,1.1,1.2,2.2,2.1,3.1
		l0.5,0.2c0.1-0.2,0.2-0.5,0.3-0.7l-0.1-0.4c-1-0.8-1-1.9-1.4-3c-0.1-0.5-0.4-0.9-0.1-1.3c0.3-0.3,1.5,0,1.8,0.5
		c0.2,0.4,0.4,0.8,0.5,1.2c0.6,1.7,1.2,3.4,2.3,4.9c0.2,0.3,0.5,0.6,1,1c0-0.7,0.2-1.3,0-1.6c-0.3-0.4-0.4-0.8-0.4-1.3
		c0.1-0.8-0.2-1.6-0.6-2.2c-0.2-0.3-0.4-0.7,0-0.8c0.2-0.1,0.6,0.2,0.8,0.4c0.3,0.3,0.4,0.8,0.6,1.2c0.8,1.3,1,2.9,2.1,4.1l0.1,0.4
		c0.4,0.3,1.1,1,1.2,0.9c0.8-0.5,0.1-1-0.1-1.5c-0.4-0.9-0.3-1.9-0.8-2.8c-0.1-0.1,0.1-0.5,0.2-0.7c0.2-0.4,0.5-0.2,0.7,0
		c0.2,0.2,0.7,0.2,0.8,0.5c0.7,1,1.3,2.1,1.9,3.1c0.5,0.8,1.2,1.5,1.9,2.2c0-1,0.5-1.9-0.3-2.7c-0.1-0.1,0.1-0.3,0.2-0.5
		c0.2,0.1,0.6,0.1,0.6,0.3c0.6,1.7,2,2.7,3,4.1l0.5,0.1l0.2-0.5c-0.8-0.6,0-2-1.1-2.4c-0.1-0.9-0.5-1.7-1.2-2.4
		c-0.4-0.4-0.3-1.5,0.1-1.6c0.6-0.2,1.3,0.1,1.3,0.9c0.1,1.2,0.9,1.9,1.4,2.7c0.6,1,1.3,1.9,1.5,3.1c0,0.2,0.3,0.5,0.5,0.6
		c0.1,0.1,0.4,0.1,0.5,0.1l0.2-0.3c0.3-1-0.1-2-0.5-2.7c-0.4-0.9-0.2-1.5-0.4-2.4c2.3,1.5,2.7,4.2,4.5,5.9c-0.1-0.7,0.4-1.4-0.2-2.1
		c-0.2-0.2-0.2-0.6-0.1-1c0.1-1.1-0.2-2.1-0.7-3.1c-0.2-0.5-0.2-0.7,0.2-1c0.3-0.3,0.7-0.5,0.9,0.1c0.1,0.2,0.4,0.4,0.4,0.7
		c0.1,0.7-0.2,1.8,0.2,2.1c0.5,0.5,0.8,1,1.1,1.6c0.3,0.9,0.9,1.7,1.3,2.6l0.4,0.1l0.3-0.4c0-0.8,0-1.6,0.2-2.5
		c0.4,1.4,1.8,2.4,2,3.9c0,0.1,0.3,0.2,0.5,0.2l0.3-0.4c0-1.9,0-3.9,0-5.8c0-0.7,0-1.3,0-2.2c1.2,0.9,1.5,2.1,1.6,3.2
		c0.2,1.7,0.9,3.2,1.6,4.8c0-0.6,0.1-1.2,0.1-1.7c0-0.6,0-1.2,0-1.9c0-0.2,0.3-0.4,0.4-0.5l0.4,0.3c0.3,0.7,0.7,1.4,1,2.1
		c0.3,0.7,0.6,1.4,0.9,2.1c0.8-0.7,1.1-1.6,1-2.6c0-1.3,0-2.6,0-3.9c0-0.2,0.2-0.4,0.3-0.4c0.2,0,0.4,0.1,0.5,0.2
		c0.4,0.2,0.4,0.6,0.4,1.1c0,1.6,0.6,3.1,0.8,4.6c0.1,0.3,0.4,0.5,0.6,0.7c0.2-0.3,0.5-0.5,0.6-0.8c0.1-0.8,0-1.5,0-2.3
		c0-0.6,0.3-0.9,0.8-1c0.5-0.2,1.2,0.2,1.3,0.7c0.1,1.2,0.8,2,1.5,3.2c0.3-1.6,0.1-2.9,0.2-4.2c0-0.4,0.1-0.8,0.3-1.1
		c0.3-0.3,0.6-1,1.1-0.7c0.3,0.2,0.6,0.7,0.6,1.2c0.1,1,0,1.9,0,2.9c0,0.3,0,0.7,0,1l0.3,0.2c0.2,0,0.5-0.1,0.5-0.2
		c0.2-0.7,0.3-1.4,0.4-2.1c0.3-1.3,0.5-2.7,0.9-4c0.1-0.3,0.4-0.5,0.6-0.7c0.2,0.3,0.5,0.5,0.6,0.8c0.1,1.9,1.2,3.6,1.3,5.5l0.4,0.3
		l0.4-0.3c0-1.3,0.7-2.5,0.9-3.9c0.9,1,1.1,2.1,1.2,3.2c0,0.5-0.6,1.4,0.4,1.5c0.8,0.1,0-1.2,0.8-1.4c0.1,0,0-0.7,0-1
		c0.1-0.5,0.2-1,0.4-1.5c0-0.1,0.3-0.2,0.5-0.2l0.3,0.3c0.3,1.1,0.6,2.1,0.8,3.2c0.1,0.3,0,0.8,0.5,0.7c0.3-0.1,0.7-0.5,0.8-0.8
		c0.1-0.9,0.1-1.8,0-2.7c-0.1-0.6,0.2-1,0.4-1.5c0.3-0.5,0.6-0.6,0.9-0.1c0.2,0.3,0.4,0.7,0.4,1.1c0,1.5,0.7,2.9,1,4.4
		c0,0.2,0.3,0.3,0.5,0.6c0.2-1.1,0.4-2.1,0.6-3c0.1-0.8,0.4-1.1,1.1-1.2c0.9-0.1,0.4,0.9,1,1c0.1,1,0.3,2.1,0.4,3.1
		c0,0.2,0.2,0.3,0.3,0.4c0.2-0.2,0.5-0.3,0.5-0.5c0.1-1,0.5-2,0.7-3c0.2-0.8,0.1-1.8,0.1-2.7c0-0.4,0.8-0.8,1-0.5
		c0.2,0.3,0.6,0.9,0.5,1.1c-0.7,1,0.3,1.5,0.5,2.3c0.1,0.7,1.1,1.3,0.2,2.2c-0.1,0.1,0.2,0.6,0.4,0.8l0.4,0c0.2-0.5,0.3-1,0.4-1.5
		c0.2-0.7,0.5-1.5,0.8-2.2c0.2-0.5,0.6-0.4,0.9,0.1c0.2,0.5,0.5,0.9,0.4,1.5c-0.1,1.1,0,2.2,0,3.4c-3.5,0.9-7,0.6-10.5,0.5
		c-1,0-2.2-0.1-3.1-0.4c-1-0.3-2.1,0-2.9-0.4c-1.4-0.6-2.8-0.2-4.2-0.3l-0.3,0.4l0.3,0.4c1.5-0.3,2.9,0.5,4.4,0.5
		c0.8,0,1.7,0.2,2.5,0.4c0.8,0.2,1.7-0.4,2.6,0.4c0.2,0.2,0.8,0,1.2,0c2.5,0,5,0,7.5,0c0.7,0,1.3-0.1,1.9-0.4c0.5-0.3,1.1,0,1.8-0.3
		c1.2-0.4,2.6-0.5,3.9-0.7c-0.1-0.7-0.3-1.5-0.3-2.2c-0.1-0.8,0.3-1.6,0.3-2.3c0.1-1,0.6-1.4,1.2-2c0.2,0.3,0.5,0.6,0.6,0.9
		c0.2,1.3,0.4,2.6,0.4,4c0,0.7,0.4,0.6,0.8,0.6c0.2,0,0.4-0.1,0.5-0.3c0.3-0.5,1.4,0.3,1.2-0.7c-0.1-0.7-0.8-0.1-1.2-0.3
		c-0.2-0.1-0.4-0.5-0.4-0.5c0.6-0.6,0.1-1.6,0.5-2.1c0.5-0.7,0.2-1.4,0.4-2.1c0-0.2,0.2-0.4,0.3-0.6c0.2,0.1,0.6,0.2,0.6,0.4
		c0.3,0.9,0.8,1.7,0.7,2.6c-0.1,0.5-0.1,1.1,0.6,1.5c0.9-1.7,1.2-3.8,2.5-5.4c0.7,1.9,0.8,3.8,1.6,5.7c0.5-0.9,0.8-1.6,0.7-2.4
		c-0.1-1,0.7-1.9,0.4-2.9l0.3-0.2c0.2,0,0.5,0.1,0.5,0.2c0,1,0,2.1,0,3.1c0,1.1,0.4,2,1.1,3.1c0.4-1.2,0.8-2.2,1-3.2
		c0.2-0.8,0.3-1.7,0.4-2.5l0.3-0.4c0.2,0.2,0.4,0.3,0.5,0.5c0.3,1.4,0.6,2.8,0.9,4.2l0.4,0.3l0.4-0.4c0.3-1.4,0.6-2.8,0.8-4.2
		c0.1-0.4,0.5-0.6,0.7-0.3c0.2,0.3,0.5,0.7,0.5,1c0.1,1.2,0,2.5,0,3.7c0,0.3,0.1,0.7,0.2,0.9c0.2,0.3,0.4,0.5,0.7,0.1
		c0.7-1.2,1.2-2.5,1.1-3.9c0-1.2,0-1.2,0.6-2c0.4,0.7,0.8,1.4,0.6,2.2c-0.2,1.4,0.4,2.6,0.5,3.9c1.2-0.7,1.4-1.9,1.5-3
		c0.1-0.7,0.1-1.4,0-2.1c0-0.6,0.2-0.7,0.7-0.7c0.5,0,0.5,0.2,0.6,0.6c0.2,1.9,0.4,3.7,0.5,5.6c1.1-0.8,1.7-1.9,1.5-3.3
		c-0.1-0.8,0.3-1.4,0.6-2c0.1-0.3,0.4-0.8,0.6-0.9c0.7-0.1,0.8,0.8,0.8,1.1c0.2,0.9,0.1,1.9,0.1,2.9c0,0.3,0,0.7,0,1
		c0,0.1,0.2,0.3,0.4,0.3l0.3-0.1c0.3-0.4,0.7-0.7,0.7-1.1c0.2-1.4,1.7-2.2,1.5-3.8c0-0.2,0.3-0.4,0.5-0.6c0.1-0.1,0.4-0.1,0.5-0.1
		l0.2,0.3c0,0.6,0,1.2,0,1.9c0,0.2,0.1,0.5,0.3,0.7c0.2,0.4,0.5,0.3,0.7,0c0.1-0.3,0.2-0.6,0.2-0.9c0-0.5,0.1-1,0.4-1.5
		c0.5-0.9,0.9-1.8,0.1-2.8c-0.1-0.2-0.1-0.5,0-0.8c0-0.2,0.1-0.6,0.3-0.6c0.5-0.1,0.5,0.2,0.5,0.6c0,0.2,0.1,0.6,0.3,0.7
		c0.4,0.4,0.2,0.6,0.2,1.1c-0.2,1,0.1,2-0.5,2.9c-0.9,1.4-1,3.1-2.3,4.2c-0.5,0.4-0.9,0.8-1.4,1c-1,0.5-2,1.1-3.1,1.4
		c-1.1,0.3-2.4,0.2-3.5,0.5c-1.3,0.3-2.6,0.3-3.8,0.7c-1.3,0.4-2.8,0.4-4.2,0.5c-1.2,0.1-2.3,0-3.5,0c-0.9,0-1.7-0.1-2.5-0.3
		c-1.6-0.4-3.3,0.3-4.9,0.5c-0.5,0.1-1.1,0.4-1.5,0.2c-1.8-0.6-3.4,0.2-5.1,0.4c-2.5,0.3-4.9,1.2-7.5,1c-2.6-0.2-5.3,0.2-7.9-0.1
		c-1.7-0.2-3.4,0-5-0.4c-1.8-0.5-3.9,0.1-5.5-1.1c-0.3-0.2-0.8,0-1.2,0c-0.7-0.1-1.4,0-2.1-0.3c-1.1-0.5-2.3,0.2-3.4,0.5
		c-1,0.3-2,0.5-3,0.7c-1.6,0.2-3.2,0.9-4.8,1.4l-0.1,0.1c-2.3,0.1-4.6,1.1-7-0.1c-0.7-0.3-1.7-0.4-2.4-0.2c-1.1,0.4-2.1,0.3-3.2,0.4
		c-0.2,0-0.6,0.2-0.6,0.3c0,0.3-0.2,0.7,0.4,1c2,0.9,3.9,2,5.8,3.1c1.7,1,3.3,2.1,4.9,3.2c1.2,0.8,2.1,1.8,3.3,2.5
		c1.2,0.8,1.8,2.2,3.2,2.8c0.4,1.1,1.6,1.7,2.2,2.6c0.5,0.7,0.7,1.7,0.9,2.5c0.1,0.4,0.1,0.8,0.1,1.2c0,3,0.1,5.9,0,8.9
		c-0.1,2-0.6,4-1.2,5.9c-0.3,0.8-0.8,1.7-1.4,2.3c-1.4,1.5-2.3,3.5-4.3,4.4c-0.4,0.2-0.8,0.5-0.9,0.9c-0.4,1.5-1.8,1.6-2.9,1.9
		C215.6,78.5,215.1,79,214,90.3c-0.6,9.8-0.4,9.6-0.1,9.3c1.3-1.1,1.2-3,2.4-4.2c-0.3-1,0.2-1.9,0.5-2.7c0.5-1,0.5-2.1,0.2-2.9
		c-0.4-1.1,0-2.4-1.1-3.3c-0.1-0.1-0.1-0.4-0.1-0.6c0.3-1.2-0.4-2.2-0.5-3.4c-0.1-0.5-0.5-1.1-0.4-1.7c0.2-0.7-0.4-1-0.8-1.4
		c-0.5-0.5-0.7,0.4-1.2,0.2c-0.4-0.1-1,0.2-1.5,0.4c-1.3,0.6-2.8,0.6-4.1,1c-1.5,0.5-3.3,0.3-4.8,1c-2.8,0.1-5.7-0.2-8.5,0.4
		c-0.6,0.1-1.3-0.3-1.7,0.4c-0.5-0.7-1.3-0.4-1.9-0.4c-1.9,0-3.7,0-5.6,0c-1.4,0-2.7-0.1-4.1-0.7c-1.2-0.5-2.7-0.5-3.9-1
		c-1.6-0.7-3.4-0.7-4.9-1.6c-0.6-0.3-1.2-0.6-1.9-0.4c-0.5,0.1-0.6-0.2-0.8-0.6c-0.3-0.6-0.9-1.2-1.8-1.1c-0.3,0-0.7-0.3-1-0.6
		c-0.8-0.5-1.5-1-2.3-1.4c-0.4-0.2-1-0.1-1.3,0.4c-0.2,0.3-0.3,0.5-0.6,1.2c0-0.9,0-1.4,0-1.8c0-0.9-0.2-1.6-1.1-2
		c-0.7-0.4-1-1.1-2-1.2c-0.7-0.1-1.2-1.1-1.8-1.7c-0.5-0.6-1-1.2-1.5-1.8c-0.6-0.7-1.4-1.2-2.2-1.8c-0.5-0.4-1.2-0.6-1.4-1
		c-0.2-0.7-0.8-1-1.2-1.6c-0.2-0.3-0.5-0.4-0.9-0.2c-1.7,1.1-3.4,2.2-5,3.4c-0.2,0.2-0.5,0.6-0.4,0.8c0.2,0.4,0.5,0.1,0.8,0
		c0.5-0.2,1.1-0.3,1.5,0c0.5,0.3,0.9,0.3,1.4,0.2c1.3-0.1,2.3,0.6,3.2,1.4c1,1,2.2,1.9,3,3.1c1,1.4,2.7,2.3,3,4.1l0.3,0.2
		c0.2,0,0.4-0.2,0.4-0.3c0.2-1.3,1.2-2.4,0.9-4c1,0.9,1.4,1.7,0.8,2.7c-0.1,0.2-0.1,0.4,0,0.6c0.2,0.7-0.1,1.4-0.5,1.9
		c-0.6,0.9-0.6,1.9-0.2,2.7c0.3,0.8,0.3,1.3-0.1,2c-0.3,0.4-0.2,1-0.5,1.5c-0.5,0.9-1,1.8-1.7,2.6c-0.3,0.5-3.4,1.8-4,1.9
		c-0.2,0-0.4,0.2-0.6,0.4l0.3,0.4c1.6,0.7,2.9,1.8,4.2,3c0.5,0.5,1.2,0.9,1.7,1.3c1.3,1.1,2.9,1.7,3.9,3.1c0.7,1,2,0.7,2.6,1.7
		c0.2,0.3,0.7,0.3,1,0.4c0.3,0.1,0.6,0.3,0.9,0.3c0.2,0,0.6,0,0.7-0.2c0.5-1.1,1.3-1.8,2.3-2.3c0.8-0.4,1.2-1.4,2.2-1.8
		c0.4-0.2,0.7-0.8,0.9-1.3c0.3-0.7,0.6-1.4,0.9-2.1c0.1-0.1,0.4-0.2,0.5-0.2l0.2,0.3l0,0.4c-0.8,1.8-1.6,3.5-2.7,5.1
		c-0.4,0.6-1,1-1.4,1.5c-0.4,0.5-0.8,0.7-1.4,0.6c-0.3-0.1-0.7,0-1.3,0c0.5,0.4,0.7,0.8,0.9,0.8c0.9,0,1.5,0.7,2.3,1
		c0.7,0.3,1.3,0.9,2,1c0.7,0.1,1.4,0.3,2,0.7c0.8,0.5,1.2,0.2,1.7-0.4c-0.6-0.7-1.9-0.3-2.4-1.2c0.9-1.2,1.9-2,2.7-3.1
		c0.8-1.1,1.7-2.1,2.4-3.4c0.1-0.2,0.3-0.5,0.6-0.1c0.1,0.2,0.2,0.4,0.2,0.6c-0.2,0.7-0.4,1.4-0.7,2c-0.6,1-1,2-1.3,3
		c-0.1,0.3-0.4,0.6,0,0.8c0.1,0.1,0.5-0.1,0.7-0.2c1-1.2,1.9-2.4,2.8-3.6c0.3-0.5,1-0.7,0.9-1.5l0.5-0.4c0.3,0.2,0.8,0.2,0.5,0.8
		c-0.6,1.4-1,2.9-1.5,4.4c-0.3,0.9-0.7,1.9-1.6,2.4c-0.2,0.1-0.6,0.3-0.7,0.2c-0.9-0.7-1.8-0.2-2.9-0.3c1.3,1,2.4,1.3,4,1.2l0.4,0
		c0.8,0.6,1.7,0.3,2.5,0.4c1.2,0.1,2.4,0.1,3.5,0.6c0.8,0.3,1.5,0.1,2.2,0.3c0.7,0.2,1.4,0.4,2.1,0.4c0.8,0.1,1.2-0.2,1.2-1
		c0.2-1.4,0.8-2.6,1.9-3.6c0.9-0.8,1.6-1.7,2.1-2.9c0.3-0.7,0.8-1.3,1.2-2l0.4-0.1l0.3,0.4c0,0.3,0,0.5-0.1,0.8
		c-0.9,1.8-1.3,3.7-2.2,5.5c-0.1,0.2-0.2,0.4-0.1,0.6c0,0.2,0.2,0.5,0.3,0.6l0.5-0.2c0.7-1.8,2.2-3,3.6-4.3c0.2-0.2,0.6-0.3,0.8-0.4
		c0.1,0.3,0.2,0.7,0.2,1c0,0.3-0.2,0.6-0.4,0.9c-0.4,0.7-0.9,1.3-1.2,2c-0.6,1.5-1.2,1.9-2.6,2c-0.8,0-1.6-0.1-2.4,0.1
		c0.4,0.8,1,0.7,1.7,0.7c0.7,0,1.4,0,2.1,0c0.6,0,1.3,0.1,1.9,0c0.6-0.1,1.3-0.4,1.9-0.4c0.8,0.1,1-0.7,1.5-0.8
		c0.6-0.1,1.4,0.1,1.7-0.7c-1.5-0.4-1.5-0.4-0.6-1.4c0.3-0.4,0.6-0.9,0.9-1.3c1.1-1.6,2.3-3.1,3.1-5c0.1-0.2,0.4-0.3,0.6-0.4
		c0.1,0.2,0.2,0.3,0.2,0.5c0.1,1.1-0.6,2-1.1,2.8c-0.4,0.7-0.8,1.3-1,2.1c-0.2,0.8-0.7,1.6-1.2,2.5c1.7-0.4,3.5-0.4,4.9-1.6
		c-0.8-0.3-1.5-0.1-2.1,0.3c-0.2,0.1-0.5-0.1-0.7-0.1c0.1-0.2,0.1-0.6,0.2-0.7c1.5-1.1,2-3,3.3-4.2c0.3-0.3,0.4-0.9,0.5-1.4
		c0.2-0.6,0.3-1.3,0.4-1.9l0.4-0.3l0.4,0.3c0.1,1.2-0.3,2.3-0.9,3.1C212.9,97.9,212.9,99,214,90.3z M224.5,68.1
		c1.1-0.7,1-1.7,1.3-2.5c0.2-0.7,0-1.5,0.3-2.2c0.3-0.6-0.1-1.3,0.5-1.9c0.4-0.5-0.2-1.4,0.5-2.1c0.1-0.1,0.1-0.7-0.1-0.9
		c-0.4-0.4-0.2-0.9-0.2-1.4c0-1.3,0-2.6,0-3.9c0-0.3,0-0.7-0.2-1c-1.6-2.4-3.4-4.7-5.9-6.2c-0.5-0.3-0.9-0.6-1.3-0.9
		c-0.4-0.4-0.8-0.8-1.2-1.2c-0.4-0.4-0.9-0.9-1.3-1.3c-0.4-0.3-0.9-0.6-1.3-0.8c-0.5-0.3-1.1-0.8-1.5-0.8c-0.9,0.1-0.5-0.8-1.1-1
		c-1-0.4-1.9-1.1-2.8-1.7c-0.5-0.3-1-0.5-1.6-0.7c-0.2,0.5-0.5,1.1-0.6,1.6c-0.1,0.4-0.2,0.9,0.2,1.3l0.1,0.5c-0.7,0.9-0.3,2-0.4,3
		c-0.1,1.4-0.5,2.5-1.2,3.6c-0.1,0.2-0.4,0.4-0.4,0.6c-1,2.7-3.7,3.7-5.7,5.4l-0.2,0c-1.3,0.2-2.4,0.9-3.6,1.4
		c-1.2,0.5-2.8,1.1-3.4,0.6c-0.9-0.7-2.1,0.1-2.8-0.8c-0.9,0.3-1.7,0.4-2.6,0l-0.5,0.3c-0.5,0.7-1.2,1.4-1.6,2.3
		c-0.3,0.7-0.1,1.8-0.6,2.2c-0.6,0.5-1.2,1-1.8,1.5c-0.2,0.2-0.4,0.5-0.6,0.8c-0.5,1.3-2.1,1.1-2.8,2c0,0-0.3-0.1-0.5-0.2
		c-0.2-0.1-0.5-0.2-0.7-0.2c-0.4-0.1-0.4,0-0.3,0.4c0.5,1.5,0.1,3.1,0.2,4.7c0,0.3-0.3,0.7-0.8,0.7c0-1.3,0-2.4,0-3.6
		c0-0.3,0-0.6,0-0.8c-0.1-0.8-0.7-1-1.4-0.5c-0.3,0.2-0.6,0.3-0.8,0.5c-0.1-0.4-0.3-0.9-0.1-1.1c0.4-0.4,0.2-0.9,0.3-1.3
		c0.1-0.7,0.3-1.4,0.4-2.1c0.1-0.6,0.5-0.9,1.2-0.9c0.8,0,1.7,0,2.5,0c1.1,0.1,1.9-0.4,2.7-1.1c0.6-0.6,1.2-1.2,1.7-1.8
		c0.4-0.4,0.7-0.9,1-1.4l-0.2-0.6c-0.5-0.2-1.1-0.4-1.7-0.4c-2.1-0.2-4.2-0.3-6.3-0.4c-0.5,0-0.9-0.1-1.2-0.5
		c-0.6-0.7-1.3-1-2.2-0.6c0,0.5,0,1.1,0,1.6c0,0.5-0.1,1-0.1,2c-0.4-0.8-0.6-1.2-0.7-1.5c-0.1-0.6,0-1.2,0-1.9
		c-0.1-1-0.8-1.5-1.6-1.7c-1.3-0.3-0.6,1-1.1,1.3c0.1-1.8-1.5-2.5-2.6-2.9c-1.9-0.7-3.5-1.8-5.3-2.7c-1.1-0.6-2.2-1.5-3.7-1.2
		c-0.6,0.1-1.2,0-1.9,0c-1,0-1-0.1-2.5,0.9c-0.8,0.5-1.9,0.7-2.5,1.6c-0.4,0.5-0.4,0.9,0,1.4c0.5,0.6,0.8,0.3,1.2-0.1
		c0.7-0.7,1.4-0.9,2.1-0.3c-0.4,0.4-1.1,0.8-1,1.2c0,0.7,0.8,0.8,1.4,0.8l0.2,0.1c-0.4,0.2-0.7,0.5-1.1,0.6
		c-0.4,0.2-0.8,0.3-1.3,0.4c-1.8,0.3-2.1,0.7-2.5,2.5c-0.1,0.3-0.3,0.6-0.4,0.9c-0.4,0.9-0.5,1.6-0.2,2.6c0.4,1,0.7,2,1.5,2.7
		c0.2,0.2,0.2,0.5,0.3,0.7c0.2,0.4,0.2,1.1,0.5,1.2c1,0.5,1.4,1.6,2.1,2.2c0.8,0.7,1.5,1.7,2.2,2.6l0.3,0.3l0.4,0.1l0.3-0.4
		c0-0.4,0-0.9-0.2-1.2c-0.5-0.8-1.1-1.5-1.8-2.1c-1.1-1.1-1.4-1.8-1.1-3.5c1,1.2,2,2.3,2.9,3.5c0.5,0.7,0.7,1.5,1.3,2.2
		c0.3,0.3,0.4,1,1,1.1c0.5,0.1,1.1,0.1,1.7,0c0.6-0.1,1.9-1.7,1.6-2.3c-0.4-0.9-0.8-1.8-1.3-2.5c-0.4-0.6-0.9-1.2-1.1-1.8
		c-0.3-1-1.4-1.6-1.3-2.8c-1.1-0.4-1.3-1.5-1.9-2.3c-0.3-0.3-0.9-0.7-0.3-1.1c0.5-0.3,0.5,0.6,0.7,0.6c0.8,0.1,0.7,0.8,1.1,1.2
		c0.2,0.2,0.3,0.6,0.5,0.8c0.8,1,1.8,1.9,2.4,2.9c0.7,1.1,2.1,1.8,1.7,3.4l1.1,0.8c0.3-0.3,0.8-0.5,0.4-1.2c-0.5-0.9-0.6-2-1.5-2.7
		c-0.1-1.4-1.1-2.2-1.9-3.2c-0.8-0.9-1.6-1.8-2.2-2.8c-0.7-1.2-1.7-2.1-3.1-2.8c0.9-0.2,1.4-0.2,2.1,0.3c0.9,0.7,2,1.2,3,1.8
		l0.4,0.1c-0.3-0.6,0.8-0.7,0.3-1.4c-0.5-0.8-0.8-1.8-1-2.7c-0.1-0.3,0-0.7,0-1.2c1.3,1.1,1.5,2.6,2.4,3.8c0.3,0.4,0.3,1,0.4,1.5
		c0.1,0.4,0.3,0.7,0.5,1l0.4,0.1l0.3-0.2c0-0.5-0.1-0.9-0.1-1.4c0-0.2-0.2-0.5-0.2-0.7c0-0.2,0.2-0.4,0.4-0.6l0.4,0.3
		c0.4,1.4,0.8,2.8,1.3,4.2c0.1,0.2,0.3,0.3,0.5,0.4c0.1-0.1,0.3-0.3,0.3-0.4c0.2-1.7-0.4-3.3-0.6-4.9c0-0.4-0.1-0.8-0.3-1.5
		c0.9,0.8,1.6,1.5,1.7,2.5c0.1,1.2,0,2.4,0,3.5c0.1,1.2,0.3,2.4,0.4,3.6c0.1,1,0.1,1.9,0,2.9c-0.1,0.8,0,1.9-0.5,2.4
		c-0.4,0.5-1.1,1.2-1.7,1.3c-1.8,0.5-2.9,1.8-4.2,3c-0.3,0.3-0.6,0.5-1.1,0.5c-0.6-0.1-0.4,0.4-0.4,0.7c0,0.5,0.2,0.6,0.6,0.5
		c0.3,0,0.7,0,1-0.2c0.6-0.5,1.2-1,1.7-1.5c0.5-0.4,0.9-1.1,1.5-1.2c0.8-0.1,0.6-1.2,1.4-1.1c0.3,0,0.4-0.2,0.4,0.2
		c0,0.3,0,0.6-0.2,0.8c-1.1,1-1.1,2.2-1.1,3.5c0,0.2-0.1,0.5-0.2,0.7c-0.2-0.1-0.5-0.2-0.7-0.3c-0.4-0.3-0.8-0.7-1.3-0.8
		c-0.3-0.1-0.7,0.1-1.1,0.2c0.2,0.3,0.2,0.7,0.5,0.8c1.4,0.8,2.8,1.5,4.3,2.2c0.2,0.1,0.7-0.1,0.8-0.4c0.4-0.6,0.7-1.4,1.1-2
		c0.9-1.4,1.3-3.1,2.7-4.1c0.7,0.6,0.9,1.4,0.4,2c-0.5,0.5-0.6,1.2-0.8,1.8c-0.5,1.5-1.7,2.4-2.9,3.7c0.9,0,1.4,0,1.9,0
		c0.7,0.1,0.6-0.4,0.8-0.8c0.3-0.8,0.6-1.5,1-2.3c0.8-1.2,1.8-2.5,1.4-4.2c-0.1-0.5,0.4-1.1,0.7-1.5c0.3-0.5,0.6-0.4,0.9,0.2
		c0.8,1.2,0.5,2.4-0.2,3.5c-0.6,1-0.9,1.9-0.5,3.3c0.7-1.3,1.3-2.5,1.9-3.6c0.1-0.2,0.2-0.3,0.3-0.4c0.2,0.2,0.3,0.3,0.5,0.5
		c0.6,0.7,0.5,1.5,0.3,2.3c-0.1,0.5-0.5,0.9-0.5,1.4c-0.1,0.8-0.9,1.5-0.4,2.6c0.9-1.6,2-2.9,2.3-4.7c0.1-0.9,0.5-1.7,0.8-2.6
		c0.2-0.6,0.7-0.3,1-0.3l0.2,0.7c-0.7,0.7,0,1.8-0.8,2.4c0,1.3-0.9,2.3-0.9,3.6c0,0.7-0.6,1.4-1,2c-0.3,0.5-0.9,0.6-1.4,0.2
		c-0.5-0.3-0.9-0.7-1.5-1c-0.3-0.1-0.6,0-1,0c0.1,0.3,0.2,0.7,0.4,1c0.1,0.1,0.4,0.1,0.5,0.2c0.5,0.3,1,0.6,1.4,1
		c1,0.9,1,0.9,1.7-0.3c0.2-0.5,0.6-0.9,0.8-1.3c0.4-1.2,0.9-2.2,2-2.9c0.2-0.1,0.4-0.3,0.4-0.4c0.1-1.5,1.3-2.6,1.3-4
		c0-0.5,0.2-0.8,0.5-1c0.1-0.1,0.4-0.2,0.5-0.1l0.2,0.5c-0.6,0.6-0.3,1.3-0.4,1.9c-0.1,1.2-0.5,2.4-0.8,3.6
		c-0.3,1.3-1.1,2.3-1.5,3.5c-0.1,0.4-0.1,0.8-0.1,1.2c0.8-1,1.5-2,2.3-2.9c0.5-0.6,1-1.1,1-1.9c0-0.9,0.3-1.6,1.2-2
		c0.3-0.2,0.2-1.1,0.9-0.8c0.7,0.2,0.5,0.9,0.4,1.4c0,0.5,0,1.1-0.2,1.6c-0.3,0.8-0.9,1.5-0.9,2.3c-0.1,1-0.9,1.5-1.5,2.4
		c0.7-0.1,1.4,0.1,1.6-0.2c0.4-0.4,0.9-1.1,0.9-1.6c0.1-1.2,0.7-2.1,1.3-3c0.2-0.3,0.4-0.6,0.4-0.9c0-0.9,0.6-1.4,0.8-2.2
		c0.2-0.7,0.5-0.5,0.9-0.5c0.6,0,0.4,0.5,0.4,0.8c-0.1,1.5,0.3,3-0.4,4.4c-0.1,0.1,0.2,0.4,0.3,0.6c0.2-0.1,0.4-0.3,0.5-0.4
		c0.3-0.7,0.4-1.5,0.9-2.1c0.6-0.9,1-1.8,1.2-2.8c0.3-1.1,1.1-2,1.4-1.7c0.5,0.6,0.3,1.3,0.1,2.1c-0.4,1-0.8,2-0.6,3.1
		c0,0.2,0,0.5-0.1,0.6c-0.5,0.5-0.2,1-0.3,1.5c-0.1,0.5-0.3,0.9-0.5,1.6c0.3-0.3,0.5-0.3,0.5-0.4c0.7-1.3,1.4-2.6,2-3.9
		c0.3-0.7,0.6-1.4,0.8-2.1c0.2-0.4,0.5-0.4,0.8-0.1c0.2,0.2,0.5,0.4,0.4,0.6c-0.1,0.7,0.3,1.5-0.2,2.2c-0.2,0.3-0.1,0.9-0.2,1.4
		l0.3,0.2l0.4-0.1c-0.2-1,0.8-1.4,1-2.3c0.4-1.6,1.1-3.1,1.8-4.9c0.2,0.3,0.5,0.5,0.5,0.7c0,1,0.3,2.1-0.1,3
		c-0.4,1.2-0.2,2.3-0.1,3.7c0.3-0.5,0.5-0.8,0.7-1.1c0.5-1,0.7-2,1.2-3c0.6-1.2,0.9-2.5,1.3-3.8c0.1-0.4,0.4-0.7,0.7-1.3
		c0.3,2.7-0.8,5-0.1,7.6c0.2-0.9,1.1-1,1-1.8c-0.1-1,0.5-1.9,1-2.5c0.6-0.7,0.8-1.4,0.7-2.2c0-0.6,0.1-1,0.8-1.2
		c0,0.2,0,0.4,0.1,0.6c0.3,1.2-0.5,2.4-0.4,3.6c0.1,1.9,0,3.7-1.1,5.4l0.1,0.4c0.1,0.2,0.3,0.5,0.6,0.1c0.3-0.3,0.8-0.6,1.1-0.9
		l-0.2-0.1c-0.8,0-0.7-0.3-0.4-0.9c0.3-0.5,0.5-1,0.7-1.6c0.5-1.5,0.9-3,2.1-4.1c0.2-0.1,0.3-0.5,0.3-0.7c0-1.3,1-2.4,0.9-3.8
		c0-0.2,0.3-0.4,0.8-1c-0.1,0.8,0,1.2-0.1,1.5c-0.1,0.3-0.3,0.6-0.3,0.9c0.2,2.4-0.6,4.6-0.9,6.9c-0.1,0.5-0.4,1.1-0.8,1.5
		c-0.2,0.4-0.6,0.6-1,1c1.1,0.2,1.8-0.2,2.4-0.7c0.4-0.4-0.5-0.7-0.2-1.2c0.1-0.2,0.2-0.3,0.2-0.5c0.3-0.8,0.6-1.7,1-2.5
		c0.5-0.9,0.5-2.1,1.1-2.9c0.8-1.1,1.1-2.1,1-3.3c-0.1-0.6,0.2-1,0.9-1.3c-0.2,1.8-0.3,3.5-0.5,5.1c-0.8,0.8,0,2-0.8,2.8l0.1,0.3
		c0.2,0.1,0.5,0.1,0.5,0c0.5-0.7,1.1-1.3,1.4-2.1c0.2-0.8,0.3-1.5,0.8-2.2c0.2-0.2,0.1-0.7,0.5-0.6c0.3,0.1,0.7,0.4,0.7,0.6
		c0.1,0.4,0,0.9-0.1,1.4c-0.2,0.8-0.4,1.6-0.6,2.4l0.2,0.5l0.5-0.1c0.3-0.5,0.8-1,0.8-1.5c0-0.7,0.4-1.3,0.5-1.9
		c0.2-0.7,0.5-1.3,0.7-2c0.3-1,0.5-2,0.9-2.9c0.5-1,0.5-2.2,0.7-3.2c0.3-1.3,0.2-2.7,0.5-4c0-0.2,0.3-0.4,0.4-0.5
		c0.1,0.2,0.4,0.3,0.4,0.5c0.3,2.5-0.6,4.8-0.4,7.3l0,0.2C224.2,65.8,224.7,66.9,224.5,68.1z M42,132c0.2-2-0.7-3.9-0.4-6
		c0-0.3,0-0.6,0-0.8c0.1-1.1-0.4-2-0.7-3c-0.3-1.1,0.1-2.4-0.3-3.4c-0.6-1.6-0.7-3.3-1-4.9c-0.3-1.7-0.9-3.3-1.1-5
		c-0.2-1.6-0.7-3.3-1-4.9c-0.4-2.2-0.4-4.4-0.5-6.7c0-1,0.1-1.9,0-2.9c-0.1-1.5,0.2-2.9,0.9-4.2c0.1-0.2,0.6-0.3,0.1-0.6
		c-0.7-0.5-0.4-1.2-0.7-1.8c-0.3-0.7-0.6-1.3-0.1-2c0-0.1-0.2-0.3-0.2-0.4c0-1.4-0.3-2.8,0.2-4.2c0.4-1.2,0.3-2.6,0.6-3.9
		c0.1-0.5-0.5-0.8-0.2-1.4c0.2-0.5,0.2-1,0.2-1.6c0-0.6,0-1.1,0-1.7c-0.1-0.6,0.2-1.1,0.8-1.2c0.6-0.2,0.5-0.4,0.3-0.8
		c-1.3-2.2-0.6-4.5,0.1-6.7c0.4-1.2,0.7-2.4,0.8-3.6c0.2-2.1,0.4-4.1,0.9-6.1c0.3-1.3-0.2-2.7,0.9-3.8c0.1-0.1,0-0.5,0-0.8
		c0-1-0.3-2.1,0.1-2.9c0.5-0.9,0.6-1.8,1-2.7c0.5-1.2,0.5-2.6,1.7-3.4l0.1-0.4c0-0.5-0.1-1-0.3-1.5c-0.1-0.3,0.5-1,0.7-1.5
		c0.1-0.3,0.1-0.7-0.1-1c-0.8-1.2-0.1-2,0.6-2.8c0.7-0.8,1.5-1.4,2.2-2.2c0.7-0.9,1.7-0.9,2.6-1.3c0.2-0.1,0.5,0.1,0.6,0
		c0.4-0.4,0.8-0.8,1.2-1.2c-0.3-0.3-0.6-0.6-1-0.8c-0.6-0.3-1.3-0.5-2.1-0.5c-0.7,0-1.4,0.2-2.2-0.3c-0.3-0.3-1.2,0-1.8,0.1
		c-2.2,0.6-4,1.8-5.7,3.3c-1.7,1.5-3.1,3.3-4.6,4.9c-0.3,0.3-0.5,0.7-0.6,1c-0.1,1.3-1.2,2.4-0.9,3.8c0.1,0.4-0.3,0.8-0.5,1.2
		c-0.3,1-1.1,1.9-1.1,3c0,0.7-0.3,1.3-0.5,1.9c-0.3,1.2-1.3,2.1-1.2,3.4c0.1,1.1-0.4,1.9-0.6,2.9c0,0.2-0.3,0.5-0.3,0.7
		c0,1.6-0.8,3-1.3,4.5c-0.1,0.4-0.4,0.7-0.4,1.1c-0.1,0.6,0,1.2,0,1.9c-0.1,0.6-0.2,1.1-0.4,1.7c-0.1,0.4-0.4,0.8-0.4,1.3
		c-0.1,1.4,0.1,2.9-0.2,4.3c-0.3,1.4,0.2,2.8-0.6,4.1c0.2,2.9-0.6,5.8-0.4,8.7c0.1,2.8,0,5.7,0,8.5c0,0.4,0.2,1,0,1.2
		c-0.7,0.9,0,2.1-0.4,2.9c-0.6,1.1-0.3,2.1-0.3,3.2c0,0.9,0.3,1.8,0.4,2.7c0.1,1.5-0.2,2.9-0.3,4.4c-0.3,2.7-0.1,5.4-0.1,8.1
		c0,0.3-0.1,0.6,0,0.8c0.7,1.6,0.8,3.3,0.8,5.1c0.1,3,0.3,6,0.4,9c0,0.2,0,0.5,0.1,0.6c0.6,0.5,0.2,1.2,0.3,1.7
		c0.1,0.6,0.5,1.2,0.4,1.7c-0.2,1,0.5,1.8,0.4,2.7c-0.1,1,0.7,1.6,0.9,2.5c0.1,0.2,0.3,0.4,0.3,0.7c0.3,1.3,0.5,2.7,0.8,4
		c0.4,1.8,2,2.6,3.8,1.8c0.6-0.3,1.3-0.6,2.1-0.6c0.6,0,1.2-1,2-0.4l0.3-0.1c0-0.9,0.9-0.7,1.4-1.1c0.8-0.7,1.5-1.3,2.1-2.2
		c0.4-0.7,0.4-1.4,0.4-2.1c-0.1-0.9,1.2-1.1,0.9-2.2C41.9,133.2,42,132.6,42,132z M63.3,90.3c0.4,0.6,0.6,1.2,1.3,1.4
		c0.6,0.2,1.2,0.8,1.7,1.3c0.1,0.1,0.1,0.4,0.1,0.5l-0.3,0.2c-1.6,0.2-3.1-0.1-4.4-0.9c-0.8-0.4-1.5-0.4-2.2-0.8
		c0.3,0.8,0.5,1.7,1.5,1.8l0.1,0.4l-0.2,0.3c-1-0.1-2,0.3-3-0.4c-0.5-0.4-1.3-0.6-2-0.8c-0.2-0.1-0.5,0.1-0.7,0.1
		c0.1,0.2,0.2,0.6,0.4,0.6c0.7,0.1,0.5,0.6,0.5,0.9c0,0.5-0.5,0.4-0.8,0.3c-0.6-0.1-1.4,0.3-1.9-0.4l-0.5,0.1
		c-0.1,0.4-0.1,0.8,0,1.2c0,0.1,0.4,0.2,0.6,0.3c0.2,0.1,0.4,0.1,0.5,0.2c1,1,2,2.1,2.9,3.1c0.2,0.2,0.3,0.4,0.5,0.4
		c1.6,0.2,2.6,0.8,3.6,2.1c0.1,0.2,0.3,0.4,0.5,0.4c1,0.4,1.9,0.8,2.7,1.6c0.3,0.3,0.8,0.3,1.2,0.5l0.2,0.3l-0.1,0.3
		c-1.3,0-2.7,0.6-3.8-0.7c-0.5-0.6-1.3-0.9-1.9-1.3c-1.3-0.7-2.8-1.2-3.4-2.8c-0.1-0.2-0.3-0.4-0.4-0.4c-1.1,0-1.7-1-2.6-1.3
		c-1.2-0.4-1.6-1.8-2.9-2.1c-0.1,0-0.1-0.5-0.2-0.7c-0.1-0.2-0.3-0.5-0.4-0.5c-1.3-0.1-2.5-0.7-3.8-0.5c-0.8,0.1-1.6,0.2-2.3-0.3
		c-0.3-0.2-0.9,0-1.3,0.2c-0.3,0.1-0.6,0.3-0.1,0.7c0.2,0.2,0.1,0.9,0.7,0.7c0.8,0.9,2.2,1.3,2.7,2.6c0.1,0.4,0.7,1,1,1
		c1.3-0.1,1.5,1.3,2.6,1.4c0.1,0,0.2,0.3,0.2,0.5c0,0.1-0.2,0.3-0.4,0.3c-0.3,0-0.7,0-1,0c-0.9,0.1-1.6-0.2-2.1-0.9
		c-0.5-0.7-1-1.4-1.6-2c-0.3-0.3-0.6-1.1-1.3-0.8c-0.3,0.1-0.2,1.7,0.1,2.1c0.1,0.2,0.3,0.3,0.4,0.4c1.5,1.6,3.2,2.9,5.1,4.1
		c0.3,0.2,0.6,0.4,0.8,0.6c0.6,1,0.6,1,1,1c0.4,0.1,0.8,0.1,1.1,0.3c1,0.8,1.8,1.6,2.8,2.5c-2.6,0.3-2,0.4-3.2-0.3
		c-0.6-0.3-1.1-0.8-1.5-1.3c-0.4-0.4-0.9-0.7-1.1-1.4c-0.1-0.3-1-0.4-1.5-0.6c-0.3-0.2-0.7-0.4-1-0.7c-0.7-0.6-1.3-1.3-1.9-1.9
		c-0.2-0.2-0.5-0.2-0.7-0.3c-0.1,0.2-0.2,0.5-0.2,0.7c-0.1,0.9,0.3,1.7,1,2c1.9,0.9,3.2,2.5,4.6,3.9c0.6,0.6,1.3,1,2.2,1.3
		c1.9,0.5,2.5,1.1,3.8,3.1l0.5,0.2c0.3,0.5,0.7,0,1.1,0.1c1.2,0.3,2.1,1.2,3.3,1.6l0.1,0.3l-0.4,0.4c-0.6,0-1.1,0-1.7,0
		c-1.4,0-2.5-0.7-3.5-1.6c-0.2-0.2-0.3-0.6-0.2-0.7c0.3-0.4,0.5-0.4-0.2-0.7c-0.5-0.2-1-0.3-1.5-0.3c-0.6,0-1.1-0.1-1.6-0.6
		c-1.4-1.1-2.9-2.1-4.2-3.4c-0.5-0.5-1-0.8-1.6-1.2c-0.7-0.4-1.3,0-1.3,0.8c0.1,0.6,0.2,1.2,0.8,1.4c1.6,0.8,3,1.9,4.3,3.2
		c0.2,0.2,0.4,0.5,0.6,0.5c1.2,0.1,2,0.9,2.8,1.7c0.1,0.1,0.4,0.2,0.5,0.3c-0.2,0.2-0.4,0.5-0.6,0.5c-1.1,0.1-2.2,0.1-3-0.6
		c-1.1-0.9-2.1-1.8-3.2-2.8c-0.4-0.3-0.7-0.7-1-1c-0.1-0.1-0.5-0.1-0.7,0.1c-0.6,0.4-0.7,1.1-0.2,1.5c0.3,0.3,0.8,0.3,0.9,0.6
		c0.5,0.8,1.4,1.2,2,1.8c0.6,0.6,1.5,1.1,2.3,1.5c0.9,0.4,1.5,1,2,1.8c0.2,0.3,0.6,0.8,0.8,0.8c1.3-0.1,2.4,0.6,3.6,0.9
		c0.4,0.1,0.7,0.4,1,0.5c-0.6,0.3-1.1,0.5-1.6,0.8c-0.6,0.4-1.1,0.3-1.7,0.1c-0.4-0.2-0.8-0.5-1.2-0.7c-1.3-0.7-2.4-1.8-3.7-2.6
		c-0.8-0.5-1-0.1-1.4,0.3c0.2,0.2,0.3,0.3,0.5,0.5c1.5,1.5,2.9,3,5.2,3.1c0.2,0,0.5,0.2,0.7,0.4c1.6,1.3,3.5,2,5.3,2.6
		c0.9,0.3,1.6,0.8,2.4,1.2c1.1,0.5,2.4,0.6,3.4,1.2c0.8,0.5,1.6,0.4,2.6,0.2c-1.3-0.5-2.4-0.7-3.4-1.5c-0.8-0.6-1.8-1-2.9-1
		c-1.1-1.1-2.6-1.4-4-2c-0.4-0.2-0.8-0.4-1.2-0.7c-0.2-0.1-0.3-0.4-0.4-0.7c0.2-0.1,0.4-0.3,0.6-0.3c0.9,0,1.8,0,2.7,0
		c0.3,0,0.7,0.1,0.9,0.3c1.6,1.2,3.6,1.9,5.1,3.3c0.4,0.4,1.1,0.4,1.6,0.5c0.9,0.2,1.9,0.4,2.8,0.7c1.3,0.4,2.6,0.6,3.8,1.4
		c0.7,0.5,1.8,0.2,2.6,0.8c0.1,0.1,0.4-0.2,0.6-0.3c-0.1-0.2-0.3-0.4-0.4-0.5c-1.1-0.3-1.9-1.2-3.2-0.9l-0.3-0.3
		c-0.3-0.3-0.4-0.6-0.1-0.8c0.2-0.2,0.2-0.4,0.8-0.2c0.8,0.3,1.7,0.2,2.6,0.2c0.5,0,0.9,0.1,1.3,0.4c0.5,0.4,1.1,0.7,1.7,0.8
		c0.7,0.1,1.5-0.1,2.1,0.4l0.3-0.1c0.1-0.2,0.1-0.4,0-0.5c-0.2-0.3-0.5-0.5-0.8-0.8c0.9-0.2,1.8-0.7,2.2-0.5c1.1,0.6,2.6,0,3.5,1.2
		c0.1,0.1,0.4,0.1,0.6,0c0.3-0.1,0.5-0.4,0.8-0.6c-0.2-0.2-0.3-0.4-0.5-0.6c-0.3-0.2-0.6-0.4-0.8-0.4c-2,0-3.5-1.2-5.3-1.7
		c-0.6-0.2-1.5-0.1-1.6-1.1l-0.3-0.2c-1.7-0.2-3.1-0.9-4.5-1.7c-1-0.5-1.8-1.7-3.2-1.3l-0.1-0.1c-0.6-0.9-1.7-0.9-2.6-1.3
		c-0.4-0.2-0.8-0.5-1.3-0.7c0.3-0.3,0.6-0.4,0.8-0.3c1.2,0.6,2.5,0.6,3.8,0.9c2.5,0.6,5.1,1.3,7.3,2.8c1.1,0.8,2.5,1.3,3.9,1.6
		c1,0.2,1.9,0.5,2.6,1.3c0.3,0.3,0.6,0.4,1.1,0.5c2,0.3,4,0.6,5.8,1.6c0.4,0.2,1,0.3,1.5,0.4c1.3,0.4,2.7,0.6,3.9,1.1
		c0.8,0.3,0.9-0.2,1.3-0.5c-0.7-0.2-1.3-0.5-2-0.7c-0.3-0.1-0.6-0.3-0.9-0.3c-0.7,0.1-1.3-0.3-1.9-0.5c-1.6-0.7-3.2-1.2-4.9-1.6
		c-0.8-0.2-1.6-0.4-2.3-0.9c-0.7-0.6-1.5-1.4-2.6-1.2c-0.4,0.1-1.1-0.2-1.4-0.5c-0.7-0.8-1.6-1.1-2.6-1.3c-1.4-0.2-2.4-1.2-3.6-1.9
		c-0.2-0.1-0.4-0.1-0.5-0.2c-0.2-0.1-0.3-0.3-0.6-0.6c1.4-0.1,2.6-0.3,3.4,0.9c0.1,0.2,0.6,0.3,0.9,0.3c0.9-0.1,1.6,0.3,2.5,0.6
		c1.1,0.4,2,1.2,3.1,1.5c1.1,0.2,2.1,0.6,3.1,1.1c0.4,0.2,0.4,0,0.6-0.2c0.3-0.3,0.4-0.6,0.1-0.8c-0.2-0.2-0.5-0.3-0.8-0.4
		c-0.3-0.1-0.7,0-1-0.2c-1.4-1.2-3.5-1.1-4.9-2.3c-0.3-0.2-1.2,0.3-1-0.5c0.1-0.6,0.8-0.2,1.2-0.3c0.6-0.1,1.3-0.2,1.8,0
		c1.9,0.6,3.8,1.3,5.5,2.2c0.9,0.5,1.9,0.8,2.8,1.2c1.4,0.6,3,0.5,4.1,1.5c1.1-0.3,1.8,0.8,2.8,0.8c2.8,0.1,5.2,1.9,8,1.7
		c1,0.7,2,0.3,3.4,0.3c-1.4-0.7-2.5-1.4-3.8-1.2l-0.4,0c-1.1-0.8-2.5-0.5-3.7-1.1c-1.1-0.6-2.4-0.8-3.6-1.2c-1.5-0.5-3-1-4.5-1.6
		c-0.8-0.3-1.6-0.5-2.3-1c-0.7-0.4-1.6-0.6-2.4-0.8c-0.7-0.1-1.3-0.3-1.7-0.9c-0.2-0.4-0.6-0.4-1-0.5c-1.3-0.2-2.6-0.5-3.7-1
		c-0.5-0.2-1-0.5-1.6-0.7c-0.5-0.2-0.8-0.9-1.6-0.7c0,0-0.2-0.3-0.2-0.5l0.2-0.3c2.1-0.1,4.2,0.2,6.1,1.2c0.3,0.1,0.5,0.3,0.8,0.5
		c1.2,0.5,2.6,0.9,3.7,1.6c1.2,0.8,2.6,1,4,1.4c1.5,0.5,3,1.2,4.5,1.6c1.5,0.4,3,0.7,4.5,1.2c0.8,0.3,1.6,0.8,2.4,0.8
		c1,0,1.8,0.5,2.7,0.6c0.3,0,0.6,0.3,0.9,0.3c0.3,0,0.8-0.1,0.8-0.3c0.2-0.4-0.3-0.4-0.6-0.6c-1-0.8-2.3-0.8-3.5-1.1
		c-1.8-0.6-3.5-1.3-5.5-1.4c-0.9,0-2-0.3-2.7-0.9c-0.7-0.6-1.5-0.7-2.3-1.1c-0.8-0.4-1.7-0.6-2.5-0.9c-1-0.4-2-0.7-3-1.2
		c-0.6-0.3-1.2-0.7-1.9-0.9c-0.4-0.1-1.4-0.1-1.3-1.1c0-0.1-0.3-0.4-0.5-0.4c-0.4-0.1-0.8-0.1-1.2,0c-1.8,0.2-3-1.2-4.5-1.6
		c-0.3-0.1-0.6-0.4-0.7-0.7l0.2-0.6c1,0.1,1.9,0,3,0.3c0.9,0.3,1.7,1.2,2.7,0.9c0.5,1.1,2.3,0.5,2.5,2c0.1,0.4,0.5,0.5,1,0.5
		c1.1,0,2.1,0,3.2,0.4c0.8,0.3,1.2,1.1,2,1.2c1.8,0.2,3.4,0.9,5.1,1.3c1.5,0.3,2.9,0.8,4.2,1.4c0.8,0.4,1.5,0.8,2.4,0.7
		c0.2,0,0.6,0.1,0.7,0.3c0.4,0.7,1,0.5,1.7,0.6c0.8,0,1.6-0.2,2.3,0.4c0.2,0.2,0.8,0,1.2,0l0.1-0.3l-0.1-0.3
		c-0.8-0.2-1.5-0.5-2.3-0.5c-0.8,0-1.4-0.3-2.1-0.6c-0.6-0.2-1.3-0.5-1.7-0.8c-0.9-0.6-1.8-0.2-2.7-0.6c-1.5-0.7-3.2-0.9-4.7-1.8
		c-0.7-0.4-1.7-0.3-2.5-0.5c-0.8-0.2-1.8-0.5-2.2-1.1c-0.7-1.1-1.6-0.2-2.3-0.5l-0.3-0.3c-1.9-0.9-3.9-1.6-5.8-2.6
		c-2.1-1.2-4.4-2-6.7-2.9c-0.9-0.4-1.6-1.3-2.7-1.4l0-0.5c0.6-0.5,1.5,0.3,2.1-0.4c0,0,0.3,0.2,0.4,0.2c1.7,0.4,3,1.6,4.8,2
		c2.2,0.5,4,2.1,6.2,2.4c2,1.4,4.6,1.3,6.5,2.7c0.8-0.2,1.1,0.4,1.6,0.8c0.5,0.3,1.2-0.1,1.7,0.4c0.3,0.3,1.1,0.1,1.5,0.4
		c0.9,0.8,2,1,3.1,1c0.4,0,1-0.1,1.2,0.1c1.2,1,2.7,0.8,4,1.4c0.8,0.4,1.9,0.4,2.9,0.6l0.3-0.2c0-0.2,0-0.4-0.1-0.5
		c-0.2-0.2-0.5-0.4-0.8-0.5c-1.1-0.3-2.3-0.5-3.4-0.9c-0.7-0.2-1.5-0.5-2.1-0.8c-1.3-0.7-2.9-0.8-4.3-1.2c-2.9-0.9-5.6-2.2-8.4-3.2
		c-2.7-1-5.5-1.8-8.1-3c-1.2-0.6-2.5-1.1-3.6-1.7c-0.4-0.2-0.3-0.9-1.1-0.8c-2.2,0.1-3.9-1.2-5.5-2.8c1.3-0.8,2.6-0.7,3.7-0.4
		c1.4,0.4,2.8,1.3,4.1,2l0.1,0.3c-0.1,0.2-0.2,0.4-0.3,0.4c-0.3,0.1-0.6,0.1-0.9,0.1c0.3,0.3,0.7,0.3,1,0.3c2.7-0.3,5,0.7,7.3,1.9
		c0.4,0.2,0.8,0.5,1.2,0.6c3,0.6,5.7,2.2,8.7,3.1c1.4,0.4,2.8,1,4.1,1.5c1.4,0.5,2.7,1.2,4.2,1.4c1.3,0.2,2.4,1,4,0.4
		c-1.4-0.4-2.4-1.2-3.6-1.5c-1.3-0.3-2.7-0.6-3.8-1.3c-1.2-0.7-2.6-0.8-3.8-1.4c-1.1-0.6-2.4-1-3.6-1.3c-1.6-0.5-3.2-0.9-4.6-1.9
		c-0.1-0.1-0.4-0.2-0.5-0.2c-1.3-0.1-2.3-0.8-3.4-1.3c-0.4-0.1-0.9-0.4-0.9-0.6c0-0.6-0.3-0.6-0.8-0.6c-1,0.1-2,0-2.8-0.8
		c-0.3-0.3-1-0.3-1.5-0.5c-0.6-0.3-1.1-0.6-1.8-1c0.8-0.3,1.5-0.5,2.1-0.8c0.7-0.4,1.3-0.4,2,0.1c1.1,0.7,2.1,1.8,3.7,1.7
		c0.2,0,0.6,0.5,0.6,0.5c-0.6,0.9,0.1,0.7,0.6,0.7c0.8,0,1.6-0.2,2.2,0.1c1.4,0.7,3,1.2,4.4,1.9c1.6,0.7,3.2,1.4,4.9,1.8
		c1.5,0.4,3.1,0.9,4.6,1.5c1.6,0.6,3.1,1.3,4.7,1.7c0.9,0.2,1.8,0.4,2.7,0.5c0.2,0,0.4-0.3,0.5-0.4c-0.2-0.1-0.3-0.4-0.5-0.4
		c-0.5-0.1-0.9-0.1-1.3-0.3c-0.8-0.4-1.8-0.3-2.5-0.9c-1.1,0.4-1.4-1.1-2.5-0.9c-0.6,0.1-1.2-0.4-1.8-0.5c-1.4-0.2-2.5-1-3.8-1.5
		c-1.8-0.7-3.7-1-5.4-2c-0.7-0.5-1.6-0.8-2.5-1c-1.1-0.2-2-0.9-3.1-1.1c-0.8-0.2-1.5-0.9-2.3-1.4c0.2-1.3-0.7-1-1.4-1
		c-1.4,0.1-2.5-0.6-3.6-1.4c-0.5-0.4-1.1-0.9-1.6-1c-0.7-0.1-1.2-0.5-1.8-0.7c-2.5-1-4.6-2.8-7.1-3.8c-1.1-0.5-2.3-0.8-4-0.9
		c0.9,0.6,1.4,1,1.9,1.4c0.1,0.1,0.1,0.4,0.1,0.5L72,92.9c-0.6,0-1.3-0.1-1.9,0c-0.8,0.2-1-0.7-1.5-0.8c-1.3-0.4-2.5-1-3.8-1.5
		C64.4,90.4,63.8,90.4,63.3,90.3z M167.1,108.2c-0.6-0.7-0.6-0.7-0.3-1.3c0.5-1.1,1.1-2.2,1.6-3.3c0.4-0.9,0.2-1.4-0.7-1.8
		c-0.7-0.4-1.5-0.7-2.3-1c-0.3-0.1-0.3-0.4-0.8-0.1c-0.5,0.4-1,0.3-1.2-0.7c-0.2-1.1-1.6-1.4-2.1-2.4c-0.1-0.2-0.4-0.5-0.6-0.5
		c-0.3,0-0.8-0.3-1,0.4c-0.1,0.4-0.2,0.7-0.4,1.1c-0.1,0.1-0.3,0.2-0.5,0.2l-0.3-0.3c0-0.3,0-0.6,0-0.8c0-1.6-0.5-2.1-2.2-2.6
		c-0.5-0.2-0.7-0.4-1.4-0.1c-0.7,0.3-0.7,0.9-1,1.3c-0.2,0.3-0.1,0.9-0.3,1.3c-1.4,2.7-2.7,5.6-5.5,7.2c-0.3,0.2-0.5,0.5-0.7,0.7
		c-0.1,0.1-0.1,0.4-0.1,0.6c0.2,0,0.5,0.2,0.7,0.1c1.9-1,3.4-2.6,4.6-4.3c1.1-1.5,2.3-3,3-4.8c0.2-0.6,0.7-0.4,1-0.3
		c0.4,0.1,0.3,0.4,0.1,0.8c-0.4,0.9-0.5,1.9-1.3,2.6c-0.3,1.9-2.6,2.5-2.8,4.4c-1.9,1.6-3.1,4-5.9,4.3c-0.4,0-0.9,0.4-1.3,0.2
		c-0.4-0.2-0.8-0.6-1-1c-0.4-0.8-0.6-1.7-0.9-2.5c-0.1-0.4-0.5-0.8-0.4-1.1c0.4-0.7,0.7,0.2,1.1,0.2c0.3,0,0.6-0.1,0.9-0.2
		c0.6-0.2,1.1-0.7,1.8-0.6c0.3,0,0.6-0.2,0.8-0.4c1.3-0.9,2-2.3,2.8-3.6c1.3-2.5,3.3-4.7,3.2-7.8c0.9-0.8-0.1-1-0.5-1
		c-0.8,0-1.2-0.5-1.5-1c-0.9-1.7-2.5-2.6-4.2-3.2c-0.2-0.1-0.5-0.2-0.5-0.3c-0.1-1.1-1.5-1.3-1.7-2.4c-0.1-0.6-1.3-0.9-1.5-0.5
		c-0.3,0.5-0.1,1,0.4,1.4c0.6,0.5,1.4,1,1.5,1.6c0.5,1.8,1.8,3.3,2.5,5c0.3,0.7,0.4,0.7,0.9,0.3l0.3,0.1c0,0.9,0,1.8,0,2.7l0.4,0.3
		l0.4-0.3c-0.2-1,0.3-1.6,1.3-2.2c0,0.8-0.1,1.5,0,2.2c0.1,0.6-0.3,1.1-0.6,1.1c-0.6,0.1-0.6,0.3-0.6,0.8c-0.1,1.1-0.4,2.2-1.4,3
		c-0.4,0.3-0.9,0.7-0.7,1.4c-0.9,0.3-0.9,1.7-2.1,1.6c-0.4,0-0.8,0.4-1.2,0.6c-0.3,0.1-0.8,0.3-0.9,0.2c-0.5-0.6-1.5-0.1-1.9-0.9
		c-0.3-0.6-0.6,0-0.7,0.2c-0.1,0.3-0.2,0.8,0,1.1c0.3,0.8,0.8,1.5,1,2.3c0.3,1.2,0.8,2.3,1.6,3.3c0.7,0.8,1.1,1.8,1.8,2.6
		c0.6,0.8,0.8,1.8,1.8,2.4c0.5,0.2,0.5,1.3,1,1.6c0.7,0.4,0.7,1.2,1.4,1.6c0.6,0.3,0.9,1,1.6,1.7c0.1-1.3,0.7-1.9,1.8-2.2
		c1.4-0.4,1.4-0.5,2.6-1.7c0.1-0.2,0.3-0.3,0.4-0.4c0.2-0.1,0.5-0.1,0.5,0c0.4,0.5,0.7,1,1,1.5l-0.2,0.5c-1,0.2-1.6,1.4-2.8,1.3
		c-0.5,0.6-1.3,0.3-1.9,0.4c-0.3,0.1-0.7,0.4-0.9,0.7c-0.1,0.1,0.2,0.5,0.3,0.7c0.6,0.7,1.3,1.3,1.9,1.9c0.2,0.2,0.5,0.5,0.6,0.4
		c1.1-0.3,1.8,0.6,2.8,0.9c0.3,0.1,0.6,0.4,0.9,0.3c0.7-0.1,1.4,0.3,1.7,0.7c0.5,0.6,1.3,0.3,1.8,0.8c0.3,0.2,0.6-0.6,1.1-0.1
		c0.2,0.2,0.7,0.3,0.9,0.2c0.2-0.1,0.2-0.5,0.3-0.8c0.1-0.2,0.3-0.5,0.5-0.6c1-0.7,2.1-1.2,3.1-1.9c0.4-0.3,0.6-0.5,1-0.1
		c0.4,0.5,0.6,0.9,0.1,1.4c-0.3,0.4-0.7,0.7-1,1c-0.6,0.7-1.3,1.2-2.3,1.1c-0.3,0-0.7,0.3-1.2,0.6c0.4,0.1,0.5,0.1,0.6,0.2
		c1.7,0.7,2,0.6,3.2-0.5c1.1-1.1,2.3-2.1,3.5-3.1c0.4-0.3,1.2-0.6,1.4-0.5c0.5,0.5,0.1,1.1-0.4,1.5c-0.4,0.4-0.5,1.1-0.9,1.2
		c-1,0.3-1.3,1.4-2.3,1.6c-0.2,0-0.3,0.4-0.4,0.6c0.2,0.1,0.4,0.3,0.6,0.3c0.7,0.2,1.5,0.4,2.2,0.6c1.3,0.4,2.6,0.6,3.7-0.6
		c0.3-0.3,0.7-0.7,1.1-0.7c0.7-0.1,1.2-0.6,1.4-1.1c0.5-1.4,2.1-1.7,2.7-3c0-0.1,0.4-0.1,0.5-0.1l0.2,0.3c0,0.5,0.2,1-0.3,1.3
		c-1.2,0.9-1.7,2.6-3.2,3.2c-0.3,0.1-0.9,0.5-0.6,1.1c0.2,0.3,1.3,0.2,1.7-0.1c0.3-0.3,0.5-0.6,0.8-0.9c0.3-0.4,0.5-0.8,0.9-1.1
		c1.1-0.9,2.2-1.7,3.3-2.5c0.3-0.2,0.7-0.1,1.3-0.3c-0.7,0.9-1.1,2-1.9,2.3c-1.1,0.4-1.2,1.6-2,2.1c-0.1,0,0,0.4,0.1,0.5l0.4,0.1
		c0.6-0.4,1.2-0.8,1.8-1.2c1.5-1.3,3-2.7,4.5-4.1l0.5,0l0.1,0.5c-0.6,0.8-1.3,1.6-1.9,2.3c-0.2,0.3-0.4,0.6-0.8,1.2c1.5,0,2.7,0,4,0
		c0.4,0,1-0.2,1-0.4c0.4-1.4,1.9-1.6,2.7-2.6c1.2-1.4,1.2-3.4,2.1-4.9c-0.3-2,0.5-4,0.4-6c0-0.8-0.3-1.5-0.4-2.3
		c-0.1-0.9-0.1-1.8-0.1-2.8c-2.8,0.4-5.6-0.3-8.5-0.4c-1.1,0-2.1,0-3.2-0.4c-1-0.3-2.2-0.7-3.3-0.5c-0.2,0-0.5-0.2-0.7-0.2
		c-1.4-0.3-2.7-1.2-4.2-0.6c-0.7,0.3-1.3-0.3-1.9-0.5c-0.5-0.2-0.9-0.5-1.3-0.9c-0.5-0.5-0.7-0.7-1.4-0.1c-0.5,0.6-0.9,0.3-1.2-0.6
		c-0.1-0.3-0.4-0.5-0.6-0.9c-0.4,0.7-1.4,1-1.4,1.9C168.9,106.2,168.1,107.3,167.1,108.2z M201.9,44.8c0.6-0.1,1.2,0.1,1.4-0.2
		c0.8-0.7,1.8-1.5,1.8-2.7c0-0.4,0-0.8,0.4-1.1c-0.4-0.4,0.7-0.6,0.1-1.2c-0.4-0.3-0.1-1-0.6-1.4c-1.3-1.2-2.7-2.1-4.1-3
		c-0.6-0.4-1.1-1-1.8-1.2c-2.6-1-5-2.1-7.6-3c-1.4-0.5-2.1-0.3-3.3,0.5c-1,0.7-0.9,2-1.8,2.8c-0.5,0.4-1.2,1.1-1.2,1.7
		c0,1-0.5,1.5-1,2.1c-1.1,1.3-0.9,2.1,0.6,2.9c0.3,0.2,0.7,0.4,1.1,0.4c2-0.1,3.7,0.8,5.5,1.3c2,0.5,3.9,1.6,6.1,1.3l0.4,0
		C199.2,44.5,200.7,44.4,201.9,44.8z M46.2,127.9l-0.4-0.2c-0.1,0.5-0.4,1-0.4,1.4c0.1,1.9-0.6,3.7-0.5,5.6c0,0.6-0.3,1.4-0.4,2.1
		c0,0.4-0.2,0.8-0.4,1c-1.1,0.9-1.6,2.2-2.5,3.3c-0.2,0.3-0.7,0.6-0.8,0.9c0,0.3,0.4,0.6,0.6,1c0.1,0.2,0.1,0.6,0,0.7
		c-0.4,0.3-0.3,0.8-0.3,1.1c0.1,1-0.2,1.7-1.1,2.2c-1.1-1.3-0.3-3-0.7-4.5c-0.7,0.5-1.3,1.3-2,1.4c-0.8,0.2-1.3,0.9-2.1,1
		c-1.2,0.2-2.4,0.3-3.6,0.4c-0.5,0-0.5,0.2-0.5,0.6c0,0.4,0.1,0.6,0.6,0.6c0.6,0,1.3,0,2,0.1c-0.4,0.5-0.9,0.8-0.8,1.1
		c0.1,0.5,0.4,1.1,0.8,1.5c0.4,0.4,1,0.5,1.6,0.7c1.4,0.3,2.6-0.4,3.8-0.8c1.6-0.5,3.3-1.2,4.3-2.5c0.8-1,1.7-1.9,2.6-2.8
		c0.4-0.4,0.6-0.8,0.7-1.4c0.1-0.8,0.3-1.7,0.7-2.4c0.5-0.7,0.7-1.3,0.3-2c-0.4-0.7-0.4-1.4,0-2.1c0.5-0.7-0.2-0.9-0.6-1.6
		c0,0.9,0,1.4,0,2c-0.9-0.3-0.8-0.9-0.8-1.5C46.2,132.6,46.2,130.2,46.2,127.9z M153.6,74.3c0.1-1.1-0.2-1.8-0.8-2.4
		c-0.5-0.5-1-0.9-1.5-1.5c-1.4-1.7-1.4-1.7-3.5-1.2l-0.2,0c-0.8,0.2-1.6,0.2-2.2,0.6c-0.7,0.4-0.9,1.2-0.9,2.1
		c0,0.3-0.3,0.6-0.4,0.9c-0.8,1.8-0.7,2.4,0.9,3.5l0.4,0.4c-0.1,1,0.8,1.5,1.2,2.2c0.8,1.4,2,2.6,2.2,4.3c0.8,0.7,0.8,1.6,0.9,2.5
		c0,0.2,0.3,0.3,0.4,0.4c0.1-0.2,0.2-0.3,0.3-0.5c0.3-0.5,0.6-0.7,1.2-0.2c0.7,0.6,1.7,0.4,2.5-0.2c0.6-0.4,0.7-1.1,0.2-1.5
		c-0.8-0.7-1.1-1.8-1.7-2.6c-0.4-0.6-0.7-1.2-1-1.8c-0.4-0.6-0.5-1.3-1-1.9c-1-1.3-1.6-2.9-2.4-4.4c-0.1-0.2-0.1-0.5-0.1-0.7
		c0.2,0.1,0.5,0.2,0.6,0.3c0.8,1.2,1.5,2.4,2.4,3.6c1.2,1.5,2.4,3,3.6,4.5c0.2,0.2-0.1,0.8,0.5,0.3c0.2-0.2,0.4-0.2,0.1-0.6
		c-0.6-0.9-0.9-1.9-1.5-2.7c-0.7-0.9-0.6-2.1-1.5-2.9c-0.6-0.6-0.9-1.5-1.5-2.3c-0.1-0.1,0.1-0.4,0.2-0.6c0.3-0.3,0.3-0.1,0.5,0.1
		c0.6,0.7,1.3,1.3,1.6,2.2l0.4,0.3C153.4,74.5,153.6,74.3,153.6,74.3z M148.3,99.5l0.4-0.1c-0.1-0.7-0.4-1.4-0.2-1.9
		c0.4-0.9-0.5-1.3-0.4-2c0-0.3-0.2-0.6-0.3-0.9c-0.9-2.2-1.4-4.7-2.9-6.7c-0.6-0.8-1.3-1.7-1.9-2.5c-0.1-0.2-0.4-0.3-0.7-0.4
		c-1.6-0.3-2.1,0-2.8,1.5c-0.2,0.4-0.3,0.9-0.5,1.2c-1.1,1.6-1,3.1-0.1,4.8c0.5,0.9,0.9,1.9,0.9,2.9c0,1.6,1.2,2.5,1.6,3.7l0.3,0.3
		c0.2,0,0.4,0,0.6-0.1l0.1-0.4c-0.3-0.7-0.5-1.3-0.8-1.9c-0.6-1-0.4-2.1-1.1-3.1c-0.6-0.9-0.6-2.2-0.9-3.3c-0.2-1-0.6-2.3,0.7-3.3
		c0,0.6,0,1.1,0,1.6c-0.1,1.2,0.3,2.3,0.9,3.1c0.7,1,0.9,2.3,1.5,3.3c0.7,1.2,1.1,2.6,2,3.7c0.3,0.4-0.1,0.3-0.3,0.4
		c-0.4,0.3-0.5,1-0.3,1.1c0.4,0.2,1.7,0.1,2.1-0.3l0.3-0.5c-0.1-0.2-0.3-0.3-0.5-0.4c-0.3-0.1-0.6,0-0.7-0.5
		c-0.3-1.4-0.8-2.7-1.2-4.1c-0.4-1.4-1.3-2.5-1.4-4c-0.2-1.3-1-2.6-1.7-3.8c-0.2-0.3-0.1-0.4,0.1-0.6c0.2-0.2,0.3-0.3,0.6,0
		c0.3,0.3,0.9,0.2,0.7,0.9c-0.3,1.3,0.5,2.3,1,3.3c0.3,0.6,0.7,1.1,1.1,1.6c1,1.4,1.4,3.1,2.7,4.3c0.4,0.4,0.7,1.1,0.7,1.8
		C147.8,98.8,148.1,99.1,148.3,99.5z M6,114.8c0.7,0.2,1.3,0,1.9-0.3c1.2-0.6,2.1-1.9,3.6-1.7c0.5-0.5,1-1.3,1.6-1.6
		c0.6-0.3,1.5-0.1,2.2-0.2c0.5-0.1,1-0.3,1.4-0.7c0.9-0.8,2.2-1.4,2-3c0-0.3,0.2-0.6,0.4-0.9c0.5-0.8,0.6-1.4,0.1-2
		c-0.7-0.9-1.1-0.9-2.3-0.5c-1.6,0.5-2.7,2.1-4.4,2.4c-2,1.5-4,2.9-6.1,4.4c-0.3,0.3-0.2,0.5,0.2,0.4c0.3-0.1,0.6,0.8,0.9,0.1
		c1.1,0.2,1.9-0.5,2.7-1.1c1.1-0.8,2.2-1.4,3.4-1.9c1-0.5,2-1.1,3.1-1.6c0.3-0.2,0.8-0.9,1.1-0.2c0.1,0.3-0.2,0.8-0.4,1.2
		c-0.1,0.1-0.4,0.1-0.5,0.2c-0.7,0.4-1.3,0.9-2.1,0.8c-1.8,1.5-4,2.1-5.8,3.4C8,112.9,6.3,113,6,114.8z M114.5,106.2l0.2-0.3
		c-0.6-0.3-1.1-0.7-1.7-0.9c-3.1-0.9-6.1-2.3-9.2-3.2c-2.1-0.7-4.2-1.5-6.3-2.3c-1.7-0.7-3.4-1.1-5-2c-1-0.6-2-1.4-3.1-1.6
		c-1.9-0.5-3.5-1.7-5.2-2.5c-2.2-1.1-4.2-2.4-6.4-3.5c-0.5-0.2-0.9-0.2-1.3-0.2l-0.4,0.3c0,0.2,0.2,0.5,0.2,0.5
		c0.9-0.2,1.2,0.5,1.7,0.9c0.7,0.6,1.4,1.3,2.3,1.5c1.2,0.4,2.3,1.1,3.5,1.7c1.2,0.6,2.4,1.3,3.6,1.9c1.4,0.8,3,1.2,4.3,2.2l0.2,0.1
		c0.8-0.2,1.5,0.2,2,0.5c0.6,0.4,1.6,0.1,1.9,1c1.2,0.2,2.1,1.1,3.2,1.3c1.6,0.2,3,0.8,4.4,1.3c1.4,0.5,2.8,0.9,4.2,1.4
		c1.4,0.5,2.9,0.7,4.2,1.4C112.4,106.1,113.5,106,114.5,106.2z M115.4,102.7c-0.4-0.8-1.1-0.9-1.9-1.2c-1-0.3-2.1-0.2-2.9-1.1
		c-1.2,0.2-2-1.2-3.2-0.8c-0.9-0.9-2.2-1.2-3.3-1.4c-0.9-0.2-1.4-1-2.3-1c-1.3-0.1-2.5-0.8-3.6-1.3c-1.5-0.7-3-1.5-4.5-2.1
		c-0.8-0.3-1.7-0.5-2.3-1c-1.6-1.2-3.4-1.9-5-2.9c-0.9-0.5-1.9-0.7-2.9-0.6c-0.2,0-0.4,0.1-0.5,0.2l0.2,0.5c0.4,0.3,0.8,0.7,1.3,0.9
		c1.7,1,3.7,1.5,5.4,2.5c1.1,0.7,2.3,1.1,3.5,1.6c0.5,0.2,1.1,0.2,1.5,0.4c1.9,1.2,4,2.1,6.1,2.7c1.3,0.3,2.3,1.1,3.6,1.5
		c1.8,0.5,3.6,1.3,5.4,1.9c1.2,0.3,2.3,0.8,3.5,1C114.2,102.4,114.7,103.3,115.4,102.7z M115.1,99c-0.6-0.7-1.1-1.4-2.1-1.2
		c-0.2,0-0.4-0.3-0.7-0.4c-1.1-0.4-2.3-0.8-3.4-1.3c-2.6-1.2-5.3-1.9-7.8-3.2c-0.6-0.3-1.3-0.8-1.9-0.8c-1.3-0.1-2.2-1-3.4-1.4
		c-1.2-0.4-2.3-1.2-3.3-1.9c-1.2-0.9-2.4-1-3.9-0.8c0.5,0.7,0.6,1.3,1.3,1.7c0.6,0.3,1.2,0.5,1.7,0.8c1.6,1.1,3.5,1.6,5.3,2.3
		c1.9,0.7,3.7,1.4,5.5,2.2c1.2,0.6,2.5,1,3.7,1.5c1.8,0.7,3.7,1.1,5.5,1.7C112.8,98.6,113.7,99.4,115.1,99z M7.6,128.3
		c0.4,0.3,0.6,1,1.2,0.5c1.1-1.1,2.3-2.3,4-2.3c1.5-1.4,3.7-1.4,5.4-2.5c0.3-0.2,0.6,0.1,0.6,0.5c0,0.3-0.1,0.5-0.4,0.7
		c-1,0.7-2.2,1.2-3.2,1.8c-2.1,1.2-4.2,2.5-6.3,3.8c0.4,0.4,0.8,1,1.4,0.2c0.6-0.7,1.7-0.5,2.2-1.3c2.6-0.6,4.7-2.4,7.3-2.9
		c0.3-0.1,0.7-0.8,0.7-0.8c-0.6-0.9-0.2-1.8-0.4-2.8c0-0.3-0.3-0.7-0.5-0.8c-1.3-0.8-3.6-1-4.6,0.3c-0.8,1.1-2,1.6-3,2.4
		c-0.4,0.3-0.9,0.4-1.1,1c-0.1,0.3-0.6,0.6-0.9,0.6C8.9,126.8,8.4,127.6,7.6,128.3z M123.3,91.6c-2.3-0.9-4-2.8-6.2-3.5
		c-1-1.1-2.5-1.4-3.6-2.2c-1.7-1.2-3.8-1.9-5.5-3.2c-0.3-0.2-0.8-0.3-1.1-0.2c-0.6,0.2-1.2,0.4-1.9,0.4c-0.2,0-0.9,0.3-0.3,1
		c0.2,0.3,0.5,0.5,0.7,0.7c0.5,0.5,1,0.2,1.5,0.3c0.6,0.2,0.7,1,1.5,0.8c2.2,1.2,4.9,1.5,6.6,3.5l0.3,0.2c1-0.2,1.4,0.7,2,1.2
		c0.2,0.1,0.5,0.3,0.6,0.3c0.8-0.9,1.4,0.3,2.2,0.2c0.6-0.1,1.3-0.1,1.9,0.3C122.3,91.8,122.9,91.6,123.3,91.6z M99.3,84.3
		c0,0.4,0,0.7,0,0.9c0,1.1,0.1,1,1.2,1.5c1.1,0.4,2.4,0.8,3.3,1.5c1.2,1,2.8,0.7,3.8,1.8c0.8-0.1,1.4,0.6,2.1,0.8
		c0.8,0.2,1.6,0.5,2.4,0.8c0.7,0.3,1.2,1.1,2.1,1c0.4,1.1,1.6,0.4,2.3,1c0.4,0.3,1,0.3,1.1,1l0.4,0.3c0.6-0.5,1.4-0.3,2-0.6
		c0.2-0.1,0.3-0.4,0.3-0.6c0-0.1-0.4-0.4-0.4-0.4c-0.6,0.5-0.8-0.1-1.2-0.3c-0.4-0.2-0.6-0.5-0.9-0.8c-0.3-0.3-1-0.1-1.6-0.2
		c-0.3,0-0.6-0.2-0.9-0.3c-1.9-0.9-3.9-1.7-5.8-2.6c-2.7-1.3-5.4-2.7-8-4.2C100.9,84.5,100.3,83.9,99.3,84.3z M94.2,84.8
		c-0.1,0.3-0.3,0.7-0.3,0.7c0.7,0.5,0.8,1.3,1.1,2c0.2,0.4,0.4,0.7,0.9,0.9c1.5,0.7,3,1.3,4.6,2c1.2,0.5,2.6,0.8,3.7,1.4
		c1.2,0.7,2.6,1.3,3.8,1.8c1.8,0.7,3.6,1.3,5.3,2.2c0.5,0.2,0.9,0.5,1.4,0.7c0.2,0.1,0.6,0,0.7-0.1c0.1-0.2,0.2-0.6,0.1-0.8
		c-0.2-0.3-0.5-0.6-0.9-0.7c-0.5-0.3-1.1-0.4-1.6-0.6c-1.8-0.8-3.7-1.4-5.5-2.3c-1.6-0.8-3.3-1.4-4.9-2.1c-0.6-0.3-1-0.9-1.6-1.2
		c-1.9-0.8-3.4-2.1-5.1-3.2C95.4,85.3,94.9,85.1,94.2,84.8z M11.3,142c1.1,0.9,1.6,0.9,2.4,0.1c0.6-0.5,1-1.3,2-1.2
		c0.2,0,0.3-0.6,0.5-0.1c0.1,0.1-0.1,0.5-0.3,0.7c-0.2,0.2-0.5,0.2-0.7,0.3c-0.3,0.2-0.7,0.4-1,0.6c0.3,0.4,0.6,0.9,0,1.3
		c0.3,0.1,0.6,0.3,0.9,0.2c2.1-0.8,4.2-1.5,6.4-2.1c0.5-0.1,1.1-0.6,1.4-1c0.2-0.3,0-0.9,0-1.6c-1.2,0.3-2.2,0.5-3.2,0.7
		c-0.2,0-0.4,0.5-0.5,0l0.2-0.5c0.8-0.3,1.6-0.6,2.3-0.8c0.2-0.1,0.7-1.1,0.6-1.2c-0.3-0.3-0.5-0.6-1.2-0.3c-1.2,0.7-2.6,1-3.8,1.9
		l-0.3,0.2c-0.6,0.1-1.6,0-1.9,0.3c-0.4,0.5-0.7,1-1.4,1.3C13,141.1,12.2,141.6,11.3,142z M18.6,132.2l0.1,0.3
		c-0.9,0.6-1.8,1.3-2.7,1.9c-1.6,1-3.3,2-5,3l-0.1,0.4l0.2,0.3c0.5,0,1.1,0.1,1.4-0.1c1.4-1,2.8-1.8,4.4-2.4
		c0.5-0.2,0.6-0.8,1.3-0.8c0.6,0,1.1-0.3,1.7-0.4c0.6-0.1,1.1-0.4,1-1c-0.1-1,0.3-1.8,0.6-2.6c0.2-0.5-0.1-0.7-0.3-0.7
		c-0.8-0.2-1.7-0.4-2.5,0.1c-2.7,2-5.8,3.4-8.6,5.1c-0.2,0.1-0.3,0.4-0.4,0.5c0.2,0.1,0.5,0.3,0.7,0.3c0.2,0,0.5-0.2,0.7-0.3
		c2.1-1,4.3-2.1,6.4-3.1C17.8,132.4,18.2,132.3,18.6,132.2z M12.1,20.2c-1.2,0.4-2.6,0.8-3.8,1.6c-0.6,0.4-0.3,1-0.2,1.5
		c0,0.3,0.6,0.6,0.9,0.6c0.5,0,1-0.1,1.5-0.2c0.2,0,0.6-0.1,0.7,0c1.1,1,2.3,0.6,3.5,0.3c1.2-0.4,2.3-1.1,3.6-1.4
		c0.2,0,0.4-0.3,0.4-0.4c-0.1-0.2-0.2-0.5-0.4-0.6c-0.3-0.1-0.7,0-1-0.1c-1.5-0.5-3.2,0.1-4.5-1.2C12.7,20.2,12.4,20.3,12.1,20.2z
		 M127.1,89.3c-0.2-0.1-0.5-0.2-0.7-0.3c-1.8-0.8-3.4-2.1-5.1-3.1c-1.3-0.7-2.5-1.6-3.7-2.5c-0.5-0.3-1-0.9-1.5-0.9
		c-0.8,0-1.1-0.4-1.5-0.8c-0.2-0.2-0.4-0.3-0.6-0.5c-0.9-0.5-1.9-0.8-2.7-1.5c-0.2-0.2-0.7,0-1.1,0.1c0,0.3,0,0.7,0.1,1
		c0.1,0.3,0.4,0.5,0.7,0.7c1.3,0.8,2.5,1.7,3.7,2.6c1.9,1.5,4.2,2.2,6.4,2.9c0.5,0.2,1.1,0.3,1.4,0.6c0.8,0.8,1.9,1,2.8,1.6
		C125.9,89.6,126.4,89.5,127.1,89.3z M22.4,49.3c-1.4,0-2.4-0.1-3.2,0.6c-0.5,0.4-1.1,0.7-1.6,1c-1,0.6-1.9,1.4-3.2,1.9
		c-0.7,0.2-1.3,1.1-2.1,1.5c-1.3,0.7-2.6,1.4-3.9,2.1c-0.6,0.3-1.1,1-1.6,1.6c-0.1,0.1,0,0.6,0.1,0.8c0.1,0.1,0.5,0,0.7,0
		c1.1-0.4,2-1.2,2.9-1.9c0.7-0.5,1.5-1.4,2.2-1.5c1-0.1,1.2-1.3,2.2-1.1c1.4-0.8,2.7-1.7,4.4-2c0.5-0.1,1.2-0.3,1.6-0.7
		C21.4,51,21.8,50.2,22.4,49.3z M23.4,15.8c0,0.2-0.1,0.4-0.1,0.5c0.3,1.6-0.6,2.5-1.9,3.1c-0.2,0.1-0.4,0.1-0.6,0.2
		c-0.2,0.1-0.4,0.3-0.4,0.4c0.1,0.2,0.3,0.6,0.5,0.6c1.6,0.1,3.2,0.4,4.5-1c0.6-0.6,1.1-1,2.1-1c1.1,0,2.3-0.5,3.4-0.8l0.2-0.6
		c-0.2-0.3-0.4-0.7-1-0.6c-1.1,0.1-2.2,0-3.3,0c-1.2,0.1-2.3,0-3.2-0.8L23.4,15.8z M223.7,31.5c-1.6,0-2.9-0.3-3.9,0.1
		c-1.2,0.4-2.3-0.2-3.4-0.1c-1.7,0.2-3.4,0-5.2,0c-0.4,0-0.9,0.1-1.2,0c-1.9-0.8-3.9-0.2-5.8-0.4l-0.3,0.4l0.3,0.4
		c0.8,0,1.7-0.2,2.2,0.1c0.7,0.4,1.4,0.3,2.1,0.4c0.8,0.1,1.5,0.3,2.3,0.4c1.1,0.1,2.3-0.3,3.3,0.4c0.2,0.1,0.6,0.1,0.8,0
		c1-0.7,2.1-0.3,3.1-0.4c1.5-0.1,2.9-0.3,4.4-0.4C222.8,32.2,223.1,31.9,223.7,31.5z M7.9,119.5c-0.5,0.8-0.8,1.3-1.1,1.8
		c1.5,0.9,2.8,0.8,4.2-0.2c0.4-0.3,0.9-0.5,1.3-0.8c1.4-1,3-1.4,4.7-1.7c0.5-0.1,1.1-0.2,1.4-0.8c0.3-0.6,0.6-1.3,0.8-1.9
		c0-0.1-0.4-0.5-0.6-0.5c-0.4,0-0.7,0.2-1.1,0.3c-2.1,0.7-3.6,2.3-5.4,3.4c-1.1,0.6-2.2,1.4-3.3,2c-0.5,0.3-0.7,0.1-0.7-0.5
		C8,120.3,8,120.1,7.9,119.5z M10.5,47.7c0.3-0.2,0.6-0.5,0.8-0.7c1.2-1.2,4.8-3.3,6.6-3.9c1.6-0.5,2-1.8,2.4-3.2
		c0.1-0.4-0.2-0.7-0.6-0.6c-0.3,0.1-0.6,0.2-0.9,0.4c-2,1.4-3.8,3-5.9,4.2c-1.4,0.8-1.9,2.2-3,3.1l0,0.4
		C10.1,47.5,10.3,47.6,10.5,47.7z M12.4,103.5c0.9,0.1,1.5-0.1,2.4-0.2c0.6-0.1,0.8-0.5,1.1-0.8c0.3-0.2,0.5-0.6,0.7-0.7
		c1.4-0.4,1.3-1.6,1.6-2.6c0.1-0.4,0.3-0.7,0.4-1.1c0.2-0.5-0.1-0.8-0.7-0.6c-1.4,0.4-2.7,0.9-4,1.3c-0.9,0.3-1.9,1.1-2.2,1.9
		c-0.3,0.9-1,1.9-0.2,3.1c0.3-2.9,2.7-3.6,4.8-4.6c0.2-0.1,0.5,0.1,0.7,0.2c-0.1,0.2-0.1,0.6-0.3,0.7c-0.6,0.4-1.5,0.6-1.8,1.1
		C14.4,102.1,13.6,102.8,12.4,103.5z M16.7,85.2c-1,0.8-1.6,2-2.8,2.4L13.8,88l0.2,0.3c0.3,0,0.7,0,1-0.2c1.1-0.6,2.3-1.1,3.4-1.7
		c0.8-0.4,1.1-1,1.5-1.7c0.2-0.3,0.1-0.7-0.4-0.6c-0.4,0-0.8,0.1-1.2,0.2c-0.4,0.1-0.8,0.1-1.4,0.2c1-1.5,1-1.5,2.7-2.5
		c0.6-0.3,1.2-0.6,1.2-1.5c0-0.2,0-0.4-0.2-0.5l-0.5,0c-0.5,0.6-1.2,0.8-1.8,1.1c-1.2,0.6-2,1.6-2.8,2.6l0.1,0.7
		C16,84.8,16.3,85,16.7,85.2z M136.2,122.9c-0.3-0.2-0.6-0.5-0.9-0.6c-1.9-0.2-3.8-0.6-5.7-1.2c-2-0.7-4.2-1.2-6.2-1.9
		c-0.3-0.1-0.4-0.4-0.5,0.1c-0.2,1.2,0.8,2.3,2.2,2.5c0.5,0.1,1,0,1.4,0.1c1.4,0.5,2.8,0.8,4.2,0.7c0.6,0,1.4-0.2,1.8,0
		C133.8,123.6,135,122.9,136.2,122.9z M286.5,30c-0.3-0.1-0.5-0.2-0.6-0.2c-4.2-0.2-8.3,0.3-12.5-0.4c-1.3-0.2-2.7-0.6-4-0.4
		c-0.7-0.8-1.8-0.1-2.6-0.7c-0.4-0.3-0.9-0.4-1.2,0.2c-0.2,0.6,0.5,0.5,0.8,0.6c0.3,0.2,0.7,0.2,1.1,0.3c0.4,0,0.9-0.1,1.2,0.1
		c2.2,1,4.7,0.5,7,1.2C279.3,30.5,282.8,31.1,286.5,30z M204.3,47.6c-2.7,0.1-4.8-0.2-6.9-0.8c-1.4-0.4-2.9-0.7-4.3-1.1
		c-1.6-0.4-3.2-1.2-5-1c0.7,0.7,1.2,0.8,2,1.2c1.2,0.6,2.5,0.7,3.7,1.2c1.5,0.6,3.1,1,4.7,1.2c1.5,0.2,3,0.1,4.6,0
		C203.2,48.4,203.5,48.1,204.3,47.6z M8.3,53.6c0.3-0.2,0.5-0.3,0.6-0.4c0.4-0.5,1.1-0.8,1.5-1.3c0.5-0.6,1.5-0.9,2.3-1.3
		c0.9-0.4,1.7-0.9,2.6-1.2c1.1-0.3,1.5-1.3,2.3-2c0.1,0-0.2-0.5-0.3-0.7c-0.2-0.3-0.3-0.3-0.6-0.1c-0.2,0.2-0.5,0.1-0.7,0.3
		c-0.9,1-2,1.5-3.1,1.9c-1.1,0.4-2,1.2-3,1.6C8.7,51,8.3,51.9,8,52.9C8,53.1,8.1,53.3,8.3,53.6z M9.8,118.6l0.3-0.3
		c1.2-0.6,2.5-1.2,3.4-2.2c2.1-0.3,3.8-1.9,5.9-2.1c0.4,0,0.7-0.7,0.5-1c-0.3-0.4-0.7-0.7-1-1c-0.3,0.5-1,0.2-1.2,0.5
		c-1.1,1.4-3.3,1.1-4.2,2.8c-1.6,0.4-2.7,1.8-4.1,2.5l-0.1,0.4C9.5,118.3,9.7,118.5,9.8,118.6z M103.7,127c0.2-0.2,0.4-0.4,0.6-0.6
		c-0.2-0.1-0.4-0.3-0.6-0.3c-0.2-0.1-0.4,0-0.6-0.1c-1.2-0.7-2.5-0.9-3.9-1.1c-1.3-0.3-2.6-0.6-3.8-1.2c-1.4-0.6-3-0.8-4.3-1.7
		c-0.2-0.1-0.9-0.3-0.9,0.4c0,0.4-0.2,0.7,0.5,0.9c1.4,0.4,2.7,1.2,4.2,1.3c1.3,0.1,2.6,0.7,3.8,1.1c1.3,0.4,2.6,0.7,3.9,1.1
		C102.9,126.8,103.2,126.9,103.7,127z M6.2,26c-0.6,1-1.2,1.9-2.4,2.1c-0.5,0.1-0.3,0.5-0.4,0.8c0,0.5,0.4,0.5,0.7,0.4
		c0.4-0.1,0.8-0.1,1.1-0.3C6.1,28.4,7,27.8,8,27.3C8.7,27,9.3,26.4,10,26c0.1-0.1,0.1-0.4,0.1-0.5l-0.3-0.2c-0.2,0-0.4,0-0.6,0
		c-1,0-2.2,0.2-3-0.2c-1.2-0.6-1.8,0.3-2.7,0.5c-0.2,0-0.2,0.4-0.3,0.7c0.2,0.1,0.5,0.3,0.7,0.2C4.5,26.4,5.4,26.2,6.2,26z
		 M127.5,85.7c-0.2-0.2-0.3-0.4-0.5-0.5c-0.9-0.5-1.9-0.7-2.8-1.2c-2.1-1.1-4.1-2.4-6.2-3.6c-1.3-0.8-2.7-1.6-4-2.3
		c-0.2-0.1-0.5,0.1-0.7,0.1c0.1,0.2,0.2,0.5,0.4,0.6c1.1,0.7,2.2,1.4,3.2,2.2c1.4,1.1,3.1,1.6,4.5,2.8c1.4,0.1,2.5,1.1,3.7,1.6
		C125.8,85.6,126.5,86.1,127.5,85.7z M18.4,13.5l0.3,0.1c0.2-0.5,0.7-1.2,0.5-1.4c-0.7-0.8-0.3-1.5,0-2.5c-0.6,0.3-1.3,0.4-1.5,0.7
		c-0.6,0.7-1.5,0.9-2.1,1c-0.9,0.1-1.4,0.6-2.1,0.9c-0.5,0.2-0.5,0.4-0.3,0.7c0.1,0.2,0.3,0.5,0.3,0.7c0.2,0.6,0.6,1,1,0.6
		c0.5-0.4,1.1-0.5,1.5-0.3c0.6,0.3,0.9,0.2,1.2-0.3c0.2-0.4,0.3-0.8,0.5-1.2l0.3-0.1c0.2,0.1,0.4,0.2,0.4,0.3
		C18.4,13,18.4,13.3,18.4,13.5z M25.5,146.2c-0.5-0.7-0.9-1.3-1.4-1.8c-0.8-0.8-1.4-0.7-2.3-0.1c-1.3,0.8-2.1,2.3-3.7,2.5l-0.1,0.3
		l0.2,0.3c0.8-0.1,1.7,0.3,2.5-0.3c1-0.7,2.3-0.7,3.4-0.3c0.3,0.1,0.4,0.1,0.6-0.1C25,146.7,25.2,146.5,25.5,146.2z M137,120.4
		c-0.2-0.2-0.5-0.6-0.7-0.6c-1.7,0.1-3.2-0.5-4.8-0.8c-2.1-0.4-4.2-0.9-6.2-1.6c-0.4-0.1-0.8-0.2-1.2-0.1c-0.3,0.1-0.5,0.4-0.8,0.6
		c0.2,0.2,0.4,0.5,0.7,0.6c0.6,0.2,1.2,0.1,1.8,0.3c1,0.3,2,0.9,3.1,1c1.1,0.1,2.2,0.5,3.3,0.4c0.7-0.1,1.6-0.3,2,0
		C135.2,121,136.1,120.5,137,120.4z M18.2,18.8c1.2-0.2,1.8-1,2.8-1c0.4,0,0.8-0.7,1.1-1.1l-0.2-0.5l-0.4,0c-2,0.2-3.8,1.3-5.6,1.9
		l-0.1,0.1c-0.1,0.2-0.1,0.5-0.1,0.7c0.2,0,0.5,0,0.7,0l0.3-0.2c0.1,0.2,0.2,0.4,0.2,0.6l-0.2,0.3c-0.3,0.8-0.2,0.8,0.6,0.8
		c0.6,0,1.2,0.1,1.7,0.3c0.4,0.1,0.7,0.3,0.8-0.2c0.1-0.3,0.3-0.8-0.4-1C18.9,19.4,18.7,19.1,18.2,18.8z M116,74.6
		c-0.3,0.7-0.2,1.3,0.3,1.5c1,0.4,1.6,1.4,2.5,2.1c0.3,0.2,0.7,0.6,1,0.6c0.7,0,1.1,0.4,1.6,0.7c1.1,0.6,2.3,1,3.6,1.6
		c-0.3-0.8-0.5-1.3-1.2-1.6c-0.8-0.3-1.6-0.7-2.1-1.3c-0.7-0.8-1.7-0.6-2.4-1.4C118.5,75.8,117.2,75.3,116,74.6z M202.6,33.5
		c-0.1-0.2-0.2-0.4-0.3-0.4c-1.2-0.7-2.3-1.3-3.5-2c-0.7-0.4-1.5-0.6-2-1.1c-1.2-1.1-3-1.2-4.3-2.1l-0.3,0.1l0,0.4
		c0.4,0.3,0.8,0.5,1.1,0.7c0.8,0.5,1.4,1.2,2.3,1.5c0.7,0.3,1.4,0.4,1.9,1c0.5,0.5,1.3,0.4,1.9,0.9c0.6,0.6,1.4,1.1,2.3,1.3
		C202.2,33.9,202.2,33.5,202.6,33.5z M16.9,38.9c1,0.1,1.7,0.2,2.2-0.4c0.3-0.3,0.7-0.7,1.1-0.7c1.7,0,1.8-1.7,2.7-2.6
		c0.1-0.1,0-0.5-0.2-0.7c-0.1-0.1-0.4-0.1-0.6-0.1c-0.2,0-0.4,0.1-0.5,0.2c-0.7,1.3-3.1,0.9-3,3l-0.3,0.1
		C17.9,38,17.5,38.4,16.9,38.9z M23.5,29.8l0.3-0.2c0.5-0.2,0.9-0.5,1.4-0.5c0.6,0,1-0.2,1.4-0.6c0.6-0.6,1.2-1.2,1.7-1.8
		c0.2-0.2,0.3-0.4,0.3-0.7c0-0.2,0-0.4-0.1-0.6l-0.5-0.1c-1.4,1-3.2,1.6-4.3,3c-0.3,0.4-0.4,0.7-0.4,1.1L23.5,29.8z M18.9,94
		c-0.2-0.2-0.3-0.4-0.5-0.5c-0.7-0.7-0.7-0.6-1.6-0.1c-0.8,0.4-1.7,0.7-2.3,1.5c-0.1,0.2-0.6,0-0.9,0c0.1-0.2,0.3-0.4,0.3-0.6
		c0-0.2-0.1-0.4-0.2-0.5l-0.5,0.1c-0.2,0.2-0.4,0.5-0.5,0.8c-0.1,0.4,0,0.8,0,1.2c0,0.8,0.2,0.8,0.8,0.5c0.6-0.3,1.2-0.8,1.8-1
		C16.4,94.9,17.6,94.5,18.9,94z M31.5,26.5L31.5,26.5c0.4,0,0.9,0.1,1.2-0.1c0.4-0.1,0.9-0.4,1-0.8c0.2-0.8,0.4-1.4,1.2-1.8l0.1-0.5
		c-0.3-0.6-1.1-0.9-1.5-0.4c-0.9,1-2.1,1.6-2.8,2.7c-0.1,0.2-0.2,0.5-0.2,0.5c0.2,0.2,0.4,0.2,0.6,0.3L31.5,26.5z M22.1,73.7
		c-0.8,0.5-1.5,0.9-2.2,1.2c-1.1,0.4-1.7,1.2-2.1,2.2c-0.1,0.2-0.1,0.5-0.2,0.7c0.3,0,0.8,0.3,0.9,0.1c0.8-0.9,2-1.2,3-1.7
		c0.3-0.1,0.4-0.6,0.5-1C22.2,74.8,22.1,74.4,22.1,73.7z M124.4,114.7c0.9,0.5,1.5,1.1,2.3,1.4c0.9,0.3,1.8,0.3,2.7,0.5
		c1,0.1,2,0.3,2.9,0.4c0.3,0,0.6,0,1.3-0.1c-1.7-0.6-3.1-1.5-4.5-1.5C127.6,115.4,126.4,113.9,124.4,114.7z M23.8,43.1
		c0-0.1-0.1-0.3-0.3-0.4c-0.1-0.1-0.4,0.1-0.5,0.2c-1.3,0.7-2.3,1.7-3,3c-0.1,0.2-0.4,0.4,0,0.6c0.2,0.1,0.3,0.4,0.6,0.1
		c0.2-0.2,0.6-0.1,0.9-0.2C22.6,46,23.8,44.4,23.8,43.1z M123.9,122.7c-0.6,0-1,0-1.4,0c-0.3,0-0.8-0.2-0.8,0.4
		c0,0.3,0.3,0.7,0.5,0.8c0.7,0.2,1.4,0.5,2,0.5c0.9,0,1.6,0,2.4,0.3c0.3,0.1,0.6,0.1,1,0.2l0.2-0.3l-0.1-0.4
		C126.5,123.7,125.4,122.2,123.9,122.7z M21.7,71c-0.1-0.8-0.5-0.9-1.4-0.6c-1.2,0.4-1.7,1.5-2.6,2.2l-0.2,0.5
		c0.2,0.1,0.5,0.3,0.7,0.3c0.9-0.3,1.8-0.6,2.6-1.1C21.3,72,21.8,71.7,21.7,71z M6.1,107c0.4,0,0.7,0.1,0.8,0c1-0.8,2-1.6,1.9-3.1
		c0-0.5,0-1,0.2-1.4c0.2-0.5,0.5-1.1-0.1-1.3c-0.7-0.2-0.3,0.8-0.8,1c-0.1,0,0,0.6-0.1,0.8c-0.7,0.8-0.1,2.4-1.6,2.6
		c-0.2,0-0.3,0.5-0.4,0.8C5.9,106.6,6.1,106.8,6.1,107z M46,35.7c0.3-0.3,0.9-0.4,1-0.8c0.4-0.9,1.3-1.2,1.9-1.8
		c0.3-0.3,0.8-0.5,1.1-0.8c0.2-0.1,0.2-0.5,0.3-0.7c-0.2,0-0.5-0.2-0.7-0.1c-1,0.6-1.9,1.3-2.9,2c-0.5,0.4-1.1,0.6-1.3,1.3
		c0,0.2-0.2,0.4-0.1,0.5C45.4,35.5,45.7,35.6,46,35.7z M26.9,34c0.6,0.2,0.9-0.3,1.4-0.6c0.9-0.6,0.8-1.6,1.2-2.4l-0.3-0.4
		c-0.2,0-0.6-0.1-0.8,0.1c-0.7,0.7-1.6,1.4-2,2.4C26.2,33.8,26.2,34,26.9,34z M8.2,14c1.5,0.1,2.4-0.6,3.1-1.5L11.1,12
		c-0.4-0.1-0.9,0.1-1.3-0.4c0,0-0.5,0.2-0.8,0.4c-0.5,0.4-1,0.8-1.6,1.1c-0.5,0.3-0.2,0.6,0.1,0.7C7.9,14,8.2,14,8.2,14z
		 M88.3,127.6c-0.2,0.2-0.4,0.3-0.7,0.5c0.2,0.1,0.3,0.3,0.5,0.4c0.3,0.2,0.6,0.4,0.8,0.4c0.9,0,1.7,0.3,2.3,1l0.3,0.3
		c0.5,0.2,1.4-0.2,1.4-0.7c0.1-0.7-0.5-0.4-0.8-0.5c-0.2,0-0.3-0.2-0.5-0.3C90.6,128.3,89.5,128,88.3,127.6z M26.3,37.7
		c0-0.8-0.3-1.1-1.1-0.8c-0.8,0.3-1.5,0.9-1.7,1.7c-0.1,0.3,0.1,0.7,0.1,1.1c0.3-0.1,0.6-0.3,0.8-0.4c0.3-0.1,0.6-0.3,0.9-0.4
		C26,38.8,26.3,38.4,26.3,37.7z M42.1,89.1c0,0.3-0.2,0.7-0.1,0.9c0.3,0.9,1.4,1.2,1.7,2.2c0.1,0.3,0.6,0.4,1,0.6
		c0.1,0.1,0.4,0,0.6-0.1c0-0.2,0-0.5-0.1-0.7c-0.4-0.5-0.9-0.9-1.2-1.6c-0.2-0.5-0.8-0.9-1.3-1.3C42.6,89.1,42.4,89.1,42.1,89.1z
		 M38.3,20.5c0-0.4,0-0.8,0-1.3c0-0.5-0.5-0.9-0.9-0.6c-0.8,0.4-1.5,0.9-2.5,0.8l-0.3,0.4l0.3,0.4C36,20.4,37.1,20.4,38.3,20.5z
		 M16.3,151.8c1.3,0.1,2.2-0.7,3.2-1.3l0.1-0.5l-0.5-0.2c-1.1,0.6-2.2,0.9-3.4,0.8c-0.1,0-0.2,0.4-0.2,0.7c0,0.2,0.1,0.4,0.2,0.5
		C15.8,151.8,16.1,151.8,16.3,151.8z M22.5,63.9c-0.6-0.1-1.2-0.3-1.7,0.2c-0.5,0.5-0.9,1.1-1.2,1.8c-0.2,0.5,0.3,0.5,0.7,0.4
		C21.5,66,22.4,65.4,22.5,63.9z M14.7,92.3l0.2,0.1c1.6,0.3,2.1-1.8,3.7-1.7l0.2-0.3l0.1-0.4c0.1-0.2,0.2-0.3,0.3-0.4
		c-0.2,0-0.4-0.1-0.6-0.1C17.1,90.2,15.6,90.8,14.7,92.3z"/>
	<path class="st0" d="M293.8,15.2c-2-0.8-4-1.4-5.9-2.3c-0.3-0.2-0.8-0.1-1.2-0.1c-0.3,0-0.9,0.1-1-0.1c-0.8-1.2-2-0.6-3-0.8
		c-0.8-0.1-1.7-0.1-2.3-0.5c-0.7-0.4-1.3-0.3-1.9-0.4c-0.9-0.1-1.8,0.3-2.8-0.4c-0.7-0.4-1.8,0.3-2.5-0.5l-0.2,0
		c-1.8,0.3-3.6-0.4-5.4-0.4c-2.6-0.1-5.3-0.6-7.9-0.4c-0.7,0-1.4-0.3-2.1-0.4c-0.7-0.1-1.3,0.1-1.9-0.4l-0.4,0
		c-2.5,0.2-4.8-0.7-7.3-0.4c-0.2,0-0.4-0.1-0.6-0.1l-0.1-0.4l0.2-0.3c1.8,0.9,3.7,0,5.4,0.4c1.7,0.4,3.4,0.1,5,0.5
		c1.4,0.3,2.7,0.2,4,0.3c1,0.1,2,0.3,2.9,0.4c0.9,0.1,1.8,0.1,2.7,0.3c1.4,0.3,2.9,0.2,4.3,0c1.1-0.1,1.9,0.4,2.9,0.5
		c1,0.1,2-0.4,2.9,0.4c0.1,0.1,0.4,0,0.6,0c1.4-0.2,2.8,0.2,4,0.9c0.5,0.3,0.9,0.4,1.4,0.1c0.6-0.3,1.2-0.1,1.8,0.2
		c1.1,0.5,2.3,0.8,3.6,1c1.7,0.2,3.2,1,4.5,2.2C293.9,14.7,293.8,15,293.8,15.2z"/>
	<path class="st0" d="M110.6,33.6c1.1,0.2,2.1,0.6,2.9,1.4c0.3,0.3,0.7,0.6,1,0.5c1.7-0.3,2.8,1,4.1,1.7c0.5,0.2,1,0.8,1.5,0.8
		c1,0.1,1.3,0.7,1.7,1.5c0.3,0.7,0.1,1.1-0.6,1c-0.6-0.1-1.3-0.2-1.8-0.6c-0.6-0.4-1.3-0.7-1.6-1.5c-1,0.2-1.4-0.7-2-1.2
		c-0.2-0.1-0.3-0.4-0.4-0.4C113.2,36.6,111.9,35.1,110.6,33.6z"/>
	<path class="st0" d="M73.1,68.4c-1,0.6-1.3-0.8-2-1.1c-1-0.5-1.3-1.7-2.3-2.3c0-1.2-1-1.4-1.8-1.9c-0.7-0.6-1.7-1.1-2-2.2
		c-0.1-0.4-1-0.6-0.4-1.1c0.2-0.2,0.9,0.1,1.2,0.3c0.6,0.5,1.2,1.1,1.8,1.7c0.4,0.4,0.9,1.1,1.4,1.1c0.8,0.1-0.4,1.2,0.7,1
		c0.4-0.1,0.9,0.5,1.3,0.8c0.5,0.3,1.1,0.6,1.4,1c0.5,0.9,1.2,1.3,1.9,1.9c0.1,0.1,0.1,0.4,0.1,0.5l-0.3,0.2
		C73.8,68.4,73.5,68.4,73.1,68.4z"/>
	<path class="st0" d="M96.3,51.1c0.5-0.2,0.9-0.6,1.3-0.5c1.6,0.5,3.5,0.7,4.6,2.2c0.5,0.6,1.1,0.8,1.8,1.1c0.1,0,0.3,0.3,0.2,0.5
		c0,0.1-0.2,0.3-0.4,0.3c-0.8,0.2-1.6-0.4-2.3,0.4c0,0-0.4-0.4-0.6-0.4c-0.9,0.2-1.4-0.4-1.9-0.9C98.1,52.9,97.3,52.1,96.3,51.1z"/>
	<path class="st0" d="M245.3,7.8c-2.8,0-5.6,0.2-8.4-0.1c-1.3-0.1-2.7-0.1-4-0.4c-2.6-0.7-5.3-0.2-7.9-0.4c-0.4,0-0.8-0.3-1.2-0.6
		c1.3-0.2,2.6-0.5,3.9,0.1c0.3,0.1,0.7,0.1,1,0.1c3.7-0.1,7.5,0.7,11.2,0.4C241.6,7.7,243.4,7.3,245.3,7.8z"/>
	<path class="st0" d="M85.1,50.4c0.7-0.4,1.1-0.5,1.8,0c1,0.7,1.8,1.7,3.1,2c0.6,0.2,1.2,1,1.3,1.7c0.1,0.7,0.7,0.5,0.9,0.9
		c-0.2,0.1-0.5,0.1-0.7,0.3c-0.7,0.6-1.2,0.4-1.7-0.2l-0.3-0.3C88.1,53.3,86.6,51.8,85.1,50.4z"/>
	<path class="st0" d="M68.8,73c0.5,0.2,1.6,0.4,2,0.9c0.4,0.5,1,1,1.2,1c0.9-0.1,0.5,1,1.2,1c0.4,0,0.7,0.6,1,0.9l0,0.5
		c-0.1,0.1-0.4,0.2-0.5,0.1c-0.2,0-0.3-0.4-0.4-0.4c-1.8,0.5-2.9-1-4.2-1.8c-0.6-0.4-1-1.2-1.4-1.9L68,73C68.1,72.9,68.4,73,68.8,73
		z"/>
	<path class="st0" d="M256.2,30.2c0.1-1,0.2-1.7,0.4-2.5c0.1-0.5,0.3-1,0.4-1.5c0.1-0.5,0-1,0-1.4l0.3-0.4l0.4,0.1
		c0.3,0.4,0.8,0.8,0.8,1.3c0.1,1.2,0.1,2.5,0.1,3.7c0,0.3-0.5,0.6-0.9,0.7C257.2,30.3,256.7,30.2,256.2,30.2z"/>
	<path class="st0" d="M62.2,75.3c-0.6-0.1-0.6,1-1.2,0.3l-0.1-0.1c-2,0.6-3-0.9-4.1-2.1c-0.4-0.4-0.7-0.9-1.1-1.4
		c0.6-0.2,1.1,0.3,1.8,0.2c0.2-0.1,0.5,0.1,0.7,0.2C59.5,73.3,60.7,74.2,62.2,75.3z"/>
	<path class="st0" d="M70.7,55.7c-0.4-0.2-0.8-0.3-1-0.5c-0.7-0.9-2.1-1.2-1.9-2.7c-0.8-0.9-1.6-1.8-2.3-2.7
		c-0.1-0.2-0.1-0.5-0.1-0.7c0.2,0,0.6,0,0.7,0.1c0.9,0.9,2,1.6,2.1,3c0,0.2,0.3,0.4,0.4,0.5c0.7,0.4,1.4,0.8,2.1,1.3
		c0.2,0.1,0.4,0.2,0.5,0.4c0.1,0.3,0.3,0.6,0.2,0.9C71.4,55.4,71,55.5,70.7,55.7z"/>
	<path class="st0" d="M46.7,78c0.7,0.3,1.3,0.8,2.1,0.8c0.2,0,0.5,0.1,0.7,0.2c1.1,0.9,2.2,1.9,3.5,3.1c-0.9,0-1.5,0-2.2,0
		C50,82,49.4,81.8,49,81c-0.4-0.7-1.2-1.3-1.9-1.8C46.7,78.8,46.7,78.9,46.7,78z"/>
	<path class="st0" d="M54,76c1.9-0.7,3,0.6,4.3,1.4c0.3,0.2,0.6,0.6,0.9,0.8c0.4,0.3,0.9,0.5,1.4,0.7c-0.5,0-1.1,0-1.6,0.2
		c-1.3,0.3-2.1-0.5-3-1.2C55.3,77.5,54.7,76.7,54,76z"/>
	<path class="st0" d="M73,72.5c-1.1,0.1-1.9-0.7-2.8-1.2c-0.4-0.2-0.7-0.7-1-1c-0.5-0.4-0.7-0.9-0.5-1.4c0.2-0.4,1.4-0.2,1.8,0.2
		c0.9,1,2,1.8,3.1,2.5c0.2,0.1,0.3,0.3,0.5,0.5c-0.2,0.1-0.4,0.2-0.6,0.3L73,72.5z"/>
	<path class="st0" d="M162.8,37.7c0,0.2,0.1,0.5,0,0.6l-0.5,0.2c-0.4-0.3-1-0.7-1.1-1.1c-0.4-1.2-1.3-2-2.1-2.8
		c-0.4-0.5-0.8-1-1.2-1.6l0.1-0.5l0.5-0.1c0.6,0.8,1.6,1.3,2,2.3c0.2,0.5,0.5,1.2,1.4,1c0.8-0.2,0.5,0.8,1,1.1
		C162.9,36.8,162.8,37.3,162.8,37.7z"/>
	<path class="st0" d="M67.8,76.2c-2,0.5-3.3-0.4-4.4-1.5c-0.4-0.4-0.9-0.9-1.3-1.3L62,72.8c0.1-0.1,0.3-0.2,0.5-0.2
		c1.2-0.2,1.7,0.8,2.5,1.3c0.6,0.3,1,1,1.5,1.4C66.9,75.5,67.3,75.8,67.8,76.2z"/>
	<path class="st0" d="M114.2,9.8c0.7-0.5,1.4-0.8,2.2-0.7c0.5,0.1,1,0,1.5-0.4c1.4-1.2,3.3-0.9,4.9-1.7c0.4,0.7,0.8,0.4,1.3,0
		c0.1-0.1,0.6,0.4,0.9,0.6c-0.3,0.2-0.5,0.6-0.8,0.6c-0.7,0.1-1.4,0-2.1,0c-1.5,0-2.8,0.4-4.1,1C116.8,9.8,115.6,10.1,114.2,9.8z"/>
	<path class="st0" d="M63.1,67.9c0.6,0.4,1.1,0.6,1.6,1c0.9,0.8,1.6,1.8,2.8,2.4c0.2,0.1,0.2,0.5,0.3,0.7c-0.2,0.1-0.6,0.3-0.7,0.2
		c-0.8-0.4-1.8-0.4-2.4-1.2c-0.4-0.5-1-0.8-1.5-1.3c-0.2-0.2-0.3-0.5-0.5-0.8l0-0.4C62.7,68.2,62.9,68.1,63.1,67.9z"/>
	<path class="st0" d="M77.1,32.3c-0.7,0-1.2,0.2-1.5,0c-1.3-0.8-2.7-1-4.1-1.6c-0.6-0.3-0.5-0.5-0.2-0.9c0.5-0.6,1.2-0.4,1.8-0.2
		C75,30.2,75,30.2,77.1,32.3z"/>
	<path class="st0" d="M134.5,34c0.4,0,0.7-0.1,0.9,0c1.8,1.1,3.4,2.3,4.4,4.2c0.1,0.2,0,0.5,0,0.7c-0.2,0-0.5,0-0.7-0.1
		c-0.9-0.7-1.8-1.4-2.6-2.2C135.8,35.8,135.2,34.9,134.5,34z"/>
	<path class="st0" d="M95.7,49.7c-1.7-0.1-2.6-1.3-3.5-2.4c-0.3-0.4,0.1-0.9,0.6-0.9c0.5,0,0.9,0,1.3,0.4c0.7,0.7,1.3,1.5,2.3,1.9
		c0.2,0.1,0.2,0.4,0.4,0.7c-0.2,0.1-0.4,0.2-0.7,0.3L95.7,49.7z"/>
	<path class="st0" d="M76,27.1c0.7-0.5,1.2-1,1.9-1.4c0.3-0.2,0.9-0.2,1.2,0c0.9,0.6,2.2,0.7,2.8,2c-1.1,0-2.1-0.1-3.1,0
		C77.8,27.9,77,27.3,76,27.1z"/>
	<path class="st0" d="M82.8,60.3c-1.8,0.5-2.9,0-3.8-1.2c-0.2-0.2-0.4-0.4-0.6-0.6c-0.3-0.4-1-0.7-0.7-1.1c0.3-0.5,1.1-0.4,1.6-0.1
		c0.4,0.2,0.8,0.4,1.1,0.7c0.4,0.3,0.6,0.8,1,1.1C81.8,59.6,82.3,59.9,82.8,60.3z"/>
	<path class="st0" d="M55.7,70.3c-0.4,0.3-0.6,0.8-1.3,0.5c-1.6-0.8-2.5-2.3-3.7-3.4l0-0.4l0.5-0.2c0.7,0.5,1.8,0.5,2.4,1.4
		C54.2,68.9,55,69.5,55.7,70.3z"/>
	<path class="st0" d="M88.7,61c-0.3,0.2-0.6,0.4-0.6,0.3c-1-0.9-2.8-0.5-3.5-2c-0.2-0.3-0.9-0.4-1.4-0.6c-0.2-0.1-0.5-0.4-0.4-0.6
		c0.1-0.2,0.4-0.5,0.6-0.5c0.9,0,2.1,0.2,2.4,0.9c0.5,1.1,1.6,1.3,2.3,2C88.2,60.7,88.4,60.8,88.7,61z"/>
	<path class="st0" d="M79.8,49.8c1-0.3,1.6,0.3,2.3,0.8c0.9,0.6,1.3,1.7,2.4,2.1c0.5,0.1,0.1,0.4-0.1,0.5c-0.6,0.4-1.4,0.4-1.8,0
		C81.6,52.1,80.4,51.3,79.8,49.8z"/>
	<path class="st0" d="M85.7,25.6c-0.9-0.1-1.6,0.2-2.4-0.3c-0.6-0.4-1.6-0.1-2.4-0.1l-0.2-0.3l0.1-0.4c1-0.7,2.1-1.4,3.3-0.9
		C84.7,23.9,85.4,24.5,85.7,25.6z"/>
	<path class="st0" d="M86.2,54.7c0.6-0.2,1.1,0.2,1.6,0.7c0.3,0.4,0.7,0.7,1,1c0.3,0.3,0.8,0.6,0.4,1c-0.3,0.3-0.9,0.3-1.3,0.1
		c-0.5-0.2-1-0.7-1.5-1c-0.3-0.2-0.7-0.4-1-0.6c-0.3-0.3-0.7-0.6-0.7-0.9c0-0.6,0.6-0.2,1-0.3C85.9,54.7,85.9,54.7,86.2,54.7z"/>
	<path class="st0" d="M76,59.5l-0.2,0.2c-0.7,0-1.7,0.2-2.2-0.2c-0.8-0.6-1.4-1.6-2.1-2.4l0.2-0.4c0.2-0.1,0.5-0.4,0.7-0.3
		c0.5,0.2,0.9,0.5,1.3,0.8C74.6,57.9,75.3,58.7,76,59.5z"/>
	<path class="st0" d="M66,32.2c0.4,0.1,0.7,0.1,0.8,0.2c1.4,1.4,2.9,2.6,4,4.3c0.4,0.6,0.6,1.3,0.5,2c-0.9-1-2.1-2-2.9-3.2
		C67.7,34.4,66.8,33.5,66,32.2z"/>
	<path class="st0" d="M144.9,38.3l-0.2,0.3c-0.4,0.5-0.9,0.5-1.4,0.1c-0.5-0.3-0.7-1.1-1.4-1c-0.2-1-1.2-1.1-1.7-1.7l-0.1-0.5
		l0.5-0.2c0.9,0.4,2,0.6,2.5,1.3c0.5,0.6,1.3,0.8,1.7,1.5L144.9,38.3z"/>
	<path class="st0" d="M48,75.1c1.9-0.3,3.2,0.1,4,1.6c0.2,0.3,0.6,0.4,0.8,0.7l0.2,0.6c-0.1,0.1-0.4,0.3-0.6,0.2
		c-0.6-0.1-1.2-0.1-1.7-0.4c-0.6-0.4-1.3-1-1.6-1.6C49,75.7,48.6,75.5,48,75.1z"/>
	<path class="st0" d="M68.2,67.8C68,67.8,67.9,68,67.7,68C67,68,66.4,67.7,66,67.2c-0.8-0.8-1.5-1.7-2.2-2.6l0-0.4
		c0.2-0.1,0.5-0.3,0.6-0.2c0.6,0.4,1.1,0.9,1.7,1.3c0.8,0.5,1,1.7,2,2C68.2,67.3,68.1,67.6,68.2,67.8z"/>
	<path class="st0" d="M53.7,74.8c-0.6-0.3-1.3-0.5-1.9-0.9c-0.6-0.4-1.1-1-1.6-1.6c-0.2-0.2-0.2-0.6-0.2-0.8c0.3,0,0.6-0.2,0.8-0.1
		c0.6,0.3,1.1,0.7,1.6,1c0.6,0.4,1.1,0.9,1.7,1.4c0.2,0.1,0.3,0.4,0.4,0.6C54.3,74.5,54.1,74.6,53.7,74.8z"/>
	<path class="st0" d="M82.4,56.8c-1.6,0-2.1-0.3-2.6-1.7c-0.1-0.3-0.4-0.5-0.6-0.8c-0.3-0.3-0.2-0.4,0.2-0.4c1.1-0.1,2,0.1,2.5,1.2
		c0.1,0.3,0.3,0.6,0.5,0.8c0.3,0.2,0.9,0.1,0.7,0.7C83,56.7,82.5,56.7,82.4,56.8z"/>
	<path class="st0" d="M49.6,70.6c-0.9-0.5-1.6-0.9-2.1-1.3c-0.6-0.5-1-1.1-1.4-1.7c-0.1-0.1-0.2-0.3-0.2-0.5c0-0.2,0.1-0.5,0.2-0.7
		l0.5,0.1c0.4,0.3,1.1,0.3,1,1c1,0,0.8,1.5,1.9,1.5C49.4,69,49.5,69.8,49.6,70.6z"/>
	<path class="st0" d="M98.9,42.6c0.5,0.6,1.3,0.4,2,0.5c0.2,0,0.4,0.2,0.5,0.3c0.6,0.6,1.3,1.3,1.9,1.9l0,0.5l-0.5,0.1
		c-0.5-0.6-1.1-1-2-0.9c-0.2,0-0.4-0.6-0.7-0.8c-0.5-0.4-1.1-0.6-1.7-1c-0.1-0.1-0.1-0.4,0-0.5C98.5,42.8,98.7,42.7,98.9,42.6z"/>
	<path class="st0" d="M61.5,71.2c-1.5,0.4-2.4-0.6-3.3-1.5c-0.1-0.1-0.2-0.3-0.2-0.5c-0.3-0.5-1.4-0.9-0.8-1.5
		c0.6-0.6,0.9,0.9,1.6,0.7C59.7,69.3,60.6,70.2,61.5,71.2z"/>
	<path class="st0" d="M94,61.6c-0.9,0.2-1.5,0.2-2.1-0.4c-0.9-0.8-2-1.5-3-2.2c-0.2-0.1-0.5-0.3-0.1-0.6c0.2-0.1,0.4-0.2,0.6-0.2
		c0.7,0.2,1.3,0.4,1.9,1C92,60.1,93,60.8,94,61.6z"/>
	<path class="st0" d="M142.9,33.9c0.3,0,0.5,0,0.5,0.1c0.4,0.3,0.7,0.6,1,1c0.6,0.8,1.3,1.5,1.9,2.3l0.2,0.5
		c-0.2,0.1-0.4,0.3-0.7,0.3c-0.2,0-0.5-0.1-0.7-0.3c-0.8-0.9-1.6-1.8-2.3-2.7C142.7,34.8,142.9,34.3,142.9,33.9z"/>
	<path class="st0" d="M151.5,36.1l-0.2,0.3l-0.4,0c-0.5-0.6-1.3-1-1.5-1.8c-0.2-0.5-0.6-1-1-1.4c-0.4-0.4-0.2-0.7,0.1-1
		c0.4-0.4,0.7-0.3,1,0c0.2,0.3,0.7,0.5,0.7,0.7c-0.3,1.3,0.4,2.2,1.3,3L151.5,36.1z"/>
	<path class="st0" d="M74.5,53.4c1,0.1,1.7,0.3,2.1,1.2c0.2,0.4,0.7,0.7,1,1l0.1,0.5c-0.1,0.1-0.3,0.2-0.5,0.2c-0.5,0-1,0-1.4-0.5
		c-0.5-0.6-1.1-1.1-1.6-1.6L74,53.8C74.1,53.6,74.4,53.5,74.5,53.4z"/>
	<path class="st0" d="M95.9,45.3c-0.3-0.2-0.7-0.4-1.1-0.6c-0.5-0.4-0.9-0.9-1.4-1.1c-0.7-0.3-0.5-0.8-0.3-1.1
		c0.2-0.4,0.6,0.1,0.8,0.1c1-0.1,1.4,0.9,2.2,1.1c0.2,0,0.4,0.2,0.4,0.4c0.1,0.3,0.2,0.7,0.1,0.9C96.7,45.1,96.3,45.1,95.9,45.3z"/>
	<path class="st0" d="M61.5,67.2c-0.3-0.2-0.7-0.2-1-0.5c-0.8-0.8-1.5-1.7-2.2-2.6c-0.1-0.1-0.1-0.4-0.1-0.6c0.2,0,0.5-0.1,0.7-0.1
		c0.2,0,0.6,0.1,0.7,0.3c0.4,1.3,1.7,1.6,2.5,2.4c0.2,0.2,0.2,0.5,0.3,0.7C62.1,67,61.8,67.1,61.5,67.2z"/>
	<path class="st0" d="M47.5,62.2c0.2,0.1,0.3,0.2,0.4,0.3c0.9,0.3,1.4,1,2,1.6c0.3,0.4,0.5,0.9,0.7,1.4c-0.5,0.1-0.9-0.3-1.3-0.3
		c-1.4-0.1-1.3-1.5-2.3-2C47,63.2,47.3,62.5,47.5,62.2z"/>
	<path class="st0" d="M78.6,29.7c-1.8,0.4-3.3-0.6-4.9-0.8l-0.2-0.5c0.5-0.2,1.2-0.8,1.5-0.6C76.2,28.3,77.7,28.4,78.6,29.7z"/>
	<path class="st0" d="M89.1,48.9c-1.3,0.2-1.7-1-2.4-1.6c-0.5-0.4-0.3-0.7,0.2-1.1c0.4-0.3,0.6-0.2,0.9,0.1c0.6,0.6,1.1,1.2,1.8,1.7
		c0.2,0.2,0.7,0,0.7,0.5C90,49.2,89.5,48.7,89.1,48.9z"/>
	<path class="st0" d="M74.3,52.3c-1.1-0.2-2,0-2.4-0.4c-0.7-0.6-1.2-1.5-1.7-2.4c-0.1-0.1,0.1-0.5,0.2-0.7l0.5,0.2
		C72,50,73,51,74.3,52.3z"/>
	<path class="st0" d="M79.4,52.4c-0.5,0.5-0.8,1-1.4,0.3c-0.2-0.3-0.8-0.3-0.9-0.6c-0.2-0.7-0.8-1.1-1.2-1.6
		c-0.1-0.2-0.2-0.5-0.2-0.7c0-0.2,0.1-0.4,0.2-0.5l0.5,0.1C77.4,50.4,78.3,51.4,79.4,52.4z"/>
	<path class="st0" d="M63.6,63c-1.1,0.2-1.8-0.2-2.4-0.9c-0.6-0.7-1.2-1.4-1.7-2.2c-0.1-0.1,0-0.4,0.1-0.5l0.4-0.1
		c0.5,0.4,1.3,0.6,1.5,1.1c0.2,0.8,0.9,0.7,1.3,1.1C63.1,61.9,63.2,62.4,63.6,63z"/>
	<path class="st0" d="M94.4,38.6c0.2,0,0.5-0.1,0.6,0c1,1.1,2.1,2,3.4,2.6c0.2,0.1,0.3,0.3,0.4,0.4l0,0.4l-0.5,0.2
		C97,41.9,96,41.1,95.2,40C94.9,39.6,94.7,39.1,94.4,38.6z"/>
	<path class="st0" d="M95.8,16.9c0.7-0.7,1.1-1.5,2-1.2c0.8-0.8,1.4-0.4,2,0.3c0.2,0.2,0.2,0.5,0.3,0.7c-0.2,0.1-0.5,0.2-0.7,0.2
		C98.3,17,97.2,16.9,95.8,16.9z"/>
	<path class="st0" d="M105.7,39.1c0.7,0.4,1.5,0.5,1.8,1c0.5,0.8,1,1.5,2,1.8l0.1,0.5l-0.5,0.2c-1.3-0.8-2.7-1.5-3.6-2.7
		C105.4,39.8,105.6,39.5,105.7,39.1z"/>
	<path class="st0" d="M69.8,59.3c-1.8-0.4-2.6-1.7-3.6-2.7c-0.1-0.1,0-0.4,0-0.5l0.3-0.1c0.3,0,0.6,0,0.7,0.2
		C68.2,57.1,69.3,57.8,69.8,59.3z"/>
	<path class="st0" d="M81.4,45.6l0.2,0c1,0.8,2,1.6,2.9,2.5c0.1,0.1,0.1,0.5,0.2,0.7c-0.3,0-0.8,0.2-0.9,0.1
		c-0.5-0.6-1.4-0.7-1.7-1.5c-0.1-0.5-0.7-0.8-1.1-1.2l0-0.4L81.4,45.6z"/>
	<path class="st0" d="M55.9,66.4c-0.4-0.1-0.7-0.1-0.9-0.3c-0.5-0.5-0.9-1-1.3-1.5c-0.3-0.3-0.5-0.7-0.8-0.8
		c-0.5-0.1-0.6-0.4-0.4-0.7c0.2-0.2,0.8-0.3,0.9-0.2c1,0.9,1.8,1.8,2.7,2.8C56.2,65.9,56,66.2,55.9,66.4z"/>
	<path class="st0" d="M100.2,38.4c0.3,0.1,0.5,0.1,0.7,0.3c1,0.8,1.6,2,2.9,2.5l0,0.4l-0.5,0.2c-1.3-0.7-2.6-1.5-3.6-2.7l0-0.4
		C99.8,38.6,100,38.6,100.2,38.4z"/>
	<path class="st0" d="M67.8,38.9c-0.4,0-0.8,0.1-1,0c-1.3-1.2-2.4-2.7-3.4-4.2l0-0.3l0.4-0.1l0.3,0.2c0.5,0.8,1,1.7,2,2
		C66.2,37.7,67.3,37.9,67.8,38.9z"/>
	<path class="st0" d="M110.5,46.4l-0.1,0.3c-0.2,0.1-0.5,0.2-0.6,0.1c-0.8-0.7-2.1-0.7-2.8-1.6c-0.1-0.2-0.2-0.5-0.1-0.7l0.5-0.1
		c1,0.6,2.3,0.8,3.1,1.9L110.5,46.4z"/>
	<path class="st0" d="M61.3,56c0.4,0,0.7-0.1,0.8,0c0.8,0.7,1.5,1.4,2.2,2.2l-0.1,0.3l-0.4,0.3c-1.1-0.5-2.1-1.2-2.6-2.3L61.3,56z"
		/>
	<path class="st0" d="M60.1,47.9c1,0.6,1.5,1.4,2.3,2c0.3,0.3,0.6,0.6,0.4,1.1l-0.1,0.3c-0.2,0.1-0.4,0.1-0.5,0
		c-0.8-0.8-1.7-1.5-2.2-2.6C59.8,48.5,60,48.3,60.1,47.9z"/>
	<path class="st0" d="M171,67.3c-0.3,2-1.1,4.2-2.7,6.1c-0.3,0.3-0.6,0.6-1,0.2c-0.4-0.4-0.7-0.7-0.1-1.1c0.6-0.4,0.4-0.9,0.6-1.4
		c0.5-1.2,1.3-2.2,1.8-3.4c0.2-0.6,0.7-1.1,0.6-1.8l0.4-0.3l0.4,0.3C171.1,66.2,171,66.5,171,67.3z"/>
	<path class="st0" d="M160.6,66.3l-0.4-0.3c0.2-0.9-0.5-1.2-0.9-1.7c-0.7-0.9-1.3-1.8-1.9-2.7c-0.9-1.5-1.7-3-2.8-4.4l0-0.4l0.4,0
		c0.3,0.3,0.6,0.5,0.9,0.9c0.9,1.4,1.9,2.7,3.1,3.9c0.9,1,1.4,2.2,2.3,3.2C161.8,65.2,161.4,66.2,160.6,66.3z"/>
	<path class="st0" d="M221.1,61c-0.1,1,0.3,2-0.2,3.1c-0.4,0.7-0.1,1.8-0.1,2.7l-0.3,0.4c-0.2,0-0.5-0.1-0.5-0.2c0-0.7-1-1.3-0.1-2
		C219.7,63.5,220.7,62.3,221.1,61z"/>
	<path class="st0" d="M38.7,130.3c0.2,0.6-0.3,1.4,0.3,2.2c0.2,0.3-0.1,1.3-0.5,1.7c-0.2,0.3-0.8,0.4-1.5,0.2
		c-1.3-0.4-2.2,0.5-2.5,1.7c-0.1,0.5-0.4,1.1-0.7,1.6c-0.2,0.3-0.6,0.5-0.9,0.7c-0.4-0.6-1.4-0.1-1.7-0.9c-0.3-0.9-0.7-1.8-0.9-2.7
		c-0.2-1.2-0.3-2.5-0.4-3.8c0-0.3-0.2-0.6-0.3-0.9c-0.1-0.4-0.2-0.9-0.1-1.2c0.7-1.8,1.5-3.7,3.5-4.5c0.3-0.1,0.8-0.5,0.8-0.4
		c0.3,0.3,0.8,0.3,1.1,0.4c1,0.5,2.1,1,2.7,1.8c0.5,0.6,1.1,1.5,1,2.5C38.7,129.2,38.7,129.6,38.7,130.3z M30.8,131.5
		c0,0.4,0,0.7,0,1.1c0,0.6,0.4,0.9,1,1c0.6,0.1,0.5-0.5,0.7-0.7c0.6-0.6-0.2-1.1,0-1.3c0.5-1,0.2-2.2,1-3.1c0.4-0.4,0.7-0.9,0.9-1.5
		c0.1-0.2,0-0.8-0.2-0.9c-0.2-0.1-0.7-0.1-0.9,0.1C31.9,127.6,30.7,129.2,30.8,131.5z"/>
	<path class="st0" d="M44.8,30.7c-0.7,1.1-1.3,2.1-2,3.2c-0.4,0.7-1,0.9-1.7,0.9l-0.2-0.3l0.1-0.1c0.9-1.5,2.1-2.7,3.6-3.7
		L44.8,30.7z"/>
	<path class="st0" d="M194.6,97.1c0.5,0.7-0.1,1.1-0.3,1.6c-0.6,1.5-0.9,3.1-1.6,4.5c-0.3,0.5-0.6,0.9-1.2,0.8
		c-0.8-0.1-1.5,0.2-2.4-0.3c-0.6-0.4-1.6-0.1-2.4-0.1c-0.2,0-0.6-0.2-0.6-0.3c0-0.3,0.1-0.9,0.2-0.9c0.9,0.1,0.7-0.9,1.1-1.2
		c0.5-0.3,0.7-0.9,1-1.4c0.3-0.5,0.7-1,1-1.4l0.3-0.3c0.4-0.1,0.7-0.2,1.1-0.2c0,0.4,0.1,0.8,0,1.1c-0.3,0.8-0.7,1.5-1,2.3
		c-0.1,0.2-0.1,0.4-0.1,0.6c0,0.2,0.1,0.4,0.2,0.5c0.2-0.1,0.5-0.1,0.6-0.3c1.3-1.6,2.5-3.2,3.7-4.9L194.6,97.1z"/>
	<path class="st0" d="M173,86.6c0.2,0.3,0.4,0.7,0.5,1c0.2,0.8-0.4,1.4-0.4,2.1c0,0.8-0.5,1.2-0.9,1.7c-0.1,0.1-0.3,0.3-0.4,0.5
		c-0.5,0.9-0.5,2.1-1.7,2.7c-0.9,0.4-1.4,1.5-2.1,2.3c-0.3,0.3-0.6,0.4-1,0.6c-0.3,0.1-0.7,0.4-0.8,0.3c-0.4-0.3-0.7-0.6-1-1
		l0.2-0.5c0.3-0.3,0.7-0.6,1.1-0.8c0.6-0.4,1.2-0.8,1.8-1.2c0.5-0.4,1-0.8,1.5-1.2c0.5-0.5,0.9-1.1,1.4-1.7l1.1-2.9
		c0.1-0.3,0.3-0.6,0.4-0.9c0.1-0.2,0-0.5,0-0.8L173,86.6z"/>
	<path class="st0" d="M160.3,91.6c-0.6,0-1.2,0.1-1.9,0c-0.5-0.1-0.8-0.9-0.4-1.3c1.3-1.2,2.6-2.6,4.1-3.6c0.7-0.5,0.8-1.1,1.1-1.6
		c0.5-0.7,1.4-0.8,1.8-0.1c0.3,0.4,0.3,0.9-0.2,1.3c-0.5,0.4-0.5,1.1-1.3,1.4c-0.5,0.2-0.8,1-1.2,1.5c-0.1,0.2-0.1,0.5-0.2,0.8
		C161.6,90.5,161,91.1,160.3,91.6z"/>
	<path class="st0" d="M160.3,91.6c0.7-0.6,1.4-1.1,2.1-1.7c0.4,0.1,0.7-0.1,1.1-0.4c0.5-0.5,0.9-1.1,1.7-1.4c0.4-0.1,0.7-0.5,1,0
		c0.2,0.3,0.5,0.8,0.4,1.1c-0.3,0.6-0.6,1.4-1.2,1.7c-0.9,0.5-1.5,1.3-2.3,1.9c-0.5,0.5-1.1,0.9-1.9,0.8c-1,0-1.2-0.4-0.8-1.5
		C160.3,92.1,160.3,91.8,160.3,91.6z"/>
	<path class="st0" d="M187.6,95.1c0.3,3.1-0.8,5.4-2.4,7.5c-0.3,0.4-0.8,0.8-1.4,0.6c-0.4-0.1-0.7-0.3-1-0.6
		c-0.1-0.1,0.2-0.5,0.2-0.8c0.4-1.5,1.6-2.4,2.6-3.4c0.4-0.4,0.9-0.8,0.8-1.5C186.3,96,187.1,95.9,187.6,95.1z"/>
	<path class="st0" d="M177.3,94.5l0,0.4c-0.9,1.7-1.6,3.6-2.6,5.3c-0.2,0.3-0.7,0.5-1,0.5c-0.5-0.1-1.1-0.4-1.6-0.7l-0.1-0.4
		c0.2-0.3,0.3-0.7,0.6-1c1.4-1.5,3-2.9,3.9-4.8l0.4-0.1l0.3,0.2C177.3,94.1,177.3,94.3,177.3,94.5L177.3,94.5z"/>
	<path class="st0" d="M156.7,90c-0.2-0.2-0.4-0.4-0.5-0.6c-0.1-0.4-0.3-0.8,0.3-1.1c0.5-0.2,0.9-0.8,1.3-1.3c0.6-1,1.5-1.9,2.3-2.8
		c0.2-0.2,0.6-0.4,0.8-0.3c0.3,0.1,0.5,0.5,0.6,0.8c0.1,0.4,0,0.8-0.1,1.2c-0.2,0.5-3.9,3.8-4.4,4.1L156.7,90z"/>
	<path class="st0" d="M162.3,94.7c1.6-1.1,3.1-2.2,4.6-3.3c0.5-0.3,0.7-0.2,1,0.1L168,92c-1.1,1.3-2.3,2.5-3.6,3.6
		c-0.4,0.3-0.9,0.3-1.3-0.1C162.9,95.3,162.6,95,162.3,94.7z"/>
	<path class="st0" d="M168.4,91.1c-0.1-0.5-0.3-0.7-0.2-0.9c0.1-0.7,0.5-1.3,1-1.9c1-1,0.8-2.3,1.1-3.5c-0.8-0.6-0.3-1,0.2-1.4
		c0.2-0.2,0.7-0.5,0.8-0.4c0.3,0.2,0.5,0.6,0.6,0.9c0.1,0.3,0.1,0.8-0.1,1c-0.7,0.7-0.6,1.8-1.2,2.6c-0.6,0.7-0.7,1.8-1.1,2.6
		C169.2,90.4,168.8,90.6,168.4,91.1z"/>
	<path class="st0" d="M205.1,100.4c-0.5,0.9-1,1.9-1.6,2.9c-0.5,0.8-1.5,0.7-2.2,1.1c-0.2,0.1-0.5-0.1-0.7-0.2
		c0.1-0.2,0.1-0.6,0.2-0.7c1.3-0.5,1.3-2,2.2-2.8c0-0.8,0.7-0.8,1.2-1.1C204.5,99.6,205.1,99.9,205.1,100.4z"/>
	<path class="st0" d="M158.2,73.2c0,0.3,0,0.7,0,1c0,0.2-0.2,0.4-0.3,0.4c-0.2,0-0.4-0.1-0.5-0.2c-0.7-1.4-1.4-2.7-2.1-4.1
		c-0.1-0.2-0.2-0.4-0.2-0.6c0.3,0,0.7,0,1,0.1l0.1,0.4c0.3,0.4,0.7,0.8,1.1,1.2c0.3,0.3,0.8,0.3,1,0.6
		C158.3,72.3,158.2,72.7,158.2,73.2z"/>
	<path class="st0" d="M78.4,126.9c-0.7,0.2-1.5-0.3-2.3-0.5c-1.8-0.4-3.2-1.6-5-1.9l-0.4-0.1c-0.9-1.4-2.5-1.4-3.8-1.9
		c-0.2-0.1-0.5,0.1-0.6,0c-0.3-0.5-1.3-0.1-1.1-0.9c0.2-0.6,0.8-0.3,1.3-0.1c0.7,0.2,1.5,0.3,2.2,0.1c1.6-0.3,2.6,0.8,3.8,1.4
		l-0.2,0.5c0.2,0.2,0.5,0.5,0.8,0.6c0.4,0.1,0.8,0,1.2,0c1-0.1,1.8,0.2,2.6,0.7c0.9,0.5,1.9,0.6,2.9,1c0.3,0.1,0.5,0.4,0.7,0.6
		c-0.3,0.2-0.5,0.5-0.8,0.6C79.4,127,78.9,126.9,78.4,126.9z"/>
	<path class="st0" d="M65.5,102.4c-1.8,0.2-2.9-0.5-3.9-1.4c-0.7-0.6-1.2-1.2-2.3-1.1c-0.3,0-1-0.4-1-0.5c0.2-1.5-1.3-1.5-2-2.3
		c-0.3-0.4-1.2-0.4-1-1.2c0.1-0.2,1.1-0.4,1.5-0.2c0.6,0.3,1.6,0,1.9,1c0.1,0.3,1.1,0.3,1.3,0.6c0.5,0.8,1.8,0.6,2,1.8
		c0,0.2,0.7,0.6,1.1,0.6c1,0.1,1.7,0.6,2.3,1.3c0.2,0.3,0.4,0.7,0.6,1C65.7,102.3,65.4,102.4,65.5,102.4z"/>
	<path class="st0" d="M71.4,101c-1.8,1.3-3.2,0-4.5-0.9c-1-0.8-1.9-1.5-3.2-1.8c-1.2-0.3-1.7-1.7-2.9-2.1c-0.5-0.1,0-0.4,0.1-0.5
		c0.7-0.5,2.1-0.3,2.8,0.2c0.6,0.4,1.2,0.8,1.8,1.2c0.4,0.3,1.2,0.7,1.2,1c-0.1,1.4,1,0.8,1.6,1.1C69.4,99.7,70.7,99.9,71.4,101z"/>
	<path class="st0" d="M60.5,109.9c-1.4-0.1-2.6,0.3-3.6-0.5c-1-0.7-1.8-1.5-2.8-2.2c-0.5-0.3-0.1-1.1-0.9-1.1
		c-0.4,0-0.9-0.2-1.3-0.4c-0.6-0.3-1.3-0.5-1.9-1c-0.3-0.3-0.4-0.9-0.7-1.5c1.5,0,2.7,0.2,3.6,1.2c0.6,0.6,1.4,1,1.6,2
		c0.1,0.2,0.5,0.5,0.8,0.5c2-0.1,3.3,1.2,4.6,2.4C60,109.4,60.1,109.5,60.5,109.9z"/>
	<path class="st0" d="M70.9,93.9c1.7-1,3.2-0.9,4.7,0.3c0.4,0.4,1.1,0.4,1.6,0.7c0.9,0.4,1.7,0.9,2.5,1.4l0.1,0.4L79.6,97
		c-1,0.2-2-0.3-2.9,0.4c-0.1,0.1-0.6-0.3-0.9-0.3c-0.7,0-0.6-1.4-1.5-0.9C73.2,95.5,72.1,94.7,70.9,93.9z"/>
	<path class="st0" d="M81.1,109.3c-3.9,0.7-6.9-1.1-10.2-2.6c0.4-0.2,0.7-0.6,1.1-0.6c0.8-0.1,1.6,0,2.5,0c0.2,0,0.5,0.1,0.7,0.2
		c1,0.8,2.2,1,3.3,1.5C79.4,108.2,80.2,108.8,81.1,109.3z"/>
	<path class="st0" d="M65.8,94.7c0.4-0.2,0.8-0.4,1.3-0.5c0.7-0.1,1.3-0.1,1.9,0.5c0.6,0.6,1.5,1.4,2.3,1.4c1,0,1.3,1,2.1,1
		c0.1,0,0.2,0.3,0.2,0.5c0,0.1-0.2,0.3-0.4,0.3c-0.5,0.1-1.1-0.1-1.5,0.4c-0.1,0.1-0.7,0-0.9-0.2C68.9,97.1,66.9,96.6,65.8,94.7z"/>
	<path class="st0" d="M72.6,126.5c-1.6,0-3.1,0-4.7,0c-0.2,0-0.4-0.1-0.6-0.2c-1.6-1-3.2-1.9-5-2.5c1.4-0.1,2.8-0.5,4.2,0.1
		c0.3,0.1,0.7,0.2,1,0.1c0.6-0.1,1,0.2,1.4,0.6c0.6,0.6,1.3,1.1,2.2,1.1c0.2,0,0.5,0.2,0.7,0.3c0.2,0.1,0.5,0.2,0.7,0.3L72.6,126.5z
		"/>
	<path class="st0" d="M78.9,117.4c-0.2,0-0.5,0-0.7-0.1c-1.4-0.7-2.9-1.5-4.5-1.6c-0.3,0-0.6-0.2-0.8-0.4c-0.1-0.1-0.1-0.4-0.2-0.5
		c0.6,0.1,0.8-0.9,1.6-0.5c0.2,0.1,0.5,0.3,0.7,0.3c1.6-0.4,2.9,0.8,4.4,0.9c0.6,0,1.1,0.6,1.6,1l-0.1,0.5
		C80.3,117.1,79.6,117.2,78.9,117.4z"/>
	<path class="st0" d="M79.4,113.6c-0.7-0.1-1.5-0.2-2.1-0.4c-1.4-0.5-2.7-1.1-4-1.7c-0.2-0.1-0.4-0.4-0.5-0.6
		c-0.1-0.1,0.1-0.3,0.2-0.5c1.1,0.8,2.1-0.5,3.1,0c0.3,0.2,0.6,0.6,0.9,0.7c1.2,0.2,1.8,1.4,3.1,1.5c0.2,0,0.5,0.4,0.4,0.5
		c-0.1,0.2-0.3,0.4-0.6,0.6C79.8,113.7,79.5,113.6,79.4,113.6z"/>
	<path class="st0" d="M72.3,105.1c-0.2,0.2-0.3,0.4-0.5,0.4c-1.2,0.3-2.5,0.4-3.7-0.3c-0.5-0.3-1-0.8-1.5-0.8
		c-0.8,0.1-0.3-0.9-1.1-1c-0.5,0-0.5-0.5-0.1-0.8c1.1-0.8,2.1-0.1,3.1,0.3C69.9,103.7,71,104.4,72.3,105.1z"/>
	<path class="st0" d="M73.2,109.6c-2.5,0.9-4.3-0.3-6.2-1.5c-0.4-0.2-0.8-0.5-1.1-0.7c-0.1-0.1-0.2-0.4-0.2-0.5
		c0-0.1,0.3-0.3,0.4-0.3c1,0.1,2.2-0.4,3,0.7C70.8,107.5,71.5,109.3,73.2,109.6z"/>
	<path class="st0" d="M71,102.2c0.5-0.2,0.9-0.3,1.4-0.5c0.3-0.1,0.7-0.2,1-0.1c1.5,0.7,2.9,1.5,4.4,2.3l0.3,0.4
		c-0.1,0.2-0.3,0.4-0.4,0.4c-1,0.1-2.1,0.5-3.1-0.3c-0.7-0.5-1.6-0.8-2.3-1.3C71.8,103,71.4,102.6,71,102.2z"/>
	<path class="st0" d="M59.8,106.7c1.3-0.5,2.4,0.1,3.4,0.5c0.9,0.4,1.8,0.9,2.7,1.5c0.1,0.1,0.1,0.5,0,0.7c-0.3,0.5-2.1,0.9-2.6,0.4
		c-1-0.9-2.5-1.2-3.3-2.5C59.9,107.2,59.9,107,59.8,106.7z"/>
	<path class="st0" d="M59.1,118.3c0.3-0.2,0.4-0.8,1.1-0.4c0.3,0.2,0.7,0.3,1.1,0.3c2.1-0.2,3.7,1.1,5.5,1.8l0.1,0.5l-0.5,0.2
		c-0.5-0.4-0.8-0.6-1.4,0c-0.2,0.2-1,0.2-1.2,0c-0.5-0.5-1-0.4-1.5-0.4c-0.5,0-0.7-0.2-1.1-0.4C60.6,119.3,59.9,118.9,59.1,118.3z"
		/>
	<path class="st0" d="M71,113.6c-0.1,0-0.7,0.1-1-0.1c-0.9-1-2.6-0.8-3.3-2c-0.1-0.2-0.2-0.4-0.1-0.5c0.1-0.1,0.3-0.2,0.5-0.2
		c0.7,0,1.8-0.3,2.2,0.1c0.6,0.5,1.4,0.5,1.9,1c0.4,0.4,0.9,0.6,1.4,0.6c0.3,0,0.7,0.4,1,0.6c-0.3,0.4-0.5,0.8-1.1,0.7
		C72.1,113.6,71.7,113.6,71,113.6z"/>
	<path class="st0" d="M64.7,113.6c-1.5,0.4-2.5-0.9-3.7-1.6c-0.4-0.2-1-0.6-1-0.7c0.2-0.6,0.8-0.6,1.4-0.6c2,0,3.6,1.1,5.1,2.2
		l0.1,0.4c-0.1,0.1-0.3,0.3-0.4,0.3C65.7,113.6,65.3,113.6,64.7,113.6z"/>
	<path class="st0" d="M78.1,100.2c-0.5,0.4-1.3-0.2-1.9,0.5c-0.2,0.2-0.9,0-1.3-0.1c-0.9-0.4-1.7-0.8-2.6-1.3
		c-0.2-0.1-0.4-0.4-0.3-0.4c0.1-0.2,0.4-0.6,0.6-0.6C74.6,98.3,76.8,97.9,78.1,100.2z"/>
	<path class="st0" d="M78,98c1-0.3,1.8-0.6,2.7-0.9c0.2-0.1,0.5,0,0.7,0.1c0.8,0.4,1.6,0.8,2.4,1.2c0.2,0.1,0.4,0.4,0.4,0.6
		c-0.1,0.2-0.4,0.5-0.6,0.5C81.7,99.6,79.7,99.6,78,98z"/>
	<path class="st0" d="M59.2,120.1c-2.8,0.4-5.1,0.1-6.8-2.3c1.6-0.2,2.9,0,4.2,0.9c0.4,0.3,1.1,0.4,1.6,0.7
		C58.5,119.6,58.7,119.8,59.2,120.1z"/>
	<path class="st0" d="M68.5,114.4c0.6,0,1.7-0.2,2.2,1.1c0,0.1,0.4,0.2,0.5,0.1c0.9-0.1,1.7,0.2,2.4,0.7c0.3,0.2,1,0.1,0.7,0.7
		c-0.1,0.2-0.7,0.2-1.1,0.2c-0.2,0-0.5-0.2-0.7-0.3c-0.8-0.8-1.8-1.1-2.9-0.9c-1.2,0.2-2.1-0.7-3.1-1l-0.1-0.4l0.2-0.3
		C67.2,114.4,67.7,114.4,68.5,114.4z"/>
	<path class="st0" d="M67.1,116.6c-0.9,0.4-1.7,0.3-2.3,0.8c-0.9-0.5-2-0.5-2.8-1.3c-0.4-0.4-0.7-0.9-1.3-0.8l-0.4-0.3l0.3-0.3
		c0.2-0.1,0.5-0.3,0.7-0.3c1.1,0.3,2.3,0.4,3.3,0.9c0.6,0.3,1.1,0.7,1.7,0.8C66.6,116.3,66.9,116.4,67.1,116.6z"/>
	<path class="st0" d="M59.8,105.5c-1.4,1.1-2.7,0.7-3.8-0.5c-0.2-0.2-0.4-0.4-0.6-0.5c-0.2-0.1-0.5-0.4-0.5-0.4
		c0.1-0.3,0.3-0.7,0.6-0.8c0.5-0.1,1,0,1.5,0.2C58.1,103.9,59.1,104.6,59.8,105.5z"/>
	<path class="st0" d="M46.5,96.1c0.3,0.2,0.7,0.3,1,0.5c0.8,0.5,1.6,1.2,2.4,1.7c0.6,0.3,0.2,0.7,0.3,1c-0.3,0.1-0.6,0.3-0.9,0.2
		c-1-0.2-3.1-1.8-3.6-2.7l0-0.4C46,96.3,46.2,96.2,46.5,96.1z"/>
	<path class="st0" d="M58.7,113.6c-1.1,0.5-1.6-0.8-2.5-1c0.1-0.8-0.5-0.6-0.9-0.7l-0.3-0.4l0.3-0.4c1,0,2.1-0.3,2.8,0.8
		c0.8-0.1,1.1,1.3,2.1,0.9c0.1,0.2,0.2,0.3,0.2,0.5l-0.2,0.3C59.6,113.6,59.2,113.6,58.7,113.6z"/>
	<path class="st0" d="M57.7,121.1c1.2,0,2.2,0,3.2,0c0.2,0,0.5,0.1,0.7,0.3c0.5,0.3,1.4,0.2,1.6,1.1c-0.6,0.1-1.2,0.2-1.7,0.2
		C59.9,122.8,59.1,122.4,57.7,121.1z"/>
	<path class="st0" d="M50.7,100.5c2.2-0.7,3.3,0.9,4.7,2.2c-1.1-0.1-2.1,0-2.8-0.4C51.9,102,50.8,101.7,50.7,100.5z"/>
	<path class="st0" d="M153.1,105.9c0.5,0.4,0.8,0.7,1.1,1.1l0,0.4c-0.7,0.1-0.2,1.3-1.1,1.3c-0.1,0-0.2,0.4-0.3,0.6
		c0.3,0.1,0.3,0.8,0.9,0.4c0.4-0.3,1-0.1,1.6-0.2c-0.5,1.6-1.9,2.1-2.9,2.9c-0.6,0.5-1.3,0.9-1.9,1.3c-0.2,0.1-0.5,0.3-0.7,0.3
		c-0.4,0-0.8-0.1-1.1-0.3c-0.3-0.2,0.2-1.2,0.6-1.4c0.6-0.2,1.3-0.3,1.9-0.4c0.4-0.1,1,0.1,0.8-0.6c-0.1-0.4-0.4-0.9-1.1-0.6
		c-0.7,0.3-1.4,0.6-2.1,0.9c-0.4,0.1-0.7,0.3-1.1,0.3c-0.7,0.1-1-0.4-1-1c0-0.5-0.3-1.2,0.6-1.1l0.1-0.1
		C149.7,109.2,151.6,108,153.1,105.9z"/>
	<path class="st0" d="M172.2,126.4c0.8-0.8,1.5-1.5,2.2-2.2c0.6-0.5,1.2-1.1,1.9-1.4c0.5-0.2,0.9-0.4,1.1-1c0.1-0.5,0.5-0.3,0.8-0.3
		c0.2,0,0.4,0.4,0.4,0.5c-0.9,1.5-1.7,3.1-3.3,4c-0.2,0.1-0.4,0.3-0.6,0.4c-0.3,0.2-0.7,0.4-1.1,0.3
		C173,126.8,172.6,126.6,172.2,126.4z"/>
	<path class="st0" d="M149.7,115.3c1.1-0.5,1.9-1.1,2.8-1.3c1.1-0.2,1.7-1.2,2.7-1.5c0-0.7,0.3-0.9,0.9-0.4c0.5,0.4,0.7,0.9,0.2,1.4
		c-0.5,0.5-0.9,1.2-1.7,1.3c-1,0.2-1.8,0.9-2.8,1.3c-0.7,0.3-1.1,0.3-1.5-0.2C150.2,115.8,150.1,115.7,149.7,115.3z"/>
	<path class="st0" d="M166.9,119.6c-0.1,0.2-0.2,0.4-0.4,0.6c-0.8,1.3-2.1,2.2-3.3,3.1c-0.2,0.2-0.6,0.2-0.9,0.2
		c-0.6,0.1-1-0.2-1.1-0.9c-0.1-0.7,0.4-0.7,0.7-0.9c1.3-0.8,2.6-1.8,3.9-2.6c0.2-0.1,0.5-0.1,0.7,0
		C166.6,119.2,166.7,119.4,166.9,119.6z"/>
	<path class="st0" d="M161.7,115.5c-0.3,0.7-0.5,1-0.6,1.3c-0.8,1.4-3.6,3.6-5.1,3.7c-0.4,0-0.8-0.3-1.1-0.4
		c0.1-0.3,0.2-0.6,0.4-0.8c0.5-0.6,1.1-0.9,1.8-1c1.1-0.3,2.1-0.6,2.9-1.6C160.3,116.2,160.9,116,161.7,115.5z"/>
	<path class="st0" d="M158.9,122c-0.2-0.1-0.5-0.2-0.7-0.3c0.1-0.2,0.1-0.5,0.3-0.7c0.5-0.4,1-0.8,1.6-1.2c1-0.7,1.9-1.4,2.9-2
		l0.4,0l0,0.4c-0.5,0.7-1,1.4-1.6,2c-0.6,0.6-1.2,1-1.9,1.5C159.6,121.9,159.2,121.9,158.9,122z"/>
	<path class="st0" d="M161.1,106.2c0,1.6,0.1,2.8-1.4,3.3c-0.3,0.1-0.4,0.6-0.6,0.9c-0.2,0.3-0.2,0.6-0.4,0.8
		c-0.3,0.3-0.6,1-1.1,0.6c-0.3-0.2,0-1,0-1.5l0.1-0.1C158.7,109,159.7,107.8,161.1,106.2z"/>
	<path class="st0" d="M162.9,110.7c-0.4,0.7-0.7,1.3-1.1,2c-0.1,0.1-0.5,0.1-0.8,0.1c-0.2-0.1-0.3-0.4-0.3-0.6
		c-0.1-1.1,0.6-1.9,1.3-2.5l0.4,0.1C162.6,110,162.7,110.3,162.9,110.7z"/>
	<path class="st0" d="M192.4,40.9c1.2,0.2,2.4,0.2,3.5,0.6c2.2,0.6,4.4,1.3,6.7,1.2L203,43c0,0.1-0.2,0.5-0.2,0.5
		c-0.6-0.2-1.2,0.6-1.7,0l-0.2,0c-2.2,0.3-4-0.9-6-1.4c-0.9-0.2-1.7-0.6-2.5-0.9L192.4,40.9z"/>
	<path class="st0" d="M43.5,145.2c-0.4-1.6,0.1-2.7-0.6-3.7c-0.2-0.2,0.2-0.8,0.4-1.2c0.1-0.2,0.3-0.3,0.4-0.5
		c0.1,0.2,0.4,0.4,0.4,0.6c0,1.1,0.1,2.2,0,3.3C44.1,144,43.8,144.4,43.5,145.2z"/>
	<path class="st0" d="M152.7,84.6c-0.9-0.3-1.4-0.6-1.8-1.3c-0.3-0.6-0.8-1.1-1-1.8c-0.4-1.3-1.1-2.6-2-3.7
		c-0.5-0.8-0.9-1.6-1.1-2.7c0.4,0.4,0.8,0.7,1.1,1.2c1.2,2.3,2.7,4.5,4.5,6.4C152.9,83.3,152.8,83.9,152.7,84.6z"/>
</g>
</svg>
